<?xml version="1.0" encoding="UTF-8"?>
<!DOCTYPE svg PUBLIC "-//W3C//DTD SVG 1.1//EN" "http://www.w3.org/Graphics/SVG/1.1/DTD/svg11.dtd">
<!-- Creator: CorelDRAW 2019 (64-Bit) -->
<svg xmlns="http://www.w3.org/2000/svg" xml:space="preserve" width="3.6in" height="3.6in" version="1.1" style="shape-rendering:geometricPrecision; text-rendering:geometricPrecision; image-rendering:optimizeQuality; fill-rule:evenodd; clip-rule:evenodd"
viewBox="0 0 3600 3600"
 xmlns:xlink="http://www.w3.org/1999/xlink">
 <defs>
  <style type="text/css">
   <![CDATA[
    .fil39 {fill:#2F95CD;fill-rule:nonzero}
    .fil27 {fill:#DFE3FB;fill-rule:nonzero}
    .fil1 {fill:#E5F6FF;fill-rule:nonzero}
    .fil2 {fill:#F2FAFF;fill-rule:nonzero}
    .fil3 {fill:white;fill-rule:nonzero}
    .fil47 {fill:url(#id32)}
    .fil45 {fill:url(#id33)}
    .fil0 {fill:url(#id34)}
    .fil24 {fill:url(#id35)}
    .fil16 {fill:url(#id36)}
    .fil42 {fill:url(#id37)}
    .fil38 {fill:url(#id38)}
    .fil5 {fill:url(#id39)}
    .fil29 {fill:url(#id40)}
    .fil37 {fill:url(#id41)}
    .fil10 {fill:url(#id42)}
    .fil28 {fill:url(#id43)}
    .fil7 {fill:url(#id44)}
    .fil18 {fill:url(#id45)}
    .fil31 {fill:url(#id46)}
    .fil15 {fill:url(#id47)}
    .fil12 {fill:url(#id48)}
    .fil21 {fill:url(#id49)}
    .fil54 {fill:url(#id50)}
    .fil49 {fill:url(#id51)}
    .fil35 {fill:url(#id52)}
    .fil51 {fill:url(#id53)}
    .fil9 {fill:url(#id54)}
    .fil23 {fill:url(#id55)}
    .fil36 {fill:url(#id56)}
    .fil11 {fill:url(#id57)}
    .fil52 {fill:url(#id58)}
    .fil8 {fill:url(#id59)}
    .fil26 {fill:url(#id60)}
    .fil25 {fill:url(#id61)}
    .fil33 {fill:url(#id62)}
    .fil40 {fill:url(#id63)}
    .fil53 {fill:url(#id64)}
    .fil17 {fill:url(#id65)}
    .fil13 {fill:url(#id66)}
    .fil6 {fill:url(#id67)}
    .fil46 {fill:url(#id68)}
    .fil44 {fill:url(#id69)}
    .fil30 {fill:url(#id70)}
    .fil32 {fill:url(#id71)}
    .fil22 {fill:url(#id72)}
    .fil48 {fill:url(#id73)}
    .fil20 {fill:url(#id74)}
    .fil41 {fill:url(#id75)}
    .fil50 {fill:url(#id76)}
    .fil19 {fill:url(#id77)}
    .fil34 {fill:url(#id78)}
    .fil14 {fill:url(#id79)}
    .fil4 {fill:url(#id80)}
    .fil43 {fill:url(#id81)}
   ]]>
  </style>
    <clipPath id="id0">
     <path d="M1489.57 2909.22c-14.15,-4.99 -29.08,-22.92 -43.81,-49.36l0 0c-8.82,-39.52 -21.91,-98.15 -34.21,-156.62 -15.8,-75.37 -56.12,-152.65 -76.76,-188.94l0 0c-8.53,-41.58 -13.67,-75.37 -14.15,-93.88 13.67,50.1 180.57,168.37 286.5,168.37 15.22,0 29.17,-2.5 41.29,-7.94 0,0 -4.26,-3.38 -11.82,-9.26 3.49,0.44 7.07,0.74 10.56,1.03 0.87,1.91 1.36,5.29 1.36,9.84 0,7.49 -1.16,18.22 -3.49,31.15l0 0c0,0 -148.97,-41.72 -198.21,-41.72 -7.56,0 -12.8,1.03 -14.73,3.23 -14.06,17.48 3.3,243 57.48,334.09zm-167.39 -503.05c0,0 0.09,-0.15 0.09,-0.15 0.97,-1.47 2.13,-2.5 3.49,-3.38 -1.36,0.88 -2.43,2.06 -3.49,3.38 0,0 -0.09,0.15 -0.09,0.15l0 0z"/>
    </clipPath>
    <clipPath id="id1">
     <path d="M1607.13 2588.78c-105.94,0 -272.84,-118.27 -286.5,-168.46l0 0c-0.19,-7.09 0.29,-11.95 1.55,-14.12 0,-0.06 0.09,-0.11 0.09,-0.17 1.07,-1.31 2.13,-2.46 3.49,-3.48 3.2,-2.06 7.56,-3.03 12.89,-3.03 5.14,0 11.24,0.86 18.03,2.52 44.49,101.23 150.72,155.71 279.91,169.54 7.56,5.89 11.82,9.32 11.82,9.32 -12.11,5.43 -26.07,7.89 -41.29,7.89l0 0z"/>
    </clipPath>
    <clipPath id="id2">
     <path d="M1907.28 2956.69c-65.76,-73.84 -140.02,-296.73 -143.73,-366.28 1.07,1.89 5.47,2.75 12.51,2.75 55.5,0 275.64,-58.39 316.68,-227.02 0,0 -10.55,1.2 -27.94,4.81 10.26,-4.12 18.18,-6.53 23.06,-6.53 2.44,0 4.01,0.52 4.89,1.72 1.27,1.72 1.76,7.04 1.76,15.63 0,19.75 -3.13,56.15 -8.6,101.66l0 0c0,0 -158.58,47.05 -195.22,122.27 -36.64,75.04 -22.87,253.63 16.61,351l0 0z"/>
    </clipPath>
    <clipPath id="id3">
     <path d="M1763.46 2588.76c-0.04,-1.22 -0.07,-2.4 -0.07,-3.52 0,-6.25 0.78,-10.82 2.41,-13.33 1.83,-0.2 3.63,-0.42 5.46,-0.65 -2.75,5.68 -5.35,11.5 -7.78,17.49 0,0.01 -0.01,0.01 -0.01,0.01l0 0z"/>
    </clipPath>
    <clipPath id="id4">
     <path d="M1775.99 2593.19c-6.98,0 -11.44,-0.96 -12.5,-2.74l0 0c0,-0.55 0,-1.1 0,-1.65 0,0 0,0 0,0l0 0c0,0 0,0 0,-0.07 2.42,-5.96 5.04,-11.8 7.75,-17.49 140.06,-17.21 242.31,-90.04 284.47,-196.27 3.2,-1.51 6.2,-2.81 9.02,-3.98 17.44,-3.63 28.01,-4.87 28.01,-4.87 -41,168.63 -261.21,227.06 -316.75,227.06l0 0z"/>
    </clipPath>
    <clipPath id="id5">
     <path d="M982.08 2438.38c-4.21,-1.17 -6.52,-1.94 -6.52,-1.94 0,0 0.21,-2.52 0.84,-7.19 2.42,1.17 4.84,2.33 7.26,3.5 -0.52,1.75 -1.05,3.5 -1.57,5.63zm-5.68 -9.32c4.84,-36.31 30.61,-202.7 120.55,-388.32 51.23,-105.43 116.44,-203.67 172.72,-276.09 -32.19,42.52 -166.83,227.36 -203.02,384.44 -18.2,79.22 4.21,109.89 40.71,109.89 46.07,0 114.45,-48.54 152.31,-109.89 26.3,-42.52 53.12,-112.81 76.06,-183.09 -6.73,49.12 -11.05,99.99 -12.63,149.7 -59.75,145.62 -130.22,297.65 -132.64,303.28l-0.11 0 0 0 -0.11 0c0,0 0,0 0,0 0,0 13.78,-80.58 -62.9,-96.5 -4.63,-0.97 -9.36,-1.36 -13.99,-1.36 -70.48,0 -135.17,105.04 -136.96,107.95l0 0z"/>
    </clipPath>
    <clipPath id="id6">
     <path d="M983.61 2432.79c-2.43,-1.13 -4.78,-2.33 -7.21,-3.61 0,-0.03 0,-0.07 0,-0.1 1.75,-2.85 66.52,-108.03 136.95,-108.03 4.65,0 9.3,0.48 14.02,1.41 76.63,15.93 62.88,96.56 62.88,96.56 0,0 0,0 0,0l-10.72 1.69c-16.85,-34.23 -42.87,-55.72 -76.97,-61.28 -3.03,-0.48 -6.2,-0.72 -9.5,-0.72 -38.82,0 -89.17,33.99 -105.81,64.74 -1.21,2.33 -2.5,5.49 -3.64,9.34l0 0z"/>
    </clipPath>
    <clipPath id="id7">
     <path d="M1165.07 2686.79c-6.02,0 -12.98,-0.92 -20.48,-3.54 -23.33,-8.15 -57.47,-58.06 -57.47,-58.06 -2.81,-34.82 12.81,-95.79 12.81,-95.79l84.81 150.98c-0.19,1.07 -0.39,2.18 -0.61,3.2 -3.17,1.16 -10.03,3.2 -19.06,3.2l0 0z"/>
    </clipPath>
    <clipPath id="id8">
     <path d="M1477.96 1608.72c-183.62,-22.2 -334.96,-76.06 -378.92,-157.27 0,0 35.4,-40.91 104.26,-76.27 76.25,26.31 184.4,34.33 308.5,34.33 100.37,0 211.24,-5.14 324.84,-10.07 338.46,-14.6 450.5,-63.73 507.3,-159.12 44.74,-75.24 -0.39,-240.94 -21.39,-307.96l33.07 98.89c15.56,61.26 24.12,121.29 24.12,177.2 0,25.7 -1.94,50.57 -5.44,74.22 -46.3,48.1 -121.77,114.92 -237.7,186.66 -10.89,-3.08 -24.51,-6.37 -40.46,-9.87l0 0 -1.56 -0.2c-2.72,-0.82 -5.45,-1.44 -8.56,-2.06 -0.78,-0.21 -1.94,-0.41 -2.72,-0.62 -78.2,-17.06 -200.35,-24.87 -328.73,-25.29 -4.28,0 -8.94,0 -13.22,0 -156.78,0 -320.17,10.69 -420.54,28.99 -58.74,10.69 -95.7,23.85 -98.04,38.85 0,1.64 -0.39,3.08 -0.39,4.73 0,22.82 24.12,45.02 71.19,63.93l0.39 0 0 0c42.79,17.06 104.65,31.45 184.4,40.5 0,0.2 -0.39,0.2 -0.39,0.41zm452.05 -8.43c-0.78,-1.03 -1.56,-1.85 -2.72,-2.67 6.61,-1.24 12.84,-2.26 19.45,-3.5 0,0.41 0,0.62 0,1.03 0,0.62 0,1.44 0,2.26 -5.44,1.03 -11.28,1.85 -16.73,2.88zm-836.8 -160.35c-32.68,-66.19 -48.24,-146.78 -48.24,-233.12 0,-100.74 20.62,-209.28 59.91,-313.3l0 -0.2c-3.11,11.31 -74.69,272.19 -8.94,400.26l-42.8 18.5c0,0 14.78,75.44 40.07,127.87l0 0z"/>
    </clipPath>
    <clipPath id="id9">
     <path d="M2133.74 1471.23c-10.47,-4.26 -23.04,-8.15 -37.43,-11.68 15.89,3.44 29.5,6.74 40.42,9.84 -1,0.61 -1.99,1.22 -2.99,1.84l0 0z"/>
    </clipPath>
    <clipPath id="id10">
     <path d="M1293.86 1567.76l0 0 -0.26 0c-47,-18.78 -71.28,-41.02 -71.02,-63.98 0,-1.56 0,-3.08 0.26,-4.6 2.09,-15.03 39.42,-28.19 97.91,-38.95 100.52,-18.19 263.96,-28.95 420.61,-28.95 4.44,0 8.88,0 13.31,0 -4.44,0 -8.61,0 -13.06,0 -156.65,0 -320.35,10.76 -420.87,28.95 14.62,19.87 52.74,38.15 112.27,51.82 -127.67,35.45 -139.16,55.7 -139.16,55.7zm730.52 -34.39c-20.89,-7.09 -48.56,-15.74 -80.41,-24.26 65.8,-14.06 121.15,-32.29 141.77,-51.7 3.13,0.59 6.01,1.22 8.88,1.81l1.57 0.34 0 0c14.62,3.55 27.15,7.43 37.6,11.69 -33.16,20.39 -69.45,41.23 -109.4,62.12l0 0z"/>
    </clipPath>
    <clipPath id="id11">
     <path d="M1203.42 1375.3c-45.79,-15.76 -80.31,-38.1 -100.17,-69.28 -2.52,-4.01 -4.89,-8.2 -7.09,-12.54l65.5 -28.44c0,0 59.66,-4.69 114.99,-5.01 25.54,10.12 54.62,18.96 86.46,26.49 -20.41,25.81 -82.76,51.77 -149.98,83.94 -3.31,1.59 -6.54,3.19 -9.69,4.83l0 0z"/>
    </clipPath>
    <clipPath id="id12">
     <path d="M1099.17 1451.54l0 0c-2.06,-3.77 -4.03,-7.63 -5.95,-11.5 -25.25,-52.44 -39.93,-127.96 -39.93,-127.96l42.81 -18.56c2.24,4.34 4.62,8.49 7.19,12.5 19.85,31.2 54.3,53.54 100.09,69.28 -69.03,35.21 -104.2,76.24 -104.2,76.24l0 0z"/>
    </clipPath>
    <clipPath id="id13">
     <path d="M2087.63 818.77c11.31,-40.87 -37.03,-154.78 -128.06,-154.78 -4.37,0 -8.48,0.2 -12.86,0.72 -62.74,7.17 -87.94,65.04 -94.89,114.11 -3.34,-1.13 -6.69,-2.15 -10.03,-3.17 -73.55,-23.77 -151.72,-47.53 -229.89,-47.53 -4.11,0 -8.23,0.1 -12.34,0.2 -18.26,0.61 -36,1.23 -52.97,1.64 -14.14,-32.57 -39.6,-60.44 -81.52,-65.25 -4.37,-0.51 -8.74,-0.72 -12.86,-0.72 -44.74,0 -79.2,27.25 -101.31,59.92 -39.6,-7.48 -60.69,-21.61 -56.57,-46.91 8.74,-52.04 177.95,-203.95 430.21,-210.4 2.83,-0.1 5.65,-0.2 8.48,-0.2 248.66,0 452.84,285.79 432.01,307.81 -22.89,24.28 -48.86,38.11 -77.4,44.56l0 0z"/>
    </clipPath>
    <clipPath id="id14">
     <path d="M2045.73 823.06c-58.06,0 -123.95,-21.66 -194.03,-44.25 6.96,-49.04 32.4,-106.93 94.93,-114.07 4.4,-0.54 8.65,-0.78 12.83,-0.78 91.19,0 139.49,113.93 128.13,154.75 -13.42,3.03 -27.42,4.35 -41.86,4.35l0 0z"/>
    </clipPath>
    <clipPath id="id15">
     <path d="M1466.42 731.31c-46.63,0 -86.11,-1.88 -115.41,-7.41 22.08,-32.63 56.44,-59.93 101.08,-59.93 4.23,0 8.46,0.26 12.87,0.75 42.11,4.8 67.37,32.63 81.52,65.29 -28.43,0.78 -55.27,1.31 -80.06,1.31l0 0z"/>
    </clipPath>
    <clipPath id="id16">
     <path d="M1654.39 1276.98c-174.92,0 -246.59,-38.87 -236.25,-77.71 6.83,-25.77 56.89,-38 125.42,-38 53.01,0 117.11,7.33 181.02,21.34 74.07,16.22 132.44,21.38 177.51,21.38 39.34,0 68.53,-3.85 89.59,-7.73 21.06,-3.88 33.8,-7.73 40.08,-7.73 1.85,0 3.14,0.36 3.88,1.2 13.3,15.68 -44.15,72.3 -314.38,85.55 -23.83,1.13 -45.99,1.7 -66.87,1.7l0 0z"/>
    </clipPath>
    <clipPath id="id17">
     <path d="M2320.71 926.57l-6.53 -19.69c1.27,3.76 3.67,10.52 6.53,19.69l0 0z"/>
    </clipPath>
    <clipPath id="id18">
     <path d="M1695.58 2575.12c-20,-0.24 -39.8,-1.46 -58.93,-3.42 -129.17,-13.92 -235.52,-68.37 -279.99,-169.69 -4.89,-11.23 -9.02,-22.7 -12.39,-35.16 -15,-54.93 -21.96,-128.18 -21.96,-206.56 0.11,-125.5 18.16,-264.67 50.13,-366 7.83,-24.66 17.18,-48.34 28.06,-71.05l0.11 -0.24c0,0 -79.37,263.44 -45.34,478.79 -1.3,6.59 -2.5,13.43 -3.48,20.51 -4.02,28.56 -4.02,55.91 -0.33,81.79 12.07,158.7 157.56,267.35 344.14,271.02l0 0z"/>
    </clipPath>
    <clipPath id="id19">
     <path d="M1726.08 2574.78c203.12,-7.81 316.09,-133.63 318.94,-293.15 0.1,-5.55 0,-10.9 -0.11,-16.44 40.29,-125.41 24.3,-289.04 13.57,-364.08 0.94,1.03 2,2.06 2.94,3.08 0,0 0,-0.2 0,-0.2 16.2,79.76 24.51,162.41 24.4,242.37 0,58.39 -4.42,115.13 -13.46,168.57 -3.57,20.97 -9.15,41.11 -16.72,60.03 -42.07,106.28 -144.32,179.06 -284.43,196.33 -1.79,0.2 -3.58,0.41 -5.37,0.62 -12.94,1.44 -26.19,2.47 -39.76,2.88zm328.4 -703.07c-0.63,-2.47 -1.26,-4.93 -2,-7.61 -0.11,-0.62 -0.21,-1.24 -0.31,-1.65 0.84,3.08 1.57,6.17 2.31,9.25l0 0z"/>
    </clipPath>
    <clipPath id="id20">
     <path d="M2061.47 1904.12c-1,-1.04 -2,-2.08 -2.98,-3.12 -2.55,-17.84 -4.81,-30.7 -5.95,-36.92 0.69,2.68 1.32,5.26 1.91,7.7 2.47,10.65 4.8,21.37 6.98,32.13 0.03,0.15 0.05,0.2 0.05,0.2l0 0z"/>
    </clipPath>
    <clipPath id="id21">
     <path d="M1587.64 1714.09c-19.36,0 -37.79,-0.74 -54.69,-2.28 -118.28,-10.82 -100.31,-42.74 -99.39,-46.73l0.15 -0.25c63.59,-95.8 156.84,-158.46 262.22,-158.46 109.68,0 193.55,45.14 250.7,111.85 -0.31,0.49 -0.61,0.98 -0.92,1.48 -3.38,-4.67 -6.76,-9.28 -10.3,-13.9 0,0 0.77,8.36 3.07,22.63 -51,52.76 -222.28,85.66 -350.85,85.66l0 0z"/>
    </clipPath>
    <clipPath id="id22">
     <path d="M1938.48 1628.44c-2.24,-14.26 -3.03,-22.64 -3.03,-22.64 3.5,4.58 6.91,9.2 10.22,13.9 -2.03,2.98 -4.43,5.87 -7.19,8.74l0 0z"/>
    </clipPath>
    <clipPath id="id23">
     <path d="M1701.64 2537.79c-0.69,0 -1.25,0 -1.81,0 -179.65,-0.72 -227.9,-84.72 -227.9,-84.72 19.33,-22.65 53.54,-31.54 95.94,-31.54 52.56,0 117.63,13.61 183.26,31.54 27.39,7.52 52.84,10.38 75.78,10.38 76.61,0 125.7,-31.98 125.7,-31.98 0,0 -72.58,106.31 -250.98,106.31l0 0z"/>
    </clipPath>
    <clipPath id="id24">
     <path d="M2079.36 1833.28c-17.7,-11.52 -35.06,-28.59 -50.83,-48.65 -37.51,-47.16 -67.13,-110.84 -77.82,-157.59 -2.45,-10.98 -3.85,-21 -4.03,-29.68 0,-0.68 0,-1.49 0,-2.3 0,-10.84 1.93,-19.24 6.31,-24.39l0 -0.14c1.75,-1.49 3.33,-2.84 5.26,-4.06 0,0 41.36,152.17 158.09,152.17 16.3,0 33.82,-2.85 53.1,-9.62 142.14,-49.46 220.31,-249.46 249.58,-342.01 4.91,35.91 14.2,65.72 28.04,72.9 4.38,2.3 8.94,3.25 13.84,3.25 38.91,0 90.26,-63.96 90.26,-63.96 0,0 -0.18,-3.93 -0.7,-10.43 0.17,-0.13 0.35,-0.27 0.7,-0.41 0,2.98 0,5.42 0,7.32 0,2.3 0,3.52 0,3.52 -170.71,338.49 -471.81,454.07 -471.81,454.07l0 0z"/>
    </clipPath>
    <clipPath id="id25">
     <path d="M2460.92 1443.14c-4.88,0 -9.52,-1 -13.87,-3.22 -13.74,-7.15 -23.05,-36.96 -27.97,-72.93 6.89,-21.85 11.03,-37.69 12.67,-44.2 7.34,28.55 22.19,58.81 52.1,67.39 4.26,1.22 8.61,1.76 12.96,1.76 17.52,0 35.85,-9.15 53.7,-23.15 0.54,6.54 0.66,10.37 0.66,10.37 0,0 -51.4,64.02 -90.25,63.98l0 0z"/>
    </clipPath>
    <clipPath id="id26">
     <path d="M2516.76 1086.85c0.32,-1.21 0.63,-2.42 0.97,-3.65 -0.04,0.19 -0.08,0.35 -0.12,0.51 -0.27,1.02 -0.56,2.09 -0.85,3.14zm34.12 -81.16c0.09,-0.16 0.19,-0.35 0.27,-0.51l0.03 0c0,0 -0.11,0.16 -0.3,0.51l0 0z"/>
    </clipPath>
    <clipPath id="id27">
     <path d="M2471.37 1174.39l25.95 -189.55 53.82 20.35c-0.07,0.11 -0.18,0.34 -0.26,0.52 -2.75,4.63 -23.97,41.78 -33.16,77.51 -0.33,1.2 -0.64,2.4 -0.98,3.6 -10.81,38.02 -45.38,87.57 -45.38,87.57l0 0z"/>
    </clipPath>
    <clipPath id="id28">
     <path d="M1214.91 1120.9c-15.06,0 -30.82,-8.56 -41.96,-36.82 0,0 -9.36,-62.95 1.69,-147.57 10.41,-79.22 31,-132.23 44.7,-132.23 0.92,0 1.78,0.19 2.65,0.65 13.55,7.72 11.42,90.57 19.43,172.21 6.22,63.51 18.44,123.11 18.44,123.11 0,0 -21.61,20.64 -44.94,20.64l0 0z"/>
    </clipPath>
    <clipPath id="id29">
     <path d="M1989.07 2209.31c-31.51,0 -68.36,-45.57 -217.9,-60.16 -57.14,-5.57 -112.15,-5.57 -160.93,-5.57 -91.86,0 -162,0 -185.14,-36.96 -8.54,-13.44 55.37,-175.24 275.04,-175.24 10.5,0 21.18,0.41 32.4,1.15 245.85,16.8 300.68,264.5 265.96,275.39 -3.2,0.98 -6.23,1.39 -9.44,1.39l0 0z"/>
    </clipPath>
    <clipPath id="id30">
     <path d="M2249.05 689.67c-0.49,0 -1.03,0 -1.56,-0.09 -24.94,-3.28 -22.15,-134.65 19.52,-144.72 4.88,-1.21 9.64,-1.71 14.19,-1.71 34.3,0 58.13,29.54 58.13,29.54l15.34 25c0,0 -6.4,-0.9 -15.18,-0.9 -11.32,0 -26.58,1.48 -37.37,8.19 -18.7,11.69 -29.25,84.7 -53.08,84.7l0 0z"/>
    </clipPath>
    <clipPath id="id31">
     <path d="M1175.61 679.19c-17.87,0 -38.37,-67.57 -72.82,-73.18 -5.04,-0.85 -9.71,-1.19 -13.95,-1.19 -26.38,0 -38.28,13.51 -38.28,13.51 20.72,-48.89 83.78,-102.69 83.78,-102.69 48.89,35.33 62.44,155.56 43.94,163.01 -0.89,0.35 -1.78,0.55 -2.67,0.55l0 0z"/>
    </clipPath>
  <linearGradient id="id32" gradientUnits="userSpaceOnUse" x1="2581.48" y1="1265.06" x2="2581.48" y2="1083.7">
   <stop offset="0" style="stop-opacity:1; stop-color:#BE9DEA"/>
   <stop offset="1" style="stop-opacity:1; stop-color:#9E8CEF"/>
  </linearGradient>
  <linearGradient id="id33" gradientUnits="userSpaceOnUse" xlink:href="#id32" x1="2521.68" y1="1234.04" x2="2521.68" y2="906.88">
  </linearGradient>
  <linearGradient id="id34" gradientUnits="userSpaceOnUse" x1="2863.28" y1="3264.71" x2="2863.28" y2="3264.09">
   <stop offset="0" style="stop-opacity:1; stop-color:#E1D1ED"/>
   <stop offset="1" style="stop-opacity:1; stop-color:#F0FAFF"/>
  </linearGradient>
  <linearGradient id="id35" gradientUnits="userSpaceOnUse" x1="2305.89" y1="971.22" x2="2305.89" y2="498.04">
   <stop offset="0" style="stop-opacity:1; stop-color:#45FFCD"/>
   <stop offset="1" style="stop-opacity:1; stop-color:#22E0FF"/>
  </linearGradient>
  <linearGradient id="id36" gradientUnits="userSpaceOnUse" xlink:href="#id32" x1="1152.98" y1="2812.71" x2="1152.98" y2="2405.81">
  </linearGradient>
  <linearGradient id="id37" gradientUnits="userSpaceOnUse" xlink:href="#id32" x1="1696.41" y1="2557.86" x2="1696.41" y2="1886.77">
  </linearGradient>
  <linearGradient id="id38" gradientUnits="userSpaceOnUse" xlink:href="#id35" x1="1442.37" y1="868.5" x2="1442.37" y2="663.97">
  </linearGradient>
  <linearGradient id="id39" gradientUnits="userSpaceOnUse" x1="2861.32" y1="778.89" x2="2943.28" y2="185.24">
   <stop offset="0" style="stop-opacity:1; stop-color:#A242EA"/>
   <stop offset="1" style="stop-opacity:1; stop-color:#FE117E"/>
  </linearGradient>
  <linearGradient id="id40" gradientUnits="userSpaceOnUse" x1="1222.48" y1="1525.56" x2="2169.39" y2="1525.56">
   <stop offset="0" style="stop-opacity:1; stop-color:#8879EA"/>
   <stop offset="1" style="stop-opacity:1; stop-color:#9E8CEF"/>
  </linearGradient>
  <linearGradient id="id41" gradientUnits="userSpaceOnUse" xlink:href="#id35" x1="1970.5" y1="868.5" x2="1970.5" y2="663.97">
  </linearGradient>
  <linearGradient id="id42" gradientUnits="userSpaceOnUse" xlink:href="#id32" x1="1927.35" y1="2607.33" x2="1927.35" y2="2405.6">
  </linearGradient>
  <linearGradient id="id43" gradientUnits="userSpaceOnUse" x1="1727.48" y1="1297.08" x2="1727.48" y2="444.07">
   <stop offset="0" style="stop-opacity:1; stop-color:#0665BD"/>
   <stop offset="1" style="stop-opacity:1; stop-color:#1A1F77"/>
  </linearGradient>
  <linearGradient id="id44" gradientUnits="userSpaceOnUse" x1="1770.51" y1="2901.36" x2="2070.33" y2="2416.82">
   <stop offset="0" style="stop-opacity:1; stop-color:#CBC1F7"/>
   <stop offset="1" style="stop-opacity:1; stop-color:#E8DCF7"/>
  </linearGradient>
  <linearGradient id="id45" gradientUnits="userSpaceOnUse" xlink:href="#id44" x1="1096.82" y1="2629.19" x2="1219.45" y2="2444.07">
  </linearGradient>
  <linearGradient id="id46" gradientUnits="userSpaceOnUse" xlink:href="#id44" x1="1642.7" y1="2573.15" x2="1776.56" y2="1514.53">
  </linearGradient>
  <linearGradient id="id47" gradientUnits="userSpaceOnUse" xlink:href="#id44" x1="988.7" y1="2784.87" x2="1171.88" y2="2390.4">
  </linearGradient>
  <linearGradient id="id48" gradientUnits="userSpaceOnUse" xlink:href="#id32" x1="1083.79" y1="2453.76" x2="1083.79" y2="2321.05">
  </linearGradient>
  <linearGradient id="id49" gradientUnits="userSpaceOnUse" xlink:href="#id32" x1="1178.85" y1="766.25" x2="1178.85" y2="466.59">
  </linearGradient>
  <linearGradient id="id50" gradientUnits="userSpaceOnUse" xlink:href="#id44" x1="939.57" y1="939.48" x2="943.33" y2="792.46">
  </linearGradient>
  <linearGradient id="id51" gradientUnits="userSpaceOnUse" x1="1231.79" y1="1248.91" x2="1231.79" y2="1202.14">
   <stop offset="0" style="stop-opacity:1; stop-color:#D93DE3"/>
   <stop offset="1" style="stop-opacity:1; stop-color:#FF6DBA"/>
  </linearGradient>
  <linearGradient id="id52" gradientUnits="userSpaceOnUse" x1="1214.24" y1="1451.53" x2="1214.24" y2="1260.03">
   <stop offset="0" style="stop-opacity:1; stop-color:#ADBAEE"/>
   <stop offset="1" style="stop-opacity:1; stop-color:#A29AD9"/>
  </linearGradient>
  <linearGradient id="id53" gradientUnits="userSpaceOnUse" xlink:href="#id51" x1="2714.46" y1="756.57" x2="2878.69" y2="187.92">
  </linearGradient>
  <linearGradient id="id54" gradientUnits="userSpaceOnUse" xlink:href="#id32" x1="1928.04" y1="2593.18" x2="1928.04" y2="2366.16">
  </linearGradient>
  <linearGradient id="id55" gradientUnits="userSpaceOnUse" xlink:href="#id32" x1="2241.68" y1="728.35" x2="2241.68" y2="466.54">
  </linearGradient>
  <linearGradient id="id56" gradientUnits="userSpaceOnUse" xlink:href="#id32" x1="2476.09" y1="1443.15" x2="2476.09" y2="1205.64">
  </linearGradient>
  <linearGradient id="id57" gradientUnits="userSpaceOnUse" xlink:href="#id44" x1="1037.86" y1="2415.57" x2="1357.46" y2="1672.99">
  </linearGradient>
  <linearGradient id="id58" gradientUnits="userSpaceOnUse" xlink:href="#id51" x1="2643.71" y1="675" x2="2949.44" y2="269.5">
  </linearGradient>
  <linearGradient id="id59" gradientUnits="userSpaceOnUse" xlink:href="#id32" x1="1481.88" y1="2588.75" x2="1481.88" y2="2397.88">
  </linearGradient>
  <linearGradient id="id60" gradientUnits="userSpaceOnUse" xlink:href="#id44" x1="1693.88" y1="1633.54" x2="1779.99" y2="409.93">
  </linearGradient>
  <linearGradient id="id61" gradientUnits="userSpaceOnUse" xlink:href="#id35" x1="1124.91" y1="971.22" x2="1124.91" y2="498.04">
  </linearGradient>
  <linearGradient id="id62" gradientUnits="userSpaceOnUse" xlink:href="#id44" x1="2200.38" y1="1848.43" x2="2288.8" y2="1189.87">
  </linearGradient>
  <linearGradient id="id63" gradientUnits="userSpaceOnUse" xlink:href="#id32" x1="942.78" y1="1286.62" x2="1053.51" y2="772.4">
  </linearGradient>
  <linearGradient id="id64" gradientUnits="userSpaceOnUse" xlink:href="#id51" x1="2673.8" y1="521.52" x2="2919.36" y2="422.98">
  </linearGradient>
  <linearGradient id="id65" gradientUnits="userSpaceOnUse" x1="1136.45" y1="2686.75" x2="1136.45" y2="2529.41">
   <stop offset="0" style="stop-opacity:1; stop-color:#B2CAF2"/>
   <stop offset="1" style="stop-opacity:1; stop-color:#A7A7DD"/>
  </linearGradient>
  <linearGradient id="id66" gradientUnits="userSpaceOnUse" xlink:href="#id32" x1="1126.8" y1="2435.47" x2="1126.8" y2="2307.2">
  </linearGradient>
  <linearGradient id="id67" gradientUnits="userSpaceOnUse" xlink:href="#id44" x1="1415.59" y1="2899.23" x2="1513.43" y2="2422.5">
  </linearGradient>
  <linearGradient id="id68" gradientUnits="userSpaceOnUse" xlink:href="#id44" x1="2381.76" y1="1163.55" x2="2531.21" y2="995.51">
  </linearGradient>
  <linearGradient id="id69" gradientUnits="userSpaceOnUse" xlink:href="#id44" x1="2466.17" y1="1376.16" x2="2633.13" y2="923.52">
  </linearGradient>
  <linearGradient id="id70" gradientUnits="userSpaceOnUse" x1="1700.87" y1="1548.45" x2="1701.18" y2="1406.91">
   <stop offset="0" style="stop-opacity:1; stop-color:#5E36CC"/>
   <stop offset="1" style="stop-opacity:1; stop-color:#6C4A96"/>
  </linearGradient>
  <linearGradient id="id71" gradientUnits="userSpaceOnUse" xlink:href="#id40" x1="1935.46" y1="1754.97" x2="2061.46" y2="1754.97">
  </linearGradient>
  <linearGradient id="id72" gradientUnits="userSpaceOnUse" x1="2206.71" y1="948.18" x2="2206.71" y2="466.58">
   <stop offset="0" style="stop-opacity:1; stop-color:#B9ACF4"/>
   <stop offset="1" style="stop-opacity:1; stop-color:#E1D1F5"/>
  </linearGradient>
  <linearGradient id="id73" gradientUnits="userSpaceOnUse" xlink:href="#id32" x1="2539.69" y1="1251.91" x2="2539.69" y2="1080.33">
  </linearGradient>
  <linearGradient id="id74" gradientUnits="userSpaceOnUse" xlink:href="#id72" x1="1213.33" y1="948.18" x2="1213.33" y2="466.58">
  </linearGradient>
  <linearGradient id="id75" gradientUnits="userSpaceOnUse" x1="1245.37" y1="1325" x2="1254.17" y2="1201.06">
   <stop offset="0" style="stop-opacity:1; stop-color:#DD1A8F"/>
   <stop offset="1" style="stop-opacity:1; stop-color:#FE117E"/>
  </linearGradient>
  <linearGradient id="id76" gradientUnits="userSpaceOnUse" xlink:href="#id51" x1="2768.39" y1="773.49" x2="2826.21" y2="191.54">
  </linearGradient>
  <linearGradient id="id77" gradientUnits="userSpaceOnUse" xlink:href="#id44" x1="1096.28" y1="2644.76" x2="1216.7" y2="2445.85">
  </linearGradient>
  <linearGradient id="id78" gradientUnits="userSpaceOnUse" xlink:href="#id65" x1="1211.18" y1="1451.53" x2="1211.18" y2="1260.03">
  </linearGradient>
  <linearGradient id="id79" gradientUnits="userSpaceOnUse" xlink:href="#id32" x1="1130.67" y1="2363.94" x2="1130.67" y2="2261.71">
  </linearGradient>
  <radialGradient id="id80" gradientUnits="userSpaceOnUse" gradientTransform="matrix(1.00001 -0 -0 -0.22253 0 3794)" cx="1756.38" cy="3103.25" r="566.45" fx="1756.38" fy="3103.25">
   <stop offset="0" style="stop-opacity:1; stop-color:#DECEF4"/>
   <stop offset="0.388235" style="stop-opacity:1; stop-color:#EFDFFA"/>
   <stop offset="1" style="stop-opacity:1; stop-color:white"/>
  </radialGradient>
  <radialGradient id="id81" gradientUnits="userSpaceOnUse" gradientTransform="matrix(1.47308 -0 -0 -1.47478 -810 6107)" cx="1711.7" cy="2467.84" r="347.24" fx="1711.7" fy="2467.84">
   <stop offset="0" style="stop-opacity:1; stop-color:#45FFCD"/>
   <stop offset="1" style="stop-opacity:1; stop-color:#22E0FF"/>
  </radialGradient>
 </defs>
 <g id="Layer_x0020_1">
  <metadata id="CorelCorpID_0Corel-Layer"/>
  <g id="_1850343239920">
   <polygon class="fil0" points="2863.69,3264.71 2862.85,3264.1 "/>
   <path class="fil1" d="M2913.11 2369.03c-36.57,72.5 -79.29,133.04 -127.11,176.5 -14.04,12.82 -28.57,24.21 -43.59,33.89 -14.17,9.19 -28.8,16.96 -43.69,23.13 -122.64,50.69 -246.93,7.93 -376.6,-34.83 -100.72,-33.21 -204.68,-66.42 -313.65,-55.83 -208.94,20.33 -359.3,136.42 -492.57,233.88 -47.1,34.5 -92.13,66.69 -136.92,91.4 -12.6,7.02 -25.31,13.43 -37.89,19.13 -13.57,6.04 -27.97,11.72 -43.33,16.93l-0.13 0.13 -0.13 -0.13c-193.08,66.22 -519.2,63.81 -663.74,-78.68 -151.32,-149.26 -335.07,-632.98 81.11,-1256.06 462.42,-692.54 1725.87,-788.3 2063.49,-559.26 349.36,236.78 335.32,991.92 134.74,1389.82z"/>
   <path class="fil1" d="M2939.43 1262.63c38.35,-30.72 69.48,-70.4 90.22,-114.96 3.35,-7.18 6.47,-14.74 6.57,-22.65 0.21,-15.33 -11.06,-28.7 -24.03,-36.86 -31.74,-20 -75.78,-15.58 -105.36,7.49 -29.57,23.06 -44.57,62.19 -41.92,99.59 1.46,20.56 8.5,41.75 24.18,55.11 15.7,13.36 41.26,16.13 56.53,2.3 -0.22,-6.59 -9.18,-10.92 -14.48,-7.02l8.29 17z"/>
   <path class="fil1" d="M2991.69 2243.57c38.35,-30.74 69.49,-70.4 90.22,-114.96 3.35,-7.19 6.47,-14.74 6.59,-22.67 0.19,-15.33 -11.07,-28.68 -24.04,-36.86 -31.74,-19.98 -75.76,-15.57 -105.35,7.49 -29.58,23.06 -44.57,62.19 -41.92,99.61 1.46,20.54 8.48,41.75 24.17,55.11 15.7,13.36 41.28,16.13 56.54,2.28 -0.22,-6.57 -9.19,-10.92 -14.49,-7.02l8.28 17.02z"/>
   <path class="fil1" d="M2948.35 1111.36c20.14,-0.37 39.72,-11.96 49.74,-29.44 -10.42,-17.18 -27.89,-31.43 -47.94,-32.4 -20.07,-0.99 -41.02,15.25 -40.32,35.33 0.72,20.07 29.08,34.24 43.14,19.89l-4.61 6.63z"/>
   <path class="fil1" d="M3062.93 972.13c7.75,5.24 18,6.57 26.83,3.47 -1.06,-4.06 -2.17,-8.24 -4.71,-11.57 -2.56,-3.32 -6.94,-5.61 -10.97,-4.44 -5.52,1.59 -7.5,8.21 -8.61,13.83 -0.89,-1.31 -1.78,-2.61 -2.65,-3.93l0.11 2.64z"/>
   <path class="fil1" d="M3045.48 1004.79c-1.47,2.43 -3.71,4.39 -6.3,5.53 -1.82,-7.06 2.8,-14.04 7.48,-19.64 2.6,-3.11 6.33,-6.46 10.18,-5.15 2.68,0.91 4.14,3.74 6.32,5.54 4.36,3.6 12.46,4.07 13.06,9.71 0.35,3.18 -2.5,6 -5.6,6.79 -3.11,0.79 -6.37,0.07 -9.5,-0.65 -6.8,-1.58 -13.61,-3.17 -20.43,-4.74l4.79 2.61z"/>
   <path class="fil2" d="M3304.91 612.21c-8.09,-0.5 -15.59,-6.4 -17.97,-14.17 3.85,-1.79 8.11,-3.6 12.22,-3.6 1.58,0 3.15,0.26 4.65,0.9 5.42,2.33 6.58,12.04 0.83,13.3l0.26 3.57z"/>
   <path class="fil1" d="M3143.67 474.21c-2.75,0.25 -5.13,-2.47 -5.25,-5.24 -0.12,-2.76 1.46,-5.33 3.46,-7.25 1.17,-1.13 2.53,-2.11 4.1,-2.53 3.64,-0.93 7.72,1.93 8.24,5.65 0.5,3.72 -2.5,7.5 -6.22,8.02 -3.72,0.51 -7.56,-2.18 -8.51,-5.81l4.19 7.15z"/>
   <path class="fil1" d="M3040.19 887.31c-1.68,5.64 5.17,11.71 10.56,9.35 0.7,-2.97 0.92,-6.21 -0.33,-9 -1.25,-2.79 -4.32,-4.92 -7.3,-4.28 -2.99,0.65 -4.86,4.77 -2.85,7.04l-0.07 -3.11z"/>
   <path class="fil1" d="M3019.78 1017.68c4.29,5.61 11.28,9.04 18.35,9.03 -0.51,-5.76 -1.03,-11.51 -1.54,-17.28 -0.24,-2.71 -0.53,-5.56 -2.11,-7.78 -3.09,-4.35 -10.38,-4.07 -13.91,-0.07 -3.53,3.99 -3.43,10.35 -0.71,14.92l-0.08 1.18z"/>
   <path class="fil2" d="M3138.36 559.85c-0.69,0 -1.37,-0.14 -2.01,-0.46 -2.86,-1.46 -3.7,-5.67 -1.87,-8.31 1.24,-1.8 3.43,-2.78 5.62,-2.78 1.03,0 2.06,0.22 2.99,0.65 0.06,1.94 0.1,3.9 0.14,5.86l0.25 0.67c-0.11,2.5 -2.64,4.36 -5.11,4.36z"/>
   <path class="fil1" d="M3041.44 929.93c-3.22,-2.06 -7.39,1.68 -7.91,5.47 -0.5,3.79 1.02,7.58 0.91,11.4 -0.1,3.93 -2.02,7.79 -5.09,10.24 -1.79,1.44 -4.25,2.42 -6.37,1.54 -1.42,-0.58 -2.4,-1.87 -3.29,-3.14 -4.33,-6.15 -8.06,-13.1 -8.51,-20.63 -0.47,-7.51 3.04,-15.68 9.9,-18.82 4.76,-2.18 10.69,-1.58 14.92,1.5 4.24,3.1 6.59,8.57 5.96,13.76l-0.51 -1.33z"/>
   <path class="fil1" d="M3110.79 1004.64c3.12,3.59 9.32,3.32 12.78,0.06 3.46,-3.28 4.31,-8.68 2.94,-13.25 -0.58,-2.01 -2.1,-4.24 -4.18,-3.97 -1.43,0.18 -2.43,1.46 -3.25,2.64 -3.35,4.82 -6.71,9.63 -10.06,14.43l1.76 0.1z"/>
   <path class="fil1" d="M3213.51 805.58c-9.21,-3.11 -12.78,-16.58 -6.32,-23.85 6.69,3.41 13.76,7.17 17.46,13.71 3.7,6.53 2.03,16.63 -5.07,19.07 -4.08,-1.61 -8.15,-3.24 -12.24,-4.85l6.17 -4.09z"/>
   <path class="fil1" d="M2779.41 1422.1c-0.7,2.08 -3.59,2.71 -5.56,1.69 -1.94,-1 -3.09,-3.07 -3.93,-5.09 -0.67,-1.65 -1.21,-3.43 -1.06,-5.21 0.32,-3.52 3.56,-6.39 7.07,-6.71 3.51,-0.32 7.03,1.68 8.93,4.64 0.93,1.44 1.53,3.22 1.11,4.89 -0.42,1.67 -2.13,3.07 -3.8,2.71l-2.77 3.08z"/>
   <path class="fil1" d="M3089.98 867.24c2.04,-0.06 4.07,-0.11 6.11,-0.17 0.32,-3.14 0.54,-6.61 -1.35,-9.13 -1.89,-2.53 -6.76,-2.64 -7.6,0.4l0.38 3.49c1.09,3.63 2.18,7.25 3.28,10.87l-0.82 -5.47z"/>
   <path class="fil1" d="M3132.4 766.93c4.82,-1.32 9.81,-2.71 13.72,-5.83 3.91,-3.14 6.5,-8.49 4.91,-13.24 -0.81,-2.35 -2.56,-4.31 -4.64,-5.65 -6.33,-4.07 -15.86,-1.72 -19.57,4.82 -3.71,6.56 -0.82,15.94 5.93,19.28l-0.35 0.63z"/>
   <path class="fil1" d="M3182.91 751.49c2.25,-2.56 4.5,-5.11 6.75,-7.67 -1.48,-2.15 -3.43,-3.97 -5.67,-5.3 -4.49,2.28 -6.33,8.58 -3.78,12.92l2.69 0.06z"/>
   <path class="fil1" d="M3267.96 1064.32c8.78,-17.59 13.42,-37.25 13.47,-56.91 0.02,-3.18 -0.13,-6.44 -1.42,-9.33 -2.51,-5.61 -8.83,-8.57 -14.93,-9.36 -14.87,-1.93 -30.13,7.07 -37.02,20.42 -6.87,13.35 -5.74,30.08 1.5,43.22 3.99,7.22 10.1,13.75 18.04,15.97 7.94,2.21 17.71,-1.08 20.92,-8.67 -1.18,-2.36 -5.17,-2.43 -6.43,-0.13l5.86 4.79z"/>
   <path class="fil1" d="M2869.39 984.03c9.33,-0.44 18.33,-5.53 23.56,-13.29 -3.28,-2.61 -6.67,-5.3 -10.71,-6.44 -4.04,-1.14 -8.92,-0.33 -11.44,3.02 -3.46,4.57 -1.08,11.07 1.39,16.24 -1.48,-0.52 -2.97,-1.03 -4.47,-1.56l1.68 2.04z"/>
   <path class="fil1" d="M2882.59 917.75c2.29,-1.26 4.74,-2.71 5.76,-5.13 0.99,-2.33 0.42,-4.98 -0.09,-7.47 -1.41,-6.79 -2.18,-13.69 -2.35,-20.63 -7.22,9 -14.44,17.99 -21.65,26.99l-2 1.87c-2.81,1.52 -6,-1.33 -9.18,-1.6 -4.67,-0.39 -7.83,4.63 -9.15,9.11 -9.48,31.9 26.17,3.8 38.67,-3.15z"/>
   <path class="fil1" d="M2862.11 1046.36c6.8,1.9 14.44,0.47 20.1,-3.76 -3.86,-4.31 -7.72,-8.61 -11.59,-12.92 -1.82,-2.03 -3.75,-4.13 -6.35,-4.96 -5.08,-1.64 -10.75,2.96 -11.18,8.26 -0.43,5.32 3.46,10.33 8.38,12.37l0.64 1z"/>
   <path class="fil1" d="M2927.18 981.41c4.65,1 9.44,-2.94 10.26,-7.63 0.8,-4.7 -1.76,-9.53 -5.59,-12.37 -1.68,-1.25 -4.21,-2.13 -5.72,-0.67 -1.04,1 -1.07,2.63 -1.03,4.06 0.21,5.86 0.4,11.72 0.58,17.58l1.49 -0.97z"/>
   <path class="fil1" d="M2978 1046.63c4.82,-1.33 9.8,-2.72 13.72,-5.85 3.9,-3.13 6.5,-8.47 4.89,-13.22 -0.79,-2.35 -2.53,-4.32 -4.63,-5.67 -6.32,-4.07 -15.86,-1.71 -19.57,4.83 -3.7,6.54 -0.82,15.94 5.92,19.26l-0.33 0.64z"/>
   <path class="fil1" d="M3183.3 898.37c0.79,-5.01 -4.17,-8.93 -8.62,-11.33 -4.47,-2.43 -9.71,-5.46 -10.09,-10.52 -0.11,-1.39 0.26,-2.9 1.33,-3.79 2.76,-2.26 6.42,1.2 9.67,2.68 2.6,1.18 5.57,1.04 8.38,1.61 6.67,1.35 12.17,7.2 13.12,13.93 -1.19,3.44 -4.56,6.01 -8.18,6.28 -3.62,0.28 -7.32,-1.78 -9,-5.01l3.39 6.15z"/>
   <path class="fil1" d="M3168.39 773.5c0.8,-5.01 -4.15,-8.92 -8.62,-11.33 -4.47,-2.42 -9.7,-5.44 -10.08,-10.52 -0.1,-1.39 0.26,-2.9 1.35,-3.79 2.76,-2.26 6.4,1.19 9.65,2.68 2.59,1.19 5.58,1.04 8.37,1.61 6.67,1.36 12.17,7.21 13.13,13.93 -1.2,3.44 -4.54,6.03 -8.18,6.29 -3.63,0.27 -7.32,-1.79 -9,-5.03l3.39 6.15z"/>
   <path class="fil1" d="M3231.3 703.87c3.14,-2.69 5.67,-6.11 7.28,-9.91l0.48 -1.92c-0.01,-1.29 -1,-2.39 -2.11,-3.03 -2.72,-1.61 -6.42,-1.11 -8.83,0.9 -2.43,2.02 -3.58,5.35 -3.26,8.49 0.18,1.72 0.83,3.48 2.18,4.57 1.36,1.08 3.52,1.25 4.76,0.04l-1.24 -0.56 0.74 1.41z"/>
   <path class="fil1" d="M2881.07 1188.85c9.33,-0.46 18.35,-5.53 23.56,-13.29 -3.28,-2.62 -6.67,-5.3 -10.69,-6.44 -4.04,-1.14 -8.93,-0.35 -11.46,3 -3.44,4.57 -1.07,11.07 1.4,16.25 -1.49,-0.53 -2.99,-1.04 -4.49,-1.57l1.68 2.06z"/>
   <path class="fil1" d="M2812.04 1134.54c2.04,5.53 11.15,6.28 14.07,1.17 -1.24,-2.79 -2.99,-5.53 -5.67,-7.01 -2.67,-1.49 -6.42,-1.35 -8.42,0.96 -2,2.31 -1.04,6.72 1.94,7.35l-1.93 -2.46z"/>
   <path class="fil1" d="M2946.85 1055.85c2.04,5.53 11.15,6.28 14.07,1.15 -1.24,-2.79 -3,-5.51 -5.67,-7 -2.68,-1.48 -6.42,-1.36 -8.42,0.94 -2.01,2.31 -1.04,6.72 1.94,7.36l-1.93 -2.46z"/>
   <path class="fil1" d="M2838.58 1167.93c-3.81,0.28 -4.92,5.78 -3.04,9.11 1.86,3.35 5.35,5.46 7.56,8.58 2.28,3.21 3.04,7.44 2.06,11.25 -0.57,2.22 -1.96,4.47 -4.18,5.04 -1.49,0.39 -3.04,-0.06 -4.52,-0.53 -7.17,-2.33 -14.31,-5.67 -19.18,-11.42 -4.87,-5.75 -6.94,-14.37 -3.35,-21 2.52,-4.61 7.61,-7.68 12.85,-7.74 5.25,-0.06 10.42,2.91 13.03,7.46l-1.22 -0.76z"/>
   <path class="fil1" d="M3154.76 855.28c-3.82,0.28 -4.93,5.78 -3.06,9.11 1.86,3.33 5.35,5.47 7.56,8.58 2.26,3.22 3.04,7.44 2.06,11.25 -0.58,2.22 -1.96,4.48 -4.18,5.06 -1.49,0.37 -3.06,-0.07 -4.52,-0.54 -7.17,-2.33 -14.3,-5.67 -19.18,-11.42 -4.88,-5.74 -6.94,-14.37 -3.35,-21 2.5,-4.61 7.61,-7.68 12.85,-7.74 5.25,-0.06 10.41,2.91 13.01,7.46l-1.19 -0.76z"/>
   <path class="fil1" d="M3194.62 884.71c-3.8,0.28 -4.91,5.78 -3.06,9.11 1.88,3.35 5.36,5.46 7.56,8.59 2.28,3.22 3.06,7.44 2.07,11.25 -0.58,2.22 -1.96,4.47 -4.18,5.04 -1.48,0.39 -3.06,-0.06 -4.51,-0.53 -7.17,-2.33 -14.31,-5.67 -19.18,-11.42 -4.87,-5.74 -6.94,-14.38 -3.35,-21 2.5,-4.61 7.61,-7.68 12.85,-7.74 5.25,-0.06 10.42,2.9 13.03,7.46l-1.22 -0.76z"/>
   <path class="fil1" d="M3137.58 935.43c-3.81,0.28 -4.92,5.78 -3.04,9.12 1.86,3.33 5.33,5.46 7.54,8.59 2.28,3.2 3.06,7.43 2.06,11.25 -0.57,2.21 -1.96,4.47 -4.17,5.04 -1.49,0.37 -3.06,-0.06 -4.52,-0.54 -7.17,-2.33 -14.31,-5.67 -19.18,-11.4 -4.87,-5.75 -6.94,-14.39 -3.35,-21.02 2.5,-4.6 7.61,-7.67 12.85,-7.74 5.25,-0.06 10.42,2.91 13.02,7.46l-1.21 -0.76z"/>
   <path class="fil1" d="M2872.04 471.33c-3.8,0.29 -4.92,5.79 -3.06,9.13 1.87,3.33 5.36,5.47 7.56,8.58 2.28,3.21 3.06,7.44 2.07,11.25 -0.58,2.22 -1.96,4.47 -4.18,5.06 -1.48,0.38 -3.06,-0.07 -4.52,-0.54 -7.17,-2.33 -14.3,-5.67 -19.18,-11.42 -4.88,-5.75 -6.96,-14.37 -3.35,-21 2.5,-4.61 7.61,-7.68 12.85,-7.74 5.24,-0.06 10.41,2.9 13.03,7.46l-1.22 -0.78z"/>
   <path class="fil1" d="M2839.9 1088.65c1.6,-1.28 3.19,-2.54 4.79,-3.81 -1.63,-2.69 -3.53,-5.61 -6.54,-6.5 -3.03,-0.87 -7,1.94 -5.85,4.88l2.39 2.57c3.04,2.25 6.1,4.5 9.14,6.75l-3.93 -3.89z"/>
   <path class="fil1" d="M2957.68 704.44c4.83,-1.32 9.81,-2.72 13.72,-5.85 3.92,-3.13 6.5,-8.47 4.89,-13.22 -0.79,-2.35 -2.53,-4.32 -4.63,-5.67 -6.32,-4.07 -15.86,-1.71 -19.57,4.83 -3.71,6.54 -0.82,15.93 5.93,19.26l-0.35 0.64z"/>
   <path class="fil1" d="M2990.47 1123.07c-4.02,5.93 -14.94,4.35 -17.1,-2.5 1.21,-3.78 3.25,-7.28 5.9,-10.22 3.93,1.96 7.08,5.42 8.65,9.52l2.54 3.21z"/>
   <path class="fil2" d="M3012.74 680.04c-1.02,0 -2.03,-0.15 -2.99,-0.43 -4,-1.22 -7.13,-4.32 -9.9,-7.46 -3.11,-3.51 -6.15,-7.58 -6.29,-12.26 -0.14,-4.26 3.29,-8.76 7.35,-8.76 0.42,0 0.83,0.04 1.26,0.15 4.63,1.09 6.22,7.01 10.19,9.61 3.97,2.6 10.21,1.85 12.56,5.97 1.43,2.5 0.56,5.81 -1.3,7.98 -1.86,2.18 -4.52,3.52 -7.1,4.78l0.54 -0.52c-1.32,0.61 -2.82,0.93 -4.32,0.93z"/>
   <path class="fil1" d="M3077.29 930.68c16.36,11.78 38.97,14.22 57.47,6.22 1.94,-20 -3.5,-41.88 -18.99,-54.68 -15.47,-12.79 -41.98,-12.35 -53.44,4.15 -11.44,16.49 2.78,44.83 22.63,41.77l-7.67 2.54z"/>
   <path class="fil1" d="M3026.43 1152.37c-2.36,-1.44 -2.63,-5.04 -1.07,-7.33 1.56,-2.28 4.38,-3.39 7.11,-3.74 1.62,-0.21 3.3,-0.18 4.8,0.44 3.47,1.42 5.03,6.15 3.21,9.44 -1.82,3.28 -6.5,4.51 -9.78,2.69 -3.3,-1.82 -4.75,-6.26 -3.33,-9.75l-0.94 8.23z"/>
   <path class="fil1" d="M3050.01 1044.42c-0.92,-5 -6.87,-7.06 -11.89,-7.85 -5.03,-0.81 -10.96,-1.93 -13,-6.58 -0.56,-1.28 -0.71,-2.83 0.02,-4.02 1.86,-3.06 6.44,-1 10,-0.68 2.85,0.26 5.61,-0.85 8.44,-1.25 6.74,-0.93 13.86,2.76 16.98,8.8 0.02,3.64 -2.29,7.18 -5.62,8.64 -3.35,1.46 -7.52,0.74 -10.17,-1.75l5.24 4.68z"/>
   <path class="fil1" d="M3023.01 884.82c1.14,-1.59 2.26,-3.19 3.4,-4.78 -1.53,-2.83 -5.12,-4.5 -8.18,-3.46 -3.04,1.03 -4.89,4.89 -3.47,7.78 1.43,2.89 6.01,3.63 8.04,1.14l0.21 -0.68z"/>
   <path class="fil1" d="M3003.5 994.67c-1.81,1.24 -4.5,0 -5.46,-1.99 -0.96,-1.97 -0.65,-4.32 -0.09,-6.43 0.46,-1.74 1.08,-3.47 2.28,-4.81 2.36,-2.63 6.68,-2.98 9.68,-1.14 3,1.85 4.61,5.54 4.36,9.07 -0.13,1.71 -0.71,3.49 -2.04,4.57 -1.33,1.08 -3.53,1.2 -4.67,-0.1l-4.06 0.82z"/>
   <path class="fil1" d="M2847.79 930.52c4.65,19.61 20.17,36.25 39.39,42.3 14.56,-13.85 24.75,-33.96 21.4,-53.76 -3.33,-19.8 -23.67,-36.82 -43.13,-31.83 -19.46,4.98 -27.24,35.72 -10.21,46.39l-7.46 -3.09z"/>
   <path class="fil1" d="M2870.43 1086.65c5.75,-1.25 4.58,-10.97 -0.82,-13.29 -5.42,-2.31 -11.56,0.21 -16.89,2.69 2.37,7.75 9.87,13.67 17.97,14.17l-0.26 -3.57z"/>
   <path class="fil1" d="M3082.14 1117.25c1.13,-1.58 2.26,-3.18 3.39,-4.78 -1.53,-2.82 -5.13,-4.48 -8.17,-3.46 -3.04,1.04 -4.89,4.9 -3.47,7.78 1.42,2.89 6,3.64 8.03,1.14l0.22 -0.68z"/>
   <path class="fil1" d="M3006.67 1041.7c17.02,-12.85 31.02,-29.67 40.57,-48.72 1.54,-3.07 3,-6.3 3.14,-9.74 0.28,-6.65 -4.43,-12.58 -9.96,-16.29 -13.51,-9.06 -32.65,-7.71 -45.78,1.92 -13.11,9.63 -20.1,26.4 -19.43,42.67 0.37,8.93 3.15,18.21 9.79,24.21 6.62,5.99 17.68,7.52 24.48,1.7 -0.01,-2.85 -3.85,-4.85 -6.19,-3.22l3.37 7.49z"/>
   <path class="fil1" d="M2810.97 749.53c20.14,-0.36 39.72,-11.96 49.74,-29.44 -10.42,-17.18 -27.89,-31.44 -47.94,-32.41 -20.07,-0.97 -41.03,15.26 -40.32,35.35 0.7,20.07 29.08,34.24 43.14,19.89l-4.61 6.62z"/>
   <path class="fil1" d="M3189.01 709.86c9.35,-0.46 18.35,-5.53 23.57,-13.29 -3.28,-2.61 -6.67,-5.31 -10.71,-6.44 -4.03,-1.14 -8.92,-0.35 -11.44,3 -3.46,4.58 -1.08,11.07 1.4,16.25 -1.5,-0.53 -2.98,-1.04 -4.48,-1.56l1.67 2.04z"/>
   <path class="fil1" d="M3202.24 643.58c2.29,-1.28 4.74,-2.71 5.76,-5.12 0.98,-2.33 0.41,-5 -0.1,-7.49 -1.4,-6.78 -2.18,-13.69 -2.35,-20.61 -7.22,9 -14.44,17.98 -21.67,26.98l-1.97 1.88c-2.82,1.5 -6.01,-1.33 -9.19,-1.61 -4.65,-0.37 -7.82,4.64 -9.15,9.11 -9.5,31.92 26.18,3.8 38.67,-3.14z"/>
   <path class="fil1" d="M3068.15 1030.32c2.25,-2.51 4.49,-5.04 6.75,-7.57 -5.35,-4.14 -13.33,-5.75 -18.81,-1.78 -5.46,3.96 -5.19,14.28 1.24,16.35 3.97,1.28 10.72,1.67 9.39,5.63l1.43 -12.63z"/>
   <path class="fil1" d="M3079.36 739.7c-1.46,2.43 -3.69,4.39 -6.29,5.54 -1.82,-7.07 2.81,-14.06 7.47,-19.65 2.61,-3.11 6.35,-6.47 10.2,-5.15 2.68,0.9 4.14,3.74 6.3,5.54 4.37,3.61 12.47,4.07 13.07,9.71 0.35,3.18 -2.5,6 -5.61,6.79 -3.1,0.79 -6.36,0.07 -9.49,-0.65 -6.8,-1.58 -13.63,-3.15 -20.43,-4.74l4.78 2.61z"/>
   <path class="fil1" d="M2986.5 679.75c5.75,-1.25 4.58,-10.96 -0.83,-13.28 -5.4,-2.32 -11.54,0.2 -16.89,2.7 2.39,7.75 9.89,13.67 17.99,14.15l-0.26 -3.57z"/>
   <path class="fil2" d="M3098.96 624.65c-2.6,0 -4.76,-2.61 -4.89,-5.24 -0.11,-2.76 1.47,-5.35 3.47,-7.26 1.15,-1.13 2.53,-2.11 4.1,-2.51 0.47,-0.13 0.96,-0.18 1.43,-0.18 3.21,0 6.35,2.58 6.79,5.82 0.52,3.71 -2.5,7.5 -6.21,8.01 -0.3,0.04 -0.61,0.07 -0.91,0.07 -2.07,0 -4.1,-0.93 -5.57,-2.4l2.15 3.68c-0.11,0.01 -0.24,0.01 -0.36,0.01z"/>
   <path class="fil1" d="M3120 655.56c2.04,5.53 11.14,6.28 14.06,1.17 -1.24,-2.79 -2.99,-5.52 -5.65,-7 -2.68,-1.49 -6.42,-1.36 -8.43,0.94 -2,2.3 -1.03,6.72 1.96,7.35l-1.93 -2.46z"/>
   <path class="fil1" d="M3181.75 772.2c6.81,1.9 14.44,0.47 20.1,-3.78 -3.86,-4.31 -7.72,-8.6 -11.58,-12.9 -1.82,-2.03 -3.76,-4.14 -6.35,-4.97 -5.08,-1.63 -10.75,2.97 -11.18,8.28 -0.43,5.31 3.46,10.33 8.37,12.38l0.64 1z"/>
   <path class="fil2" d="M3019.58 613.99l-2.7 -0.07 0.74 -0.13c-0.18,0.02 -0.35,0.02 -0.53,0.02 -3.89,0 -7.71,-2.35 -9.43,-5.85 -1.79,-3.67 -1.18,-8.38 1.48,-11.46 1.14,-1.32 3,-2.28 4.67,-2.28 1,0 1.93,0.35 2.59,1.15l1.1 3.28c0.7,5.11 1.37,10.22 2.07,15.33z"/>
   <path class="fil2" d="M2978.98 543.29l-3.22 -5.83c0.75,1.3 1.85,2.4 3.11,3.21 0.21,0.85 0.25,1.72 0.11,2.62zm4.99 -1.11c-1.79,0 -3.57,-0.54 -5.1,-1.51 -0.89,-3.76 -4.86,-6.74 -8.52,-8.71 -4.47,-2.43 -9.71,-5.46 -10.08,-10.52 -0.11,-1.39 0.26,-2.9 1.33,-3.79 0.65,-0.53 1.35,-0.75 2.08,-0.75 2.37,0 5.1,2.29 7.58,3.43 2.6,1.18 5.57,1.04 8.37,1.61 6.67,1.36 12.17,7.2 13.13,13.93 -1.19,3.44 -4.56,6.02 -8.18,6.3 -0.21,0.01 -0.41,0.01 -0.62,0.01zm-8.21 -4.72c-0.07,-0.11 -0.13,-0.21 -0.18,-0.32l0.18 0.32z"/>
   <path class="fil2" d="M3215.11 939.64l-3.21 -5.82c0.75,1.31 1.83,2.41 3.11,3.2 0.2,0.85 0.24,1.72 0.1,2.63zm4.97 -1.11c-1.79,0 -3.56,-0.54 -5.07,-1.51 -0.89,-3.76 -4.86,-6.74 -8.53,-8.71 -4.17,-2.26 -8.98,-5.04 -9.93,-9.52 0.15,-0.03 0.3,-0.06 0.46,-0.09 2.22,-0.57 3.6,-2.82 4.18,-5.04 0.02,-0.06 0.03,-0.11 0.04,-0.17 2,0.61 4.17,2.28 6.17,3.19 2.6,1.19 5.58,1.04 8.37,1.61 6.67,1.36 12.18,7.2 13.13,13.94 -1.18,3.43 -4.54,6 -8.17,6.28 -0.22,0.01 -0.43,0.01 -0.65,0.01z"/>
   <path class="fil1" d="M3196.56 918.79c-0.07,-0.32 -0.13,-0.65 -0.15,-1 -0.11,-1.39 0.26,-2.9 1.33,-3.79 0.65,-0.53 1.36,-0.74 2.08,-0.74 0.46,0 0.93,0.07 1.42,0.22 -0.02,0.06 -0.03,0.11 -0.04,0.17 -0.58,2.22 -1.96,4.47 -4.18,5.04 -0.15,0.04 -0.3,0.07 -0.46,0.09z"/>
   <path class="fil2" d="M3211.9 933.82c-0.07,-0.11 -0.13,-0.22 -0.18,-0.33l0.18 0.33z"/>
   <path class="fil2" d="M3021.51 520.89c-2.36,0 -4.82,-1.87 -5.11,-4.31 -0.37,-3.18 2.61,-6.19 5.79,-6.19 0.03,0 0.04,0 0.07,0 3.21,0.04 6.06,2.79 6.57,5.97 -1.61,1.13 -3.19,2.25 -4.79,3.39l-0.43 0.57c-0.65,0.39 -1.37,0.57 -2.1,0.57z"/>
   <path class="fil1" d="M3146.54 688.93c-3.82,0.29 -4.92,5.79 -3.04,9.12 1.86,3.33 5.33,5.47 7.54,8.59 2.28,3.22 3.06,7.44 2.06,11.25 -0.57,2.22 -1.96,4.47 -4.17,5.04 -1.5,0.4 -3.06,-0.06 -4.53,-0.53 -7.15,-2.33 -14.29,-5.67 -19.17,-11.42 -4.88,-5.74 -6.94,-14.39 -3.35,-21 2.5,-4.6 7.61,-7.68 12.85,-7.74 5.25,-0.06 10.41,2.9 13.01,7.46l-1.21 -0.78z"/>
   <path class="fil1" d="M3246.82 707.22c4.65,1 9.44,-2.93 10.26,-7.63 0.8,-4.69 -1.76,-9.53 -5.58,-12.36 -1.68,-1.26 -4.22,-2.13 -5.74,-0.68 -1.03,1.02 -1.06,2.63 -1,4.07 0.19,5.86 0.37,11.72 0.58,17.57l1.47 -0.97z"/>
   <path class="fil1" d="M2989.65 762.5c-9.2,-3.11 -12.78,-16.57 -6.32,-23.85 6.7,3.42 13.76,7.17 17.46,13.71 3.69,6.54 2.03,16.63 -5.08,19.07 -4.07,-1.63 -8.15,-3.24 -12.22,-4.85l6.17 -4.08z"/>
   <path class="fil2" d="M3151.78 613.56c-3.04,-2.25 -6.08,-4.5 -9.14,-6.75l-2.37 -2.57c-1.02,-2.56 1.89,-5.03 4.65,-5.03 0.41,0 0.8,0.04 1.18,0.17 3.03,0.88 4.92,3.8 6.56,6.49 -1.59,1.26 -3.2,2.54 -4.8,3.79l3.93 3.9z"/>
   <path class="fil1" d="M2945.59 1108.67c4.83,-1.33 9.81,-2.72 13.72,-5.85 3.92,-3.12 6.5,-8.48 4.89,-13.22 -0.8,-2.35 -2.53,-4.32 -4.63,-5.67 -6.32,-4.07 -15.86,-1.71 -19.57,4.83 -3.71,6.54 -0.82,15.93 5.92,19.26l-0.33 0.64z"/>
   <path class="fil1" d="M2864.76 822.6c2.25,-2.56 4.5,-5.11 6.75,-7.67 -1.48,-2.15 -3.43,-3.97 -5.68,-5.31 -4.47,2.28 -6.32,8.58 -3.78,12.92l2.71 0.06z"/>
   <path class="fil1" d="M2783.65 1317.22c-2.75,0.26 -5.12,-2.47 -5.25,-5.22 -0.13,-2.76 1.47,-5.35 3.46,-7.26 1.17,-1.13 2.54,-2.11 4.1,-2.51 3.64,-0.94 7.72,1.92 8.24,5.64 0.5,3.72 -2.5,7.5 -6.22,8.01 -3.71,0.53 -7.56,-2.17 -8.5,-5.8l4.18 7.15z"/>
   <path class="fil1" d="M2947.25 805.18c2.24,-2.56 4.49,-5.11 6.74,-7.67 -1.47,-2.15 -3.43,-3.97 -5.67,-5.31 -4.49,2.28 -6.33,8.58 -3.78,12.92l2.71 0.06z"/>
   <path class="fil1" d="M3163.39 982.22c3.72,0.85 6.41,-4.08 5.6,-7.82 -0.8,-3.75 -3.5,-6.81 -4.69,-10.43 -1.24,-3.75 -0.74,-8.01 1.33,-11.36 1.21,-1.94 3.2,-3.69 5.47,-3.59 1.54,0.07 2.91,0.96 4.17,1.85 6.15,4.33 12,9.63 14.97,16.54 2.97,6.93 2.41,15.79 -2.99,21.07 -3.75,3.65 -9.53,5.1 -14.56,3.6 -5.03,-1.47 -9.1,-5.82 -10.25,-10.94l0.94 1.1z"/>
   <path class="fil1" d="M2963.01 1014.82c-2.83,0.44 -5.76,0.94 -8.18,2.47 -2.43,1.56 -4.24,4.44 -3.61,7.25 1.03,4.63 7.22,5.75 10.26,9.4 3.03,3.65 2.82,9.78 6.9,12.2 4.06,2.37 9.53,-1.17 10.78,-5.71 1.24,-4.52 -0.47,-9.31 -2.4,-13.57 -1.74,-3.82 -3.81,-7.69 -7.29,-10.03 -3.47,-2.35 -8.71,-2.56 -11.47,0.58l5.01 -2.6z"/>
   <path class="fil1" d="M3107.83 849.31c-10.06,14.15 -16.79,30.64 -19.51,47.78 -0.44,2.76 -0.78,5.64 -0.04,8.33 1.42,5.24 6.54,8.68 11.74,10.19 12.71,3.72 27.25,-2.06 35.06,-12.74 7.82,-10.69 9.11,-25.46 4.6,-37.9 -2.48,-6.83 -6.93,-13.36 -13.54,-16.37 -6.62,-3.02 -15.59,-1.49 -19.43,4.69 0.71,2.21 4.17,2.82 5.6,0.99l-4.46 -4.97z"/>
   <path class="fil1" d="M3182.4 950.81c2.25,1.36 4.72,2.76 7.32,2.46 2.52,-0.29 4.54,-2.12 6.44,-3.8 5.19,-4.59 10.79,-8.71 16.72,-12.29 -11.4,-1.8 -22.79,-3.59 -34.18,-5.38l-2.61 -0.78c-2.72,-1.71 -1.83,-5.87 -3.19,-8.78 -1.97,-4.24 -7.9,-4.48 -12.44,-3.42 -32.42,7.64 9.71,24.61 21.94,31.99z"/>
   <path class="fil1" d="M3111.93 850.58c1.67,-1.03 3.33,-2.03 5.02,-3.04 -0.3,-3.21 -2.93,-6.15 -6.13,-6.42 -3.21,-0.26 -6.43,2.54 -6.28,5.75 0.15,3.22 4.07,5.72 6.92,4.24l0.47 -0.53z"/>
   <path class="fil1" d="M3193.3 896.99c1.44,4.54 7.25,6.75 11.72,5.11 4.47,-1.63 7.39,-6.25 7.96,-10.99 0.25,-2.08 -0.26,-4.7 -2.28,-5.3 -1.38,-0.4 -2.8,0.39 -4.03,1.14 -4.99,3.08 -9.96,6.17 -14.96,9.25l1.58 0.79z"/>
   <path class="fil1" d="M3147.24 853.93c5.03,7.86 13.91,13.15 23.24,13.82 0.65,-4.14 1.29,-8.42 0.26,-12.47 -1.02,-4.08 -4.13,-7.93 -8.29,-8.46 -5.68,-0.72 -10.14,4.59 -13.41,9.29 -0.29,-1.54 -0.58,-3.09 -0.87,-4.65l-0.93 2.47z"/>
   <path class="fil1" d="M3134.5 813.52c-2.85,-0.06 -5.65,-1.02 -7.93,-2.71 5.22,-5.08 13.58,-4.56 20.76,-3.28 4,0.7 8.76,2.29 9.54,6.28 0.54,2.76 -1.21,5.43 -1.68,8.22 -0.94,5.6 2.67,12.83 -1.92,16.17 -2.59,1.87 -6.46,0.82 -8.68,-1.49 -2.24,-2.3 -3.22,-5.48 -4.15,-8.56 -2.02,-6.69 -4.04,-13.39 -6.06,-20.08l0.11 5.44z"/>
   <path class="fil1" d="M3157.24 918.5c1.72,6.85 6.78,12.76 13.25,15.56 1.82,-5.48 3.64,-10.97 5.44,-16.46 0.86,-2.58 1.72,-5.32 1.15,-7.99 -1.11,-5.2 -7.92,-7.85 -12.74,-5.58 -4.82,2.28 -7.25,8.14 -6.57,13.43l-0.54 1.04z"/>
   <path class="fil1" d="M3211.94 846.54c-2.14,-3.17 -7.46,-1.39 -9.43,1.9 -1.97,3.28 -2.08,7.35 -3.69,10.82 -1.65,3.57 -4.93,6.33 -8.72,7.38 -2.22,0.61 -4.86,0.53 -6.46,-1.11 -1.07,-1.09 -1.47,-2.68 -1.78,-4.18 -1.54,-7.39 -2.21,-15.22 0.36,-22.32 2.56,-7.08 9.02,-13.18 16.56,-13.35 5.24,-0.11 10.43,2.78 13.1,7.31 2.65,4.51 2.67,10.47 0,15l0.07 -1.44z"/>
   <path class="fil1" d="M2975.37 916.86c3.54,3.53 7.24,7.17 11.89,9 4.65,1.83 10.58,1.43 13.9,-2.33 1.65,-1.86 2.48,-4.33 2.61,-6.82 0.39,-7.51 -6.4,-14.61 -13.92,-14.58 -7.53,0.04 -14.24,7.22 -13.78,14.72l-0.71 0.02z"/>
   <path class="fil1" d="M3043.04 1005.81c5.04,7.89 13.93,13.17 23.25,13.83 0.64,-4.14 1.29,-8.42 0.26,-12.49 -1.02,-4.07 -4.13,-7.92 -8.29,-8.44 -5.7,-0.72 -10.14,4.57 -13.41,9.29 -0.29,-1.56 -0.58,-3.11 -0.87,-4.65l-0.94 2.46z"/>
   <path class="fil1" d="M3136.85 795.86c1.15,-4.94 -3.52,-9.19 -7.79,-11.92 -4.31,-2.74 -9.29,-6.13 -9.32,-11.21 -0.02,-1.39 0.46,-2.87 1.59,-3.67 2.92,-2.07 6.31,1.63 9.46,3.35 2.5,1.36 5.48,1.43 8.24,2.19 6.54,1.82 11.62,8.04 12.09,14.82 -1.43,3.35 -4.96,5.68 -8.59,5.69 -3.64,0.02 -7.18,-2.31 -8.63,-5.64l2.94 6.37z"/>
   <path class="fil1" d="M2827.09 1035.11c0.74,-1.82 1.47,-3.64 2.2,-5.44 -2.14,-2.39 -6.03,-3.18 -8.74,-1.46 -2.74,1.71 -3.63,5.89 -1.58,8.37 2.06,2.47 6.68,2.13 8.08,-0.78l0.04 -0.7z"/>
   <path class="fil1" d="M3109.5 920.25c1.9,0.76 3.79,1.51 5.68,2.28 1.53,-2.75 3.11,-5.85 2.37,-8.92 -0.74,-3.06 -5.15,-5.08 -7.13,-2.64l-1.04 3.35c-0.44,3.76 -0.87,7.53 -1.3,11.29l1.42 -5.36z"/>
   <path class="fil3" d="M2040.17 2383.41c-26.24,-20.86 -57.32,-35.57 -90.1,-42.63 -5.28,-1.14 -10.76,-2.08 -16.06,-0.94 -10.22,2.18 -17.4,11.68 -20.87,21.56 -8.5,24.11 1.1,52.74 20.89,68.93 19.8,16.18 48.09,20.24 72.58,12.81 13.44,-4.06 26.47,-11.96 32.98,-24.39 6.52,-12.46 4.49,-29.89 -7.01,-37.94 -4.35,1.14 -5.89,7.75 -2.49,10.7l10.07 -8.08z"/>
   <path class="fil3" d="M1938.22 2400.33c-3.28,-13.33 -13.96,-24.61 -27.1,-28.63 -9.85,9.52 -16.69,23.29 -14.3,36.78 2.39,13.48 16.35,24.97 29.58,21.46 13.25,-3.5 18.37,-24.5 6.72,-31.68l5.1 2.07z"/>
   <path class="fil3" d="M1828.32 2345.18c2.3,-5.94 1.64,-12.97 -1.75,-18.37 -2.53,1.32 -5.14,2.68 -6.97,4.89 -1.83,2.19 -2.69,5.46 -1.3,7.96 1.89,3.42 6.59,3.74 10.5,3.64l-2.21 2.36 1.74 -0.47z"/>
   <path class="fil3" d="M1852.68 2351.83c1.83,0.61 3.47,1.81 4.63,3.36 -4.42,2.28 -9.76,0.25 -14.19,-2 -2.46,-1.26 -5.25,-3.24 -4.97,-6 0.21,-1.92 1.87,-3.31 2.74,-5.03 1.74,-3.46 0.83,-8.92 4.48,-10.17 2.07,-0.71 4.38,0.76 5.36,2.71 1,1.94 1.02,4.22 1,6.4 -0.03,4.78 -0.04,9.53 -0.07,14.31l1.03 -3.58z"/>
   <path class="fil3" d="M1485 2366.74c0.59,1.78 -0.86,3.78 -2.68,4.28 -1.82,0.5 -3.76,-0.18 -5.35,-1.21l-2.3 -2.35c-1.18,-2.28 0.11,-5.42 2.5,-6.32 2.41,-0.89 5.38,0.53 6.28,2.91 0.9,2.41 -0.31,5.36 -2.57,6.54l4.11 -3.86z"/>
   <path class="fil3" d="M1775.35 2373.13c4.01,0.25 7,-5.21 4.63,-8.46 -2.09,0 -4.26,0.35 -5.94,1.58 -1.65,1.26 -2.61,3.62 -1.74,5.51 0.87,1.91 3.9,2.53 5.12,0.82l-2.07 0.54z"/>
   <path class="fil3" d="M1865.14 2366.99c3.07,-3.7 4.29,-8.88 3.21,-13.56 -3.74,1.19 -7.49,2.41 -11.24,3.62 -1.78,0.57 -3.63,1.2 -4.86,2.59 -2.43,2.7 -1.14,7.51 2.06,9.26 3.18,1.74 7.39,0.7 10.03,-1.8l0.81 -0.12z"/>
   <path class="fil3" d="M1803.5 2365.83c-0.88,2.46 2.25,4.67 4.85,4.43 2.58,-0.24 4.87,-1.8 7.43,-2.33 2.64,-0.53 5.49,0.17 7.58,1.85 1.22,0.97 2.25,2.46 1.99,4l-1.58 2.67c-3.44,3.81 -7.5,7.33 -12.43,8.79 -4.93,1.43 -10.89,0.33 -14.01,-3.75 -2.18,-2.83 -2.68,-6.88 -1.26,-10.14 1.43,-3.29 4.71,-5.69 8.26,-6.06l-0.82 0.54z"/>
   <path class="fil3" d="M1842.71 2308.43c1.91,-2.63 0.79,-6.7 -1.91,-8.5 -2.69,-1.81 -6.42,-1.56 -9.25,0.04 -1.25,0.7 -2.5,2.04 -2,3.39l2.24 1.75c3.71,1.5 7.4,3.02 11.11,4.52l-0.19 -1.19z"/>
   <path class="fil3" d="M1694.8 2270.21c-0.67,6.6 -9.08,11 -14.89,7.81 1.25,-4.97 2.68,-10.24 6.47,-13.68 3.78,-3.44 10.75,-3.86 13.44,0.5 -0.46,2.94 -0.92,5.9 -1.37,8.86l-3.65 -3.49z"/>
   <path class="fil3" d="M2170.39 2465.71c1.49,0.15 2.33,1.99 1.97,3.44 -0.37,1.44 -1.58,2.52 -2.8,3.37l-3.31 1.49c-2.39,0.32 -4.79,-1.39 -5.53,-3.68 -0.75,-2.29 0.06,-4.93 1.74,-6.64l3.08 -1.47 2.37 2.11 2.47 1.37z"/>
   <path class="fil3" d="M1754.47 2343.04c-0.35,-1.36 -0.7,-2.71 -1.03,-4.06 -2.14,0.28 -4.47,0.64 -5.86,2.29 -1.39,1.63 -0.74,4.89 1.42,4.98l2.25 -0.79c2.25,-1.26 4.5,-2.54 6.75,-3.82l-3.53 1.39z"/>
   <path class="fil3" d="M1681.37 2329.99c-1.61,-3.02 -3.29,-6.11 -5.97,-8.24 -2.67,-2.14 -6.61,-3.04 -9.53,-1.26 -1.44,0.89 -2.49,2.33 -3.07,3.93 -1.75,4.82 1.26,10.81 6.18,12.29 4.9,1.47 10.71,-1.86 11.9,-6.85l0.49 0.13z"/>
   <path class="fil3" d="M1663.46 2298.72c-2.04,-1.11 -4.07,-2.21 -6.11,-3.32 -1.21,1.3 -2.13,2.87 -2.67,4.57 2.18,2.64 6.65,2.9 9.15,0.56l-0.37 -1.8z"/>
   <path class="fil3" d="M1858.64 2194.89c-13.03,-3.17 -26.79,-3.28 -39.89,-0.35 -2.11,0.47 -4.26,1.06 -5.98,2.36 -3.35,2.51 -4.36,7.17 -3.97,11.33 0.97,10.2 9.26,18.97 19.17,21.53 9.92,2.56 20.87,-0.72 28.53,-7.53 4.19,-3.74 7.61,-8.79 7.87,-14.4 0.28,-5.63 -3.37,-11.61 -8.91,-12.61 -1.39,1.14 -0.83,3.8 0.9,4.3l2.29 -4.64z"/>
   <path class="fil3" d="M1865.48 2472.08c-1.72,-6.14 -6.46,-11.36 -12.4,-13.67 -1.25,2.58 -2.52,5.24 -2.67,8.1 -0.15,2.86 1.13,5.98 3.72,7.17 3.57,1.6 7.53,-0.97 10.6,-3.39l-0.36 3.21 1.11 -1.42z"/>
   <path class="fil3" d="M1819.41 2473.31c-1.19,-1.32 -2.53,-2.74 -4.28,-3.04 -1.71,-0.32 -3.39,0.47 -4.96,1.2 -4.3,1.94 -8.78,3.51 -13.36,4.65 7.07,3.46 14.14,6.91 21.21,10.35l1.56 1.03c1.43,1.64 0.01,4.19 0.32,6.36 0.44,3.14 4.26,4.5 7.44,4.71 22.65,1.49 -1.43,-17.98 -7.93,-25.25z"/>
   <path class="fil3" d="M1908.03 2467.49c0.24,-4.79 -1.88,-9.67 -5.54,-12.78 -2.28,3.22 -4.56,6.44 -6.83,9.65 -1.07,1.5 -2.18,3.11 -2.35,4.97 -0.32,3.61 3.6,6.69 7.2,6.18 3.59,-0.53 6.36,-3.86 6.96,-7.44l0.57 -0.58z"/>
   <path class="fil3" d="M2133.86 2535.04c-1.29,0.33 -2.58,0.67 -3.87,0.98 -0.46,2.14 0.68,4.6 2.72,5.41 2.03,0.8 4.69,-0.39 5.24,-2.5 0.54,-2.13 -1.52,-4.54 -3.67,-4.14l-0.42 0.25z"/>
   <path class="fil3" d="M1855 2434.04c-0.04,-3.24 -3.39,-5.85 -6.63,-5.67 -3.25,0.18 -6.07,2.61 -7.39,5.57 -0.57,1.32 -0.78,3.14 0.43,3.93l2.85 0.04c3.87,-1.01 7.74,-2.03 11.61,-3.03l-0.87 -0.85z"/>
   <path class="fil3" d="M1890.69 2390.41c-1.61,-3.02 -3.29,-6.13 -5.96,-8.25 -2.68,-2.13 -6.63,-3.04 -9.54,-1.26 -1.44,0.9 -2.48,2.35 -3.07,3.93 -1.75,4.83 1.26,10.82 6.18,12.29 4.91,1.49 10.72,-1.86 11.92,-6.85l0.47 0.14z"/>
   <path class="fil3" d="M1761.08 2276.28c-3.46,0.22 -5.31,4.11 -6.24,7.44 -0.93,3.33 -2.17,7.28 -5.47,8.29l-2.72 -0.32c-1.91,-1.49 -0.17,-4.44 0.32,-6.82 0.4,-1.91 -0.14,-3.87 -0.18,-5.82 -0.11,-4.64 2.93,-9.18 7.26,-10.83 2.47,0.28 4.69,2.11 5.43,4.48 0.72,2.37 -0.1,5.15 -1.98,6.75l3.58 -3.18z"/>
   <path class="fil3" d="M1680.29 2305.07c-3.44,0.22 -5.29,4.11 -6.24,7.44 -0.93,3.33 -2.15,7.26 -5.46,8.29l-2.72 -0.32c-1.92,-1.5 -0.18,-4.44 0.32,-6.83 0.4,-1.9 -0.14,-3.87 -0.19,-5.82 -0.11,-4.63 2.96,-9.17 7.29,-10.82 2.46,0.26 4.68,2.11 5.4,4.48 0.72,2.37 -0.08,5.14 -1.97,6.75l3.57 -3.18z"/>
   <path class="fil3" d="M1624.48 2273.74c-2.26,-1.68 -4.92,-2.83 -7.69,-3.33l-1.35 -0.03 -1.7 1.86c-0.65,2.06 0.24,4.43 1.94,5.74 1.71,1.31 4.1,1.57 6.13,0.87l2.71 -2.14 -0.68 -3.17 -0.18 0.9 0.82 -0.71z"/>
   <path class="fil3" d="M1999.91 2433.36c-1.7,-6.14 -6.46,-11.36 -12.4,-13.67 -1.25,2.57 -2.51,5.24 -2.67,8.09 -0.15,2.86 1.13,5.99 3.72,7.17 3.57,1.59 7.53,-0.97 10.6,-3.39l-0.36 3.21 1.11 -1.42z"/>
   <path class="fil3" d="M1974.24 2487.46c3.36,-2.18 2.48,-8.36 -1.35,-9.53 -1.68,1.25 -3.22,2.82 -3.8,4.83 -0.58,2 0.06,4.46 1.9,5.46 1.83,0.98 4.63,-0.33 4.58,-2.42l-1.33 1.65z"/>
   <path class="fil3" d="M1901.53 2409.71c3.36,-2.18 2.48,-8.35 -1.36,-9.51 -1.67,1.25 -3.21,2.82 -3.79,4.8 -0.58,2.02 0.06,4.49 1.9,5.47 1.83,0.97 4.63,-0.32 4.58,-2.42l-1.33 1.65z"/>
   <path class="fil3" d="M1992.41 2464.76c0.76,2.5 4.6,2.41 6.53,0.65 1.93,-1.75 2.83,-4.39 4.57,-6.32 1.79,-2 4.49,-3.15 7.17,-3.07 1.57,0.04 3.28,0.63 3.99,2.03l0.33 3.07c-0.47,5.13 -1.61,10.37 -4.7,14.47 -3.08,4.11 -8.51,6.81 -13.46,5.4 -3.44,-0.96 -6.26,-3.89 -7.08,-7.36 -0.83,-3.49 0.35,-7.36 2.98,-9.8l-0.33 0.92z"/>
   <path class="fil3" d="M1736.74 2301.76c0.76,2.5 4.58,2.41 6.53,0.65 1.93,-1.74 2.82,-4.37 4.57,-6.32 1.79,-1.99 4.49,-3.14 7.17,-3.07 1.56,0.06 3.26,0.63 3.98,2.02l0.32 3.1c-0.47,5.11 -1.59,10.36 -4.68,14.47 -3.09,4.11 -8.51,6.8 -13.47,5.41 -3.43,-0.97 -6.25,-3.91 -7.08,-7.37 -0.83,-3.49 0.36,-7.38 2.99,-9.8l-0.32 0.92z"/>
   <path class="fil3" d="M1750.28 2270.81c0.76,2.48 4.6,2.4 6.53,0.65 1.93,-1.75 2.82,-4.38 4.57,-6.32 1.79,-2 4.47,-3.15 7.17,-3.07 1.56,0.04 3.26,0.63 3.99,2.03l0.32 3.07c-0.47,5.12 -1.6,10.37 -4.68,14.47 -3.1,4.11 -8.52,6.8 -13.47,5.4 -3.43,-0.97 -6.25,-3.9 -7.08,-7.36 -0.82,-3.48 0.36,-7.37 2.98,-9.79l-0.32 0.92z"/>
   <path class="fil3" d="M1792.62 2301.08c0.78,2.49 4.6,2.39 6.54,0.64 1.93,-1.75 2.82,-4.38 4.56,-6.32 1.79,-2 4.49,-3.15 7.17,-3.07 1.57,0.06 3.28,0.64 3.99,2.03l0.33 3.07c-0.47,5.12 -1.61,10.37 -4.7,14.48 -3.08,4.11 -8.51,6.79 -13.46,5.39 -3.44,-0.96 -6.26,-3.89 -7.08,-7.36 -0.83,-3.48 0.35,-7.37 2.98,-9.79l-0.33 0.93z"/>
   <path class="fil3" d="M1524.14 2547.79c0.76,2.49 4.6,2.39 6.54,0.65 1.93,-1.75 2.82,-4.39 4.56,-6.33 1.79,-1.98 4.48,-3.14 7.18,-3.06 1.56,0.04 3.26,0.63 3.97,2.02l0.33 3.08c-0.47,5.11 -1.61,10.36 -4.69,14.47 -3.08,4.11 -8.52,6.79 -13.46,5.4 -3.44,-0.97 -6.26,-3.9 -7.08,-7.39 -0.83,-3.47 0.36,-7.35 2.99,-9.78l-0.33 0.93z"/>
   <path class="fil3" d="M1939.5 2475.87l-3.25 -2.61c-1.54,1.49 -3.19,3.2 -3.33,5.33 -0.12,2.14 2.35,4.36 4.13,3.15l1.35 -1.99c1.04,-2.36 2.07,-4.74 3.11,-7.09l-2 3.2z"/>
   <path class="fil3" d="M1666.21 2455.63c-1.6,-3.03 -3.28,-6.11 -5.94,-8.25 -2.68,-2.12 -6.63,-3.06 -9.54,-1.26 -1.44,0.89 -2.48,2.35 -3.07,3.94 -1.75,4.81 1.26,10.81 6.18,12.28 4.91,1.48 10.72,-1.86 11.91,-6.85l0.47 0.14z"/>
   <path class="fil3" d="M1939.64 2370.54c4.56,1.78 5.15,9.29 0.93,11.76 -2.69,-0.25 -5.33,-1.07 -7.69,-2.39 0.71,-2.9 2.53,-5.54 5.01,-7.19l1.75 -2.18z"/>
   <path class="fil3" d="M1798.58 2341.89c5.36,-12.65 3.57,-28.07 -4.56,-39.15 -13.58,1.72 -27.31,8.65 -33.49,20.87 -6.17,12.24 -1.86,29.8 10.83,34.92 12.71,5.13 29.4,-8.61 24.36,-21.35l2.85 4.71z"/>
   <path class="fil3" d="M1953.69 2342.21c-0.6,1.78 -2.96,2.52 -4.71,1.82 -1.76,-0.69 -2.93,-2.4 -3.57,-4.17l-0.43 -3.26c0.42,-2.53 3.33,-4.26 5.81,-3.56 2.44,0.72 3.97,3.64 3.26,6.1 -0.71,2.46 -3.44,4.09 -5.97,3.68l5.61 -0.61z"/>
   <path class="fil3" d="M1878.33 2342.83c-3.18,1.36 -3.64,5.64 -3.42,9.1 0.22,3.46 0.38,7.58 -2.41,9.64l-2.67 0.6c-2.32,-0.76 -1.64,-4.13 -1.96,-6.54 -0.26,-1.93 -1.42,-3.61 -2.11,-5.43 -1.64,-4.33 -0.26,-9.64 3.28,-12.63 2.43,-0.57 5.13,0.44 6.6,2.43 1.47,2 1.63,4.89 0.37,7.04l2.32 -4.21z"/>
   <path class="fil3" d="M1776.29 2384.92l-3.7 -1.54c-1.65,1.44 -2.21,4.1 -1.07,5.96 1.15,1.86 4,2.51 5.69,1.14 1.71,-1.39 1.52,-4.56 -0.46,-5.51l-0.47 -0.04z"/>
   <path class="fil3" d="M1852.28 2381.29l-0.48 3.93c-1.17,0.93 -2.78,1.08 -4.28,1.04l-3.51 -0.8c-2.11,-1.17 -3.02,-3.99 -2.24,-6.25 0.78,-2.28 3,-3.9 5.37,-4.28l3.35 0.67 0.64 3.11 1.15 2.58z"/>
   <path class="fil3" d="M1833.17 2494.53c12.33,-6.07 21.06,-18.89 22.17,-32.58 -11.4,-7.58 -26.32,-11.33 -38.98,-6.13 -12.67,5.21 -20.9,21.32 -14.65,33.5 6.25,12.2 27.87,12.72 32.39,-0.22l-0.92 5.43z"/>
   <path class="fil3" d="M1933.56 2455.86c-1.7,-3.61 -7.97,-1.37 -8.71,2.57 -0.71,3.94 1.89,7.65 4.35,10.82 4.81,-2.75 7.6,-8.64 6.71,-14.08l-2.35 0.69z"/>
   <path class="fil3" d="M1921.91 2310.47l-3.68 -1.54c-1.65,1.44 -2.21,4.09 -1.07,5.96 1.15,1.87 4,2.52 5.69,1.14 1.71,-1.37 1.52,-4.54 -0.46,-5.51l-0.49 -0.04z"/>
   <path class="fil3" d="M1883.08 2372.07c-11.11,-9.36 -24.42,-16.14 -38.53,-19.61 -2.28,-0.57 -4.65,-1.04 -6.96,-0.63 -4.46,0.83 -7.69,4.86 -9.32,9.1 -3.98,10.35 -0.19,22.87 8.2,30.14 8.37,7.28 20.59,9.39 31.3,6.48 5.87,-1.59 11.63,-4.85 14.61,-10.17 2.99,-5.32 2.32,-12.9 -2.57,-16.54 -1.91,0.44 -2.64,3.3 -1.21,4.6l4.47 -3.37z"/>
   <path class="fil3" d="M1718.37 2546.36c-3.29,-13.33 -13.96,-24.6 -27.11,-28.61 -9.85,9.51 -16.68,23.28 -14.31,36.78 2.39,13.49 16.35,24.97 29.58,21.46 13.25,-3.5 18.39,-24.52 6.72,-31.68l5.11 2.06z"/>
   <path class="fil3" d="M1634.86 2300.96c-1.72,-6.14 -6.44,-11.36 -12.4,-13.65 -1.24,2.57 -2.51,5.24 -2.67,8.08 -0.15,2.86 1.12,5.98 3.74,7.17 3.56,1.6 7.51,-0.96 10.58,-3.39l-0.36 3.22 1.11 -1.43z"/>
   <path class="fil3" d="M1588.79 2302.2c-1.2,-1.33 -2.53,-2.75 -4.29,-3.07 -1.7,-0.31 -3.38,0.48 -4.94,1.19 -4.31,1.96 -8.78,3.53 -13.36,4.68 7.07,3.44 14.14,6.89 21.21,10.33l1.56 1.03c1.43,1.65 0.02,4.19 0.32,6.36 0.44,3.15 4.26,4.5 7.44,4.71 22.65,1.48 -1.43,-17.99 -7.93,-25.24z"/>
   <path class="fil3" d="M1866.24 2332.92c-2.03,-1.13 -4.04,-2.24 -6.06,-3.35 -1.96,4.18 -1.82,9.72 1.64,12.76 3.47,3.03 10.29,1.31 10.69,-3.29 0.24,-2.83 -0.51,-7.37 2.32,-7.08l-8.59 0.96z"/>
   <path class="fil3" d="M1671.28 2369.36c1.83,0.61 3.47,1.81 4.63,3.36 -4.42,2.28 -9.76,0.26 -14.19,-2 -2.47,-1.26 -5.26,-3.25 -4.97,-6 0.21,-1.93 1.86,-3.31 2.74,-5.03 1.74,-3.46 0.83,-8.92 4.48,-10.17 2.07,-0.69 4.36,0.76 5.36,2.71 1,1.93 1,4.22 1,6.42 -0.03,4.75 -0.04,9.53 -0.07,14.29l1.03 -3.58z"/>
   <path class="fil3" d="M1645.44 2440.18c-1.7,-3.63 -7.99,-1.39 -8.71,2.56 -0.72,3.94 1.89,7.65 4.33,10.83 4.81,-2.76 7.6,-8.64 6.71,-14.1l-2.33 0.71z"/>
   <path class="fil3" d="M1609.18 2355.07c3.38,-2.2 2.5,-8.36 -1.35,-9.53 -1.68,1.24 -3.22,2.82 -3.8,4.82 -0.58,2 0.07,4.47 1.9,5.44 1.83,1 4.63,-0.32 4.6,-2.39l-1.35 1.65z"/>
   <path class="fil3" d="M1677.4 2296.37c0.25,-4.8 -1.86,-9.68 -5.54,-12.79 -2.28,3.22 -4.56,6.43 -6.83,9.65 -1.07,1.52 -2.18,3.13 -2.35,4.97 -0.32,3.63 3.6,6.7 7.2,6.18 3.6,-0.52 6.35,-3.86 6.96,-7.43l0.57 -0.59z"/>
   <path class="fil3" d="M1627.36 2332.36c0.76,2.5 4.6,2.4 6.53,0.65 1.94,-1.74 2.83,-4.37 4.57,-6.32 1.79,-1.99 4.49,-3.14 7.17,-3.06 1.57,0.04 3.28,0.61 3.99,2.01l0.32 3.08c-0.46,5.11 -1.6,10.36 -4.68,14.47 -3.08,4.11 -8.51,6.79 -13.46,5.4 -3.44,-0.97 -6.25,-3.9 -7.08,-7.37 -0.83,-3.48 0.35,-7.37 2.98,-9.79l-0.33 0.92z"/>
   <path class="fil3" d="M1624.37 2262.92c-0.04,-3.24 -3.39,-5.83 -6.63,-5.67 -3.24,0.17 -6.07,2.61 -7.39,5.58 -0.57,1.31 -0.76,3.13 0.43,3.9l2.85 0.07c3.87,-1.03 7.74,-2.03 11.61,-3.04l-0.87 -0.85z"/>
   <path class="fil3" d="M1699.98 2425.58c-0.68,6.59 -9.08,11 -14.89,7.79 1.25,-4.96 2.68,-10.22 6.47,-13.67 3.78,-3.44 10.75,-3.86 13.44,0.49 -0.46,2.96 -0.92,5.91 -1.37,8.87l-3.65 -3.49z"/>
   <path class="fil3" d="M1936.85 2402.57c-1.61,-3.02 -3.29,-6.11 -5.97,-8.24 -2.67,-2.13 -6.61,-3.06 -9.53,-1.26 -1.44,0.87 -2.49,2.33 -3.07,3.93 -1.75,4.82 1.25,10.82 6.17,12.29 4.91,1.47 10.73,-1.87 11.91,-6.85l0.49 0.13z"/>
   <path class="fil3" d="M1758.83 2499.54c-2.04,-1.1 -4.08,-2.21 -6.12,-3.32 -1.21,1.32 -2.13,2.89 -2.67,4.57 2.2,2.64 6.67,2.92 9.17,0.57l-0.38 -1.82z"/>
   <path class="fil3" d="M2100.01 2478.74c0.58,1.79 -0.87,3.79 -2.69,4.29 -1.82,0.5 -3.76,-0.18 -5.35,-1.21l-2.3 -2.35c-1.18,-2.28 0.11,-5.43 2.52,-6.32 2.39,-0.9 5.36,0.53 6.26,2.92 0.9,2.39 -0.31,5.35 -2.57,6.53l4.13 -3.86z"/>
   <path class="fil3" d="M1734.78 2447.33c-2.04,-1.11 -4.08,-2.22 -6.11,-3.32 -1.21,1.3 -2.13,2.87 -2.67,4.57 2.18,2.64 6.65,2.91 9.15,0.56l-0.37 -1.81z"/>
   <path class="fil3" d="M1819.85 2276.85c0,-2.61 -3.68,-3.64 -6.04,-2.54 -2.37,1.1 -4,3.36 -6.22,4.71 -2.31,1.37 -5.22,1.68 -7.76,0.82 -1.49,-0.5 -2.94,-1.57 -3.22,-3.1l0.6 -3.04c1.96,-4.75 4.6,-9.44 8.75,-12.46 4.15,-3.03 10.12,-4 14.44,-1.21 3.02,1.94 4.83,5.57 4.61,9.14 -0.24,3.57 -2.52,6.93 -5.74,8.47l0.58 -0.8z"/>
   <path class="fil3" d="M1871.8 2405.17c0.72,1.82 1.49,3.69 2.89,5.06 1.39,1.39 3.58,2.15 5.36,1.3 2.92,-1.37 2.74,-5.65 4.69,-8.24 1.97,-2.57 6.08,-3.35 7.06,-6.43 0.99,-3.06 -2.21,-6.17 -5.4,-6.31 -3.19,-0.14 -6.13,1.71 -8.67,3.65 -2.28,1.72 -4.54,3.7 -5.57,6.36 -1.03,2.65 -0.39,6.17 2.13,7.54l-2.49 -2.94z"/>
   <path class="fil3" d="M1739.86 2333.87c10.93,4.54 22.91,6.54 34.72,5.75 1.9,-0.11 3.86,-0.33 5.54,-1.22 3.26,-1.74 4.78,-5.67 5,-9.35 0.56,-9.01 -5.47,-17.8 -13.76,-21.39 -8.3,-3.59 -18.29,-2.22 -25.9,2.68 -4.17,2.68 -7.83,6.63 -8.83,11.47 -1.01,4.86 1.36,10.59 6.06,12.21 1.36,-0.8 1.24,-3.19 -0.19,-3.86l-2.63 3.7z"/>
   <path class="fil3" d="M1796.08 2268.94c0.56,-1.69 1.13,-3.56 0.53,-5.24 -0.58,-1.63 -2.1,-2.69 -3.5,-3.71 -3.83,-2.76 -7.42,-5.86 -10.71,-9.26 0.54,7.85 1.07,15.7 1.6,23.54l-0.13 1.86c-0.72,2.06 -3.63,2.09 -5.35,3.44 -2.52,1.94 -1.79,5.93 -0.41,8.79 9.99,20.41 14.91,-10.17 17.96,-19.43z"/>
   <path class="fil3" d="M1740.08 2330.96l-2.78 -2.88c-2.08,0.68 -3.65,2.88 -3.35,5.04 0.32,2.17 2.68,3.89 4.78,3.31 2.11,-0.59 3.18,-3.57 1.76,-5.25l-0.42 -0.22z"/>
   <path class="fil3" d="M1758.65 2269.83c2.8,-1.65 3.39,-5.83 1.63,-8.57 -1.76,-2.72 -5.28,-3.97 -8.51,-3.62 -1.42,0.14 -3.1,0.87 -3.18,2.3l1.37 2.5c2.79,2.86 5.6,5.71 8.4,8.56l0.29 -1.17z"/>
   <path class="fil3" d="M1736.97 2306.97c4.48,-4.53 6.65,-11.24 5.69,-17.54 -2.86,0.19 -5.81,0.41 -8.35,1.71 -2.56,1.29 -4.64,3.94 -4.36,6.79 0.37,3.89 4.57,6.06 8.19,7.5l-2.96 1.29 1.78 0.25z"/>
   <path class="fil3" d="M1712.03 2321.56c0.39,1.89 0.17,3.91 -0.6,5.68 -4.18,-2.71 -5.08,-8.35 -5.33,-13.3 -0.12,-2.76 0.21,-6.18 2.74,-7.31 1.76,-0.78 3.81,-0.03 5.74,-0.13 3.86,-0.21 8.13,-3.71 11.03,-1.17 1.64,1.44 1.53,4.17 0.33,6 -1.19,1.83 -3.17,2.97 -5.07,4.06 -4.14,2.35 -8.29,4.71 -12.44,7.06l3.61 -0.89z"/>
   <path class="fil3" d="M1778.4 2290.57c4.29,-2.18 7.47,-6.43 8.35,-11.17 -3.93,-0.38 -7.85,-0.75 -11.78,-1.14 -1.85,-0.17 -3.8,-0.33 -5.49,0.44 -3.29,1.53 -4.01,6.46 -1.78,9.32 2.24,2.86 6.5,3.58 9.91,2.35l0.78 0.2z"/>
   <path class="fil3" d="M1722.29 2265.06c-1.79,1.91 0.21,5.18 2.68,5.99 2.47,0.82 5.2,0.28 7.75,0.82 2.63,0.57 4.97,2.32 6.24,4.69 0.74,1.38 1.08,3.15 0.24,4.46l-2.52 1.82c-4.68,2.14 -9.8,3.76 -14.9,3.14 -5.1,-0.64 -10.13,-4.01 -11.37,-9 -0.87,-3.47 0.26,-7.37 2.87,-9.82 2.6,-2.44 6.57,-3.35 9.97,-2.26l-0.96 0.17z"/>
   <path class="fil3" d="M1804.79 2411.76c1.82,-2.9 3.67,-5.9 4.19,-9.28 0.52,-3.38 -0.65,-7.26 -3.65,-8.91 -1.48,-0.8 -3.26,-0.98 -4.93,-0.71 -5.06,0.89 -8.75,6.47 -7.58,11.47 1.15,5 6.94,8.38 11.86,6.94l0.11 0.47z"/>
   <path class="fil3" d="M1853.72 2353.31c4.47,-4.53 6.65,-11.25 5.68,-17.54 -2.85,0.2 -5.79,0.42 -8.35,1.71 -2.56,1.29 -4.64,3.94 -4.36,6.79 0.39,3.89 4.58,6.06 8.21,7.5l-2.97 1.29 1.79 0.25z"/>
   <path class="fil3" d="M1699.93 2322.65c-3.46,-0.01 -5.58,3.74 -6.75,7 -1.17,3.26 -2.65,7.1 -6.03,7.89l-2.69 -0.52c-1.82,-1.62 0.14,-4.44 0.79,-6.79 0.54,-1.87 0.14,-3.87 0.22,-5.82 0.22,-4.63 3.58,-8.94 8.03,-10.29 2.44,0.44 4.53,2.44 5.08,4.86 0.56,2.42 -0.44,5.12 -2.44,6.59l3.79 -2.93z"/>
   <path class="fil3" d="M1905.83 2492.47c-1.3,-0.19 -2.62,-0.42 -3.94,-0.64 -1.28,1.79 -1.21,4.5 0.35,6.06 1.54,1.54 4.47,1.5 5.8,-0.24 1.33,-1.74 0.41,-4.75 -1.74,-5.25l-0.47 0.07z"/>
   <path class="fil3" d="M1786.78 2322.04c0.22,-1.37 0.44,-2.74 0.67,-4.13 -2.07,-0.6 -4.36,-1.18 -6.3,-0.22 -1.93,0.94 -2.61,4.19 -0.68,5.14l2.39 0.18c2.57,-0.28 5.13,-0.56 7.7,-0.83l-3.78 -0.14z"/>
   <path class="fil4" d="M1756.39 3229.31c-312.85,0 -566.46,-56.44 -566.46,-126.06 0,-69.63 253.61,-126.06 566.46,-126.06 312.83,0 566.44,56.43 566.44,126.06 0,69.61 -253.61,126.06 -566.44,126.06z"/>
   <polygon class="fil5" points="3074.72,193.25 3115.21,210.6 3074.72,663.99 3040,679.5 2849.09,698.6 2834.64,778.32 2695.74,663.99 "/>
   <path class="fil6" d="M1499.4 2911c-3.28,0 -6.56,-0.56 -9.81,-1.72l0 0c-54.17,-91.13 -71.56,-316.7 -57.48,-334.1 1.9,-2.32 7.11,-3.32 14.74,-3.32 49.17,0 198.22,41.79 198.22,41.79 -2.3,13.49 -5.72,29.46 -10.07,46.86 -25.22,100.87 -81.85,250.48 -135.6,250.48zm-53.67 -51.19c-7.85,-14.07 -15.68,-30.52 -23.39,-48.65 -36.28,-85.5 -69.52,-208.54 -87.56,-296.78 20.61,36.2 60.92,113.47 76.71,188.81 12.37,58.52 25.41,117.14 34.24,156.63z"/>
   <path class="fil7" d="M1945.82 2980.85c-2.49,0 -5.06,-0.44 -7.64,-1.26 -9.85,-2.86 -20.26,-10.89 -30.91,-22.79l0 -0.11c-39.5,-97.32 -53.24,-275.93 -16.6,-351.04 36.64,-75.22 195.21,-122.17 195.21,-122.17 -1.02,8.83 -2.25,17.97 -3.5,27.49 -0.02,0.11 -0.03,0.22 -0.04,0.35 -19.69,146.43 -60.33,361.44 -104.08,439.65 -10.42,18.78 -21.07,29.65 -31.6,29.87 -0.28,0.01 -0.56,0.01 -0.83,0.01z"/>
   <path class="fil8" d="M1320.59 2420.35c-1.54,-5.67 -1.12,-10.46 1.54,-14.12l0 0c-1.25,2.17 -1.74,7.01 -1.54,14.12zm5.15 -17.78l0 0c4.22,-3.21 9.94,-4.68 16.89,-4.68 3.9,0 8.21,0.46 12.83,1.35 0.4,0.94 0.79,1.86 1.2,2.79 -6.8,-1.65 -12.86,-2.54 -17.98,-2.54 -5.39,0 -9.76,0.97 -12.94,3.08z"/>
   <path class="fil9" d="M1763.54 2590.46c-0.29,-0.49 -0.33,-1.06 -0.08,-1.7 0,0.02 0,0.03 0,0.04 0.03,0.54 0.06,1.1 0.08,1.65zm292.15 -215.52c0.29,-0.72 0.57,-1.44 0.85,-2.17 2.89,-0.65 5.63,-1.24 8.22,-1.78l0 0c-2.86,1.18 -5.88,2.49 -9.07,3.94z"/>
   <g style="clip-path:url(#id0)">
    <image x="1313.46" y="2395.74" width="341.94" height="518.33" xlink:href="robot1_Images\robot1_ImgID1.png"/>
   </g>
   <g style="clip-path:url(#id1)">
    <image x="1313.46" y="2391.57" width="341.94" height="201.67" xlink:href="robot1_Images\robot1_ImgID2.png"/>
   </g>
   <path class="fil10" d="M1922.51 2657.02c-11.83,3.65 -14.58,98.08 5.15,103.32 19.72,5.22 22.22,-111.74 -5.15,-103.32z"/>
   <g style="clip-path:url(#id2)">
    <image x="1756.51" y="2358.24" width="344.72" height="605.83" xlink:href="robot1_Images\robot1_ImgID3.png"/>
   </g>
   <g style="clip-path:url(#id3)">
    <image x="1756.51" y="2565.18" width="22.5" height="28.06" xlink:href="robot1_Images\robot1_ImgID4.png"/>
   </g>
   <g style="clip-path:url(#id4)">
    <image x="1756.51" y="2358.24" width="341.94" height="241.94" xlink:href="robot1_Images\robot1_ImgID5.png"/>
   </g>
   <path class="fil11" d="M976.41 2429.1c4.79,-36.28 30.56,-202.67 120.58,-388.26 51.19,-105.56 116.44,-203.79 172.66,-276.15l0.81 -1.03 2.06 -2.76 1.14 -1.48 1.03 -1.38 1.5 -1.82 0.22 -0.35 0.22 -0.22c53.99,-68.49 98.36,-111.52 111.31,-111.52 0.75,0 1.4,0.15 1.93,0.44 5.1,2.79 9.68,33.33 10.6,78.89 -10.85,22.51 -20.22,46.18 -28,70.75 -15.82,50.1 -28.24,109.43 -36.76,171.75 -22.92,70.22 -49.69,140.59 -76,183.19 -37.9,61.25 -106.31,109.74 -152.32,109.74 -36.55,0 -58.97,-30.63 -40.73,-109.74 36.18,-157.1 170.83,-342 203,-384.47 -56.22,72.36 -121.48,170.6 -172.66,276.15 -90.02,185.6 -115.79,351.98 -120.58,388.26l0 0zm213.57 -9.89c0.14,-0.1 0.22,-0.17 0.25,-0.18l0.07 -0.01c-0.11,0.07 -0.22,0.13 -0.32,0.19z"/>
   <path class="fil12" d="M976.4 2429.18l0 0c-0.01,-0.01 -0.02,-0.01 -0.03,-0.01 0,0 0.01,-0.03 0.04,-0.07l0 0c-0,0.03 -0,0.06 -0.01,0.08zm204.96 -4.56c-0.59,-1.32 -1.22,-2.63 -1.85,-3.9l10.72 -1.7c-0.03,0.02 -0.11,0.08 -0.25,0.18 -0.87,0.61 -3.83,2.64 -8.63,5.42z"/>
   <g style="clip-path:url(#id5)">
    <image x="970.4" y="1758.24" width="371.11" height="685" xlink:href="robot1_Images\robot1_ImgID6.png"/>
   </g>
   <g style="clip-path:url(#id6)">
    <image x="970.4" y="2315.18" width="237.78" height="121.11" xlink:href="robot1_Images\robot1_ImgID7.png"/>
   </g>
   <path class="fil13" d="M1214.85 2029.97c-13.54,-5.07 56.4,-163.42 78.1,-164.86 21.69,-1.46 -66.53,169.21 -78.1,164.86z"/>
   <path class="fil14" d="M1207.76 2046.86c-10.68,-5.65 -20.76,23.97 -11,28.31 9.76,4.35 23.08,-21.89 11,-28.31z"/>
   <path class="fil15" d="M1066.9 2815.08c-33.19,0 -61.62,-7.71 -61.62,-7.71 -40.72,-142.51 -37.33,-311.93 -23.17,-369.07l0 0c0.49,-1.97 0.99,-3.81 1.5,-5.5 1.17,-3.87 2.4,-7.02 3.67,-9.36 16.61,-30.75 66.96,-64.74 105.8,-64.74 3.26,0 6.44,0.24 9.51,0.74 34.05,5.56 60.12,27.04 76.92,61.28 0.63,1.28 1.25,2.58 1.85,3.9 14.18,30.98 21.11,71.76 19.89,120.13 -0.87,34.57 -5.06,72.86 -11.97,109.35 2.42,-15.68 4.6,-32.57 6.64,-50.68 14.67,-130.65 -24.85,-197.61 -24.85,-197.61 -132.83,69.03 -74.39,406.9 -74.39,406.9 16.03,-3.1 29.41,-9.83 40.71,-20.39 -6.36,7.33 -13.09,12.52 -20.12,15.06 -16,5.78 -33.77,7.71 -50.36,7.71z"/>
   <path class="fil16" d="M1096.68 2812.71c0,0 -58.44,-337.87 74.39,-406.9 0,0 39.52,66.96 24.85,197.61 -2.04,18.11 -4.22,35 -6.64,50.68 -1.42,9.18 -2.92,17.93 -4.51,26.29l-84.84 -150.97c0,0 -15.63,60.93 -12.81,95.79 0,0 34.15,49.9 57.48,58.04 7.51,2.62 14.48,3.51 20.5,3.51 9.02,0 15.87,-2.01 19.06,-3.17 -10.2,52.01 -24.39,87.83 -46.76,108.72 -11.3,10.56 -24.68,17.29 -40.71,20.39z"/>
   <path class="fil17" d="M1184.15 2683.6c0.21,-1.06 0.42,-2.14 0.61,-3.21l1.36 2.42c0,0 -0.69,0.33 -1.97,0.79z"/>
   <g style="clip-path:url(#id7)">
    <image x="1077.35" y="2522.13" width="114.17" height="171.11" xlink:href="robot1_Images\robot1_ImgID8.png"/>
   </g>
   <path class="fil18" d="M1099.93 2529.42c0,0 18.93,-93.6 75.45,-116.44 0,0 52.53,51.79 39.21,253.08 0,0 -29.33,38.68 -70.67,0 0,0 -34.66,-68.65 -43.99,-136.64z"/>
   <path class="fil19" d="M1132.26 2496.42c-19.21,0 10,85 20,83 9.99,-2 -4,-83 -20,-83z"/>
   <path class="fil20" d="M1236.43 653.24c-18.21,-130.5 -79.02,-186.65 -79.02,-186.65 -10.25,7.96 -19.21,19.67 -26.15,30.5 15.78,-25.44 26.15,-30.5 26.15,-30.5 81.72,10 151.94,56.6 180.07,77.63 -36.8,32.37 -70.54,69.11 -101.04,109.03zm-120.27 -128.24c0.04,-0.09 0.09,-0.19 0.13,-0.28 -0.06,0.14 -0.1,0.22 -0.12,0.25 -0,0.02 -0.01,0.02 -0.02,0.03z"/>
   <path class="fil21" d="M1216.18 680.87c0.46,-44.65 -8.22,-121.11 -63.49,-182.85 0,0 -15.48,7.31 -36.51,26.94 0.02,-0.03 0.06,-0.11 0.12,-0.25 0.87,-1.97 6.34,-14.14 14.96,-27.64 6.93,-10.83 15.9,-22.54 26.15,-30.5 0,0 60.81,56.15 79.02,186.65 -6.92,9.06 -13.68,18.29 -20.25,27.64z"/>
   <path class="fil22" d="M2178.36 670.74c-32.94,-42.28 -69.37,-81.5 -108.89,-116.21 1.58,-1.35 87.82,-75.04 193.17,-87.94 0,0 -72.04,77.2 -84.28,204.15zm84.28 -204.15l0 0z"/>
   <path class="fil23" d="M2205.25 707.04c-8.67,-12.31 -17.65,-24.44 -26.89,-36.31 12.24,-126.96 84.28,-204.15 84.28,-204.15l0 0c0.17,-0.03 0.33,-0.04 0.5,-0.04 12.13,0 42.46,58.96 43.6,61.18 -22.47,-21.71 -39.39,-29.7 -39.39,-29.7 -68.63,76.67 -65.42,176 -62.1,209.02z"/>
   <path class="fil24" d="M2338.21 971.2c-29.88,-90.85 -75.09,-182.1 -132.96,-264.15 -3.32,-33.02 -6.53,-132.35 62.1,-209.02 0,0 16.92,7.99 39.39,29.7 30.59,29.56 71.51,84.59 94.03,179.67 15.9,67.15 8.47,123.37 -5.93,166.43 -20.61,61.6 -55.47,96.24 -56.62,97.38zm-56.99 -428.04c-4.56,0 -9.31,0.52 -14.19,1.71 -41.71,10.07 -44.49,141.46 -19.53,144.72 0.51,0.07 1.04,0.1 1.54,0.1 23.85,0 34.37,-73.03 53.1,-84.71 10.76,-6.72 26.06,-8.18 37.37,-8.18 8.78,0 15.15,0.89 15.15,0.89l-15.33 -25c0,0 -23.85,-29.53 -58.11,-29.53z"/>
   <path class="fil25" d="M1079.81 969.11c-14.17,-15.14 -96.28,-110.83 -60.54,-261.72 23.22,-98.07 66.02,-153.54 96.89,-182.39 0.01,-0.01 0.01,-0.01 0.02,-0.03 21.02,-19.64 36.51,-26.94 36.51,-26.94 55.27,61.74 63.95,138.2 63.49,182.85 -45.83,65.27 -83.31,137.71 -111.41,212.61 -9.38,25 -17.71,50.26 -24.96,75.62zm9.01 -364.3c4.27,0 8.93,0.36 13.96,1.18 34.44,5.64 54.97,73.19 72.83,73.19 0.89,0 1.78,-0.17 2.67,-0.53 18.5,-7.46 4.93,-127.67 -43.96,-163.01 0,0 -63.02,53.8 -83.79,102.68 0,0 11.92,-13.51 38.28,-13.51z"/>
   <path class="fil26" d="M1511.64 1409.46c-124.08,0 -231.93,-7.92 -308.25,-34.17 3.17,-1.61 6.42,-3.22 9.72,-4.8 67.19,-32.18 129.54,-58.15 149.98,-83.94 92.26,21.89 207.26,33.01 323.57,33.01 213.29,0.02 431,-37.4 521.35,-114.46 61.1,-52.11 75.87,-145.57 54.21,-248.85 -36.19,-226.07 -256.15,-512.18 -551.26,-512.18 -9.14,0 -18.26,0.26 -27.54,0.82 -390.96,23.46 -585.69,386.06 -523.4,686.74 1.98,12.07 4.35,24.08 7.13,35.97 8.85,37.74 49.2,68.63 109.46,92.46 -55.32,0.31 -114.95,5 -114.95,5l-65.54 28.44c-65.88,-127.93 5.68,-388.83 8.77,-400.13l-0.11 0.11c-39.01,103.97 -59.93,212.67 -59.9,313.24 -0.02,-76.39 12.04,-157.47 34.94,-237.61 7.25,-25.36 15.58,-50.62 24.96,-75.62 28.09,-74.91 65.57,-147.35 111.41,-212.61 6.57,-9.35 13.33,-18.58 20.25,-27.64 30.5,-39.92 64.25,-76.65 101.04,-109.03 99.09,-87.24 220.03,-142.71 357.53,-142.71 141.51,0 268.97,60.37 374.47,153.03 39.51,34.71 75.94,73.93 108.89,116.21 9.24,11.86 18.22,24 26.89,36.31 57.87,82.06 103.08,173.3 132.96,264.15 6.59,20.09 12.46,40.19 17.54,60.14 15.57,61.22 23.79,121.26 23.83,177.11 -0.04,-55.85 -8.26,-115.89 -23.83,-177.11l-33.21 -99.03c21.18,67.08 66.18,232.87 21.42,307.98 -56.79,95.49 -168.78,144.61 -507.21,159.15 -113.68,4.83 -224.69,10.02 -325.11,10.02zm809.07 -482.89l0 0c-2.86,-9.15 -5.26,-15.92 -6.53,-19.68l6.53 19.68z"/>
   <path class="fil27" d="M1167.15 1167.6c43.39,185.11 844.17,205.26 1040.86,37.5 196.68,-167.75 -86.54,-763.76 -520.43,-737.72 -396.82,23.81 -591.49,397 -520.43,700.22z"/>
   <path class="fil28" d="M1682.5 1297.08c-251.11,-0.01 -496.04,-51.87 -519.51,-151.97 -1.05,-4.47 -2.04,-8.97 -2.97,-13.48 -62.3,-300.68 132.44,-663.28 523.4,-686.74 9.28,-0.56 18.41,-0.82 27.54,-0.82 295.11,0 515.07,286.11 551.26,512.18 15.1,94.25 -1.74,178.06 -58.37,226.37 -90.35,77.04 -308.06,114.46 -521.35,114.46zm-139.02 -135.8c-68.53,0 -118.44,12.22 -125.29,38 -10.31,38.83 61.25,77.69 236.19,77.69 20.79,0 43.03,-0.56 66.78,-1.71 270.31,-13.25 327.71,-69.87 314.43,-85.56 -0.71,-0.83 -1.98,-1.19 -3.87,-1.19 -6.19,0 -18.98,3.87 -40.01,7.74 -21.04,3.87 -50.35,7.74 -89.53,7.74 -45.18,0 -103.53,-5.14 -177.54,-21.36 -63.96,-14.03 -128.13,-21.35 -181.15,-21.35zm-324.14 -357.03c-13.7,0 -34.31,52.98 -44.7,132.28 -11.07,84.58 -1.69,147.58 -1.69,147.58 11.15,28.22 26.89,36.81 41.94,36.81 23.33,0 44.94,-20.67 44.94,-20.67 0,0 -12.21,-59.63 -18.43,-123.14 -7.98,-81.64 -5.89,-164.47 -19.43,-172.15 -0.85,-0.47 -1.72,-0.71 -2.64,-0.71zm632.39 -25.46c-4.31,30.33 -1.57,57.26 3.79,66.71 9.43,16.63 36.19,23 68.33,23.02 66.41,0 155.79,-27.22 163.07,-47.6 0.25,-0.71 0.48,-1.44 0.69,-2.19 28.43,-6.38 54.41,-20.21 77.42,-44.53 20.81,-21.99 -183.44,-307.75 -432.04,-307.75 -2.79,0 -5.56,0.03 -8.36,0.11 -252.36,6.54 -421.58,158.39 -430.25,210.46 -4.21,25.25 17.03,39.42 56.6,46.89 -23.92,35.3 -33.54,76.87 -26.35,97.01 7.28,20.37 96.67,47.6 163.06,47.6 32.14,0 58.9,-6.39 68.35,-23.02 8.18,-14.43 10.26,-69.69 -9.58,-115.5 17.15,-0.47 34.87,-1.04 53.08,-1.64 4.15,-0.14 8.31,-0.21 12.46,-0.21 78.12,0 156.17,23.72 229.87,47.46 3.29,1.07 6.58,2.13 9.86,3.18z"/>
   <g style="clip-path:url(#id8)">
    <image x="1023.18" y="888.79" width="1372.5" height="725.28" xlink:href="robot1_Images\robot1_ImgID9.png"/>
   </g>
   <path class="fil29" d="M1478.25 1608.41c-79.61,-9.22 -141.51,-23.47 -184.44,-40.65 0,0 11.64,-20.26 139.14,-55.7 39.78,9.17 89.19,16.29 147.68,20.5 -37.54,17.64 -72.04,43.56 -102.37,75.85zm449.13 -10.85c-29.4,-28.91 -64.64,-52.56 -105.61,-68.51 40.96,-4.82 83.32,-11.67 122.08,-19.94 32.04,8.54 59.53,17.17 80.54,24.26 -21.08,11.04 -43.09,22.08 -66.17,33.13 -1.94,0.92 -3.78,2.29 -5.15,4.01l-0.11 0.11c-4.22,5.04 -6.24,13.17 -6.33,23.53 -6.37,1.17 -12.8,2.32 -19.25,3.41zm168.93 -138.01l0 0 -1.61 -0.33c-2.87,-0.6 -5.82,-1.21 -8.85,-1.82 0.1,-0.08 0.18,-0.17 0.26,-0.25 -0.93,-0.21 -1.87,-0.42 -2.82,-0.63 0.94,0.21 1.89,0.42 2.82,0.63 2.97,0.69 5.85,1.37 8.58,2.07l1.61 0.33 0 0z"/>
   <g style="clip-path:url(#id9)">
    <image x="2089.85" y="1455.46" width="51.67" height="21.11" xlink:href="robot1_Images\robot1_ImgID10.png"/>
   </g>
   <g style="clip-path:url(#id10)">
    <image x="1217.62" y="1424.91" width="921.11" height="148.89" xlink:href="robot1_Images\robot1_ImgID11.png"/>
   </g>
   <path class="fil30" d="M1580.62 1532.56c-58.48,-4.21 -107.9,-11.33 -147.68,-20.5 -59.5,-13.69 -97.5,-31.94 -112.24,-51.82 100.57,-18.19 264.14,-28.97 420.96,-28.97 4.35,0 8.68,0 13.03,0.03l0 0c128.13,0.49 250.43,8.28 328.6,25.22 0.94,0.21 1.89,0.42 2.82,0.63 -0.08,0.08 -0.17,0.17 -0.26,0.25 -20.61,19.43 -76.13,37.64 -142,51.71 -38.76,8.28 -81.13,15.13 -122.08,19.94 -37.25,-14.52 -79.22,-22.67 -125.86,-22.67 -40.56,0 -79.31,9.3 -115.28,26.18z"/>
   <path class="fil31" d="M2044.91 2265.17c-0.36,-13.31 -1.43,-26.76 -3.18,-40.24 -13.35,-154.71 -119.79,-319.18 -305.24,-336.68 -10.47,-0.99 -20.89,-1.47 -31.22,-1.47 -167.86,0 -314.69,128.21 -350.07,314.96 -34,-215.32 45.41,-478.63 45.41,-478.63l-0.11 0.24c-10.87,22.56 -20.26,46.25 -28.06,70.86 -32.04,101.44 -50.1,240.67 -50.15,366.13 0.02,-14.72 0.26,-29.65 0.76,-44.68l0 0c1.64,-49.75 5.93,-100.64 12.63,-149.69 8.53,-62.32 20.94,-121.65 36.76,-171.75 7.78,-24.57 17.15,-48.24 28,-70.75 0.03,-0.04 0.04,-0.09 0.06,-0.11l0.11 -0.24c9.85,-20.37 20.85,-39.83 32.99,-58.04l0.11 -0.24c13.5,-20.31 28.32,-39.14 44.31,-56.18l0 0c0.08,-0.08 0.14,-0.17 0.22,-0.25 30.33,-32.3 64.83,-58.21 102.37,-75.85 35.97,-16.89 74.72,-26.18 115.28,-26.18 46.64,0 88.61,8.15 125.86,22.67 40.97,15.96 76.21,39.6 105.61,68.51 0.9,0.89 1.79,1.78 2.67,2.67l0 0c5.78,5.8 11.31,11.82 16.61,18.01 1.02,1.18 2.03,2.37 3.02,3.57 0.35,1.74 0.72,3.47 1.13,5.25 -1.67,-2.46 -3.39,-4.91 -5.11,-7.35 0.33,-0.48 0.67,-0.98 0.97,-1.47 -57.12,-66.75 -141.06,-111.86 -250.75,-111.86 -105.33,0 -198.52,62.64 -262.18,158.46l-0.11 0.24c-0.92,4 -18.87,35.94 99.4,46.74 16.87,1.54 35.26,2.29 54.64,2.29 128.53,0 299.83,-32.92 350.83,-85.65 8.28,52.26 36.54,183.71 120,272.56 10.76,75.22 26.74,238.86 -13.57,364.17zm9.53 -393.39l0 0c-0.72,-3.15 -1.47,-6.29 -2.22,-9.43 0.1,0.5 0.19,1.09 0.32,1.74 -5.28,-20.89 -13.13,-48.54 -24.09,-79.47 1.26,1.6 2.56,3.2 3.83,4.75 7.32,23.39 13.9,47.31 19.71,71.6l0.24 1.39c0.75,3.14 1.5,6.28 2.22,9.43z"/>
   <path class="fil32" d="M2061.43 1903.92c-2.18,-10.76 -4.52,-21.48 -6.98,-32.14l0 0c4.54,18.68 6.69,30.47 6.98,32.14l0 0zm-2.94 -2.92c-83.46,-88.85 -111.72,-220.29 -120,-272.56 2.76,-2.86 5.17,-5.76 7.19,-8.74 1.72,2.43 3.44,4.89 5.11,7.35 10.59,46.7 40.32,110.41 77.65,157.56 10.97,30.93 18.82,58.59 24.09,79.47 1.14,6.22 3.41,19.09 5.94,36.92z"/>
   <path class="fil33" d="M2116.39 1718.67c-116.71,0 -158.17,-152.18 -158.17,-152.18 -1.83,1.26 -3.56,2.53 -5.15,4.01l-0.11 0.11c-4.35,5.2 -6.36,13.67 -6.35,24.47 0,-0.32 0,-0.64 0.01,-0.94 0.1,-10.36 2.11,-18.49 6.33,-23.53l0.11 -0.11c1.38,-1.72 3.21,-3.09 5.15,-4.01 23.07,-11.04 45.08,-22.08 66.17,-33.13 39.85,-20.89 76.25,-41.72 109.35,-62.14 1,-0.61 1.98,-1.22 2.98,-1.83 115.81,-71.78 191.42,-138.6 237.58,-186.64l0 0c23.6,-24.56 39.5,-44.2 49.15,-57.1 -9.68,29.6 -11.24,91.4 -4.39,141.33 -29.24,92.61 -107.46,292.64 -249.69,342.09 -19.17,6.67 -36.81,9.59 -52.99,9.59z"/>
   <path class="fil34" d="M1099.17 1451.53c-2.04,-3.67 -4.02,-7.51 -5.94,-11.5 1.93,3.89 3.9,7.72 5.94,11.5l0 0z"/>
   <g style="clip-path:url(#id11)">
    <image x="1089.85" y="1255.46" width="278.06" height="125.28" xlink:href="robot1_Images\robot1_ImgID12.png"/>
   </g>
   <path class="fil35" d="M1363.09 1286.54c-31.83,-7.56 -60.93,-16.39 -86.48,-26.49 1.9,-0.01 3.79,-0.01 5.68,-0.01 48.17,0 91.32,3.6 86.4,16.93 -1.17,3.2 -3.06,6.37 -5.6,9.57z"/>
   <g style="clip-path:url(#id12)">
    <image x="1046.79" y="1288.79" width="161.39" height="168.33" xlink:href="robot1_Images\robot1_ImgID13.png"/>
   </g>
   <path class="fil36" d="M2419.07 1366.99c-6.85,-49.93 -5.29,-111.74 4.39,-141.33 1.99,-6.07 4.32,-10.79 6.97,-13.76 -1.54,11.89 -2.33,19.71 -2.53,21.68 -1.86,11.75 -3.03,22.61 -3.33,32.24 0,0 -0.37,27.56 7.2,56.97 -1.64,6.51 -5.81,22.37 -12.7,44.21z"/>
   <path class="fil37" d="M1923.86 868.52c-32.14,-0.02 -58.9,-6.39 -68.33,-23.02 -5.36,-9.44 -8.1,-36.37 -3.79,-66.71 70.01,22.63 135.91,44.29 193.97,44.29 14.47,0 28.47,-1.35 41.91,-4.36 -0.21,0.75 -0.44,1.48 -0.69,2.19 -7.28,20.37 -96.67,47.6 -163.07,47.6z"/>
   <path class="fil38" d="M1487.69 868.52c-66.39,0 -155.78,-27.22 -163.06,-47.6 -7.19,-20.14 2.43,-61.71 26.35,-97.01 29.35,5.54 68.79,7.41 115.42,7.41 24.81,0 51.63,-0.53 80.06,-1.32 19.85,45.81 17.76,101.07 9.58,115.5 -9.44,16.63 -36.21,23.02 -68.35,23.02z"/>
   <path class="fil39" d="M1502.64 939.5c0,0 54.65,56.41 209.56,56.41 154.9,0 234.44,-65.07 234.44,-65.07 0,0 -68.28,92.56 -234.44,92.56 -166.17,0 -209.56,-83.89 -209.56,-83.89z"/>
   <path class="fil40" d="M1010.34 766.25c0,0 56.18,36.15 19.34,119.89 0,0 -262.46,142.94 -247.26,298.7 12.67,129.99 375.3,67.04 375.3,67.04l13.02 43.4c0,0 -308.06,60.26 -414.35,-12.17 0,0 -36.16,-85.86 53.5,-240.6 89.67,-154.75 200.45,-276.28 200.45,-276.28z"/>
   <path class="fil41" d="M1111.82 1239.85c-33.05,37.38 37.08,78.28 94.73,84.56 64.69,7.04 179.59,-18.56 172.65,-83.71 -6.96,-65.17 -189.93,-88.47 -267.39,-0.85z"/>
   <g style="clip-path:url(#id13)">
    <image x="1284.29" y="462.41" width="907.22" height="361.39" xlink:href="robot1_Images\robot1_ImgID14.png"/>
   </g>
   <g style="clip-path:url(#id14)">
    <image x="1846.79" y="658.24" width="258.61" height="172.5" xlink:href="robot1_Images\robot1_ImgID15.png"/>
   </g>
   <g style="clip-path:url(#id15)">
    <image x="1344.01" y="658.24" width="207.22" height="78.06" xlink:href="robot1_Images\robot1_ImgID16.png"/>
   </g>
   <g style="clip-path:url(#id16)">
    <image x="1403.73" y="1155.46" width="651.67" height="128.06" xlink:href="robot1_Images\robot1_ImgID17.png"/>
   </g>
   <g style="clip-path:url(#id17)">
    <image x="2306.51" y="901.29" width="18.33" height="32.22" xlink:href="robot1_Images\robot1_ImgID18.png"/>
   </g>
   <g style="clip-path:url(#id18)">
    <image x="1317.62" y="1719.35" width="383.61" height="861.39" xlink:href="robot1_Images\robot1_ImgID19.png"/>
   </g>
   <g style="clip-path:url(#id19)">
    <image x="1720.4" y="1855.46" width="371.11" height="725.28" xlink:href="robot1_Images\robot1_ImgID20.png"/>
   </g>
   <g style="clip-path:url(#id20)">
    <image x="2046.79" y="1858.23" width="22.5" height="51.67" xlink:href="robot1_Images\robot1_ImgID21.png"/>
   </g>
   <path class="fil42" d="M1351.39 2304.17c-3.65,-25.92 -3.65,-53.31 0.42,-81.89 0.99,-6.93 2.11,-13.78 3.41,-20.54 35.37,-186.75 182.2,-314.96 350.07,-314.96 10.33,0 20.75,0.48 31.22,1.47 185.44,17.5 291.89,181.97 305.24,336.68 -19.53,-149.43 -124.82,-302.47 -303.35,-319.33 -10.48,-0.99 -20.89,-1.47 -31.24,-1.47 -173.91,0 -325.3,137.69 -353.47,335.5 -3.18,22.29 -3.87,43.83 -2.29,64.54z"/>
   <path class="fil43" d="M1705.61 2575.21c-3.35,0 -6.68,-0.03 -10,-0.1l0 0c-186.64,-3.75 -332.11,-112.37 -344.22,-270.94 -1.58,-20.71 -0.89,-42.25 2.29,-64.54 28.17,-197.81 179.56,-335.5 353.47,-335.5 10.35,0 20.75,0.48 31.24,1.47 178.53,16.86 283.82,169.9 303.35,319.33 1.75,13.47 2.82,26.93 3.18,40.24 0.14,5.51 0.17,11 0.07,16.46 -2.81,159.58 -115.79,285.31 -318.92,293.19l0 0c-5.69,0.22 -11.46,0.35 -17.29,0.39 -1.06,0 -2.11,0 -3.17,0zm-137.7 -153.67c-42.44,0 -76.59,8.87 -96.01,31.53 0,0 48.25,84.01 227.92,84.71 0.58,0 1.19,0 1.78,0 178.39,0 250.96,-106.29 250.96,-106.29 0,0 -49.03,31.96 -125.61,31.96 -22.99,0 -48.46,-2.87 -75.82,-10.37 -65.56,-17.93 -130.71,-31.53 -183.21,-31.53zm132.24 -490.14c-219.76,0 -283.51,161.78 -275.08,175.22 23.15,36.94 93.38,36.94 185.1,36.94 48.85,0 103.79,0 160.97,5.58 149.61,14.6 186.39,60.18 217.93,60.18 3.15,0 6.24,-0.46 9.39,-1.43 34.72,-10.86 -20.13,-258.57 -265.97,-275.38 -11.13,-0.75 -21.92,-1.12 -32.33,-1.12z"/>
   <g style="clip-path:url(#id21)">
    <image x="1410.68" y="1502.68" width="541.94" height="216.94" xlink:href="robot1_Images\robot1_ImgID22.png"/>
   </g>
   <g style="clip-path:url(#id22)">
    <image x="1930.12" y="1598.51" width="21.11" height="35" xlink:href="robot1_Images\robot1_ImgID23.png"/>
   </g>
   <path class="fil3" d="M1863.09 1734.33c-10.92,3.61 -11.44,91.72 0,105.92 11.44,14.19 29.82,9.83 35.93,-10.92 6.11,-20.74 -19.41,-100.46 -35.93,-95z"/>
   <path class="fil3" d="M1883.29 1863.74c-9.11,2.17 -10.17,24.02 -5.96,31.67 4.21,7.64 20.06,6 22.63,-3.28 2.57,-9.29 -7.48,-30.57 -16.67,-28.39z"/>
   <g style="clip-path:url(#id23)">
    <image x="1467.62" y="2415.18" width="490.56" height="128.06" xlink:href="robot1_Images\robot1_ImgID24.png"/>
   </g>
   <path class="fil3" d="M1849.61 439.83c-19.2,4.46 141.86,89.67 148.37,79.54 6.52,-10.12 -95.25,-91.9 -148.37,-79.54z"/>
   <path class="fil3" d="M2158.17 503.52c-16.06,8.67 -14.78,25.98 18.46,21.64 33.24,-4.33 51.32,-30.36 47.7,-35.43 -3.61,-5.06 -48.14,4.07 -66.15,13.79z"/>
   <g style="clip-path:url(#id24)">
    <image x="1939.85" y="1362.4" width="618.33" height="478.06" xlink:href="robot1_Images\robot1_ImgID25.png"/>
   </g>
   <g style="clip-path:url(#id25)">
    <image x="2413.46" y="1315.18" width="144.72" height="135" xlink:href="robot1_Images\robot1_ImgID26.png"/>
   </g>
   <path class="fil44" d="M2496.82 1391.96c-4.37,0 -8.71,-0.57 -12.96,-1.79 -29.91,-8.54 -44.75,-38.83 -52.09,-67.39 -7.57,-29.42 -7.2,-56.97 -7.2,-56.97 0.31,-9.63 1.47,-20.49 3.33,-32.24 -0.03,0.32 -0.04,0.47 -0.04,0.47 0,0 70.46,-53.57 86.38,-136.02 0.71,-3.68 1.56,-7.42 2.53,-11.18 0.3,-1.06 0.58,-2.11 0.85,-3.14 0.04,-0.17 0.08,-0.33 0.13,-0.5 7.04,-25.42 19.47,-52.46 33.15,-77.53 0.18,-0.33 0.29,-0.5 0.29,-0.5l-0.03 -0.01c29.36,-53.7 64.36,-98.24 64.36,-98.24 0,0 -0.01,0 -0.04,0 0.04,0 0.08,0 0.12,0 19.53,0 37.83,6.37 52.76,19.35 3.82,3.3 7.41,7.04 10.74,11.22 40.5,50.61 -2.17,262.5 -30.36,309.53 -18.25,30.43 -56.47,88.67 -97.64,121.29l0 0c-0.19,0.15 -0.39,0.32 -0.58,0.47 -17.83,14 -36.18,23.17 -53.69,23.17zm11.64 -421.2l0 0c28.13,-38.29 63.86,-59.69 97.17,-63.29 1.2,-0.14 2.39,-0.24 3.59,-0.32 -14.44,1.49 -52.36,10.71 -100.75,63.61l0 0z"/>
   <path class="fil45" d="M2427.86 1234.04c0,0 0.02,-0.15 0.04,-0.47 0.19,-1.97 0.98,-9.79 2.53,-21.68 6.9,-53.11 28.68,-187.19 78.03,-241.13l0 0c48.39,-52.9 86.31,-62.12 100.75,-63.61 2.09,-0.22 3.69,-0.26 4.76,-0.26 0.83,0 1.33,0.03 1.5,0.04 0.03,0 0.04,0 0.04,0 0,0 -35,44.54 -64.36,98.24l-53.82 -20.31 -25.96 189.51c0,0 34.57,-49.54 45.39,-87.53 -0.97,3.76 -1.82,7.5 -2.53,11.18 -15.92,82.44 -86.38,136.02 -86.38,136.02zm89.88 -150.83c9.18,-35.71 30.41,-72.85 33.15,-77.53 -13.68,25.07 -26.11,52.11 -33.15,77.53z"/>
   <g style="clip-path:url(#id26)">
    <image x="2510.68" y="998.52" width="47.5" height="94.72" xlink:href="robot1_Images\robot1_ImgID27.png"/>
   </g>
   <g style="clip-path:url(#id27)">
    <image x="2467.62" y="979.07" width="90.56" height="201.67" xlink:href="robot1_Images\robot1_ImgID28.png"/>
   </g>
   <path class="fil46" d="M2427.86 1213.74c0,0 -18.48,-40.5 -21.01,-118.59 -2.53,-78.1 15.98,-139.57 24.67,-150.41 8.68,-10.85 39.04,-9.4 53.52,7.96 14.46,17.36 24.86,103.21 24.86,103.21 0,0 -19.44,139.03 -82.03,157.83z"/>
   <path class="fil47" d="M2514.24 1098.03c0,0 36.18,119.28 123.3,167.03l11.2 -18.03c0,0 -88.7,-46.76 -131.13,-163.32l-3.37 14.32z"/>
   <path class="fil48" d="M2450.67 1003.14c-8.75,-1.03 -5.79,75.87 5.06,72.65 10.85,-3.24 7.24,-71.21 -5.06,-72.65z"/>
   <path class="fil49" d="M1116.19 1246.72c-1.96,10.67 228.96,13.22 234.39,-27.6 5.42,-40.82 -219.21,-54.83 -234.39,27.6z"/>
   <g style="clip-path:url(#id28)">
    <image x="1156.51" y="798.52" width="108.61" height="328.06" xlink:href="robot1_Images\robot1_ImgID29.png"/>
   </g>
   <g style="clip-path:url(#id29)">
    <image x="1410.68" y="1924.91" width="628.06" height="289.17" xlink:href="robot1_Images\robot1_ImgID30.png"/>
   </g>
   <path class="fil50" d="M2558.04 193.25c0,0 -1.36,326.96 23.44,485.29l253.15 99.78 -40.49 -70.93 245.85 -27.89c0,0 26.04,-367.67 34.72,-486.25 0,0 -193.81,-37.61 -516.68,0z"/>
   <path class="fil51" d="M2743.86 339.47c-0.97,19.14 -1.79,38.1 -2.47,56.9 -0.67,18.78 -1.17,37.65 -1.44,56.59 2.41,0.19 4.85,0.28 7.32,0.28 2.46,0 4.9,0 7.32,0 3.08,0 6.25,-0.04 9.48,-0.14 3.24,-0.08 6.5,-0.24 9.78,-0.43 0.19,-4.25 0.29,-8.43 0.29,-12.54 0,-4.1 0,-8.32 0,-12.68 0,-14.68 -0.14,-29.32 -0.43,-43.9 -0.3,-14.58 -0.78,-29.28 -1.44,-44.07l35.64 0c-1.74,23.29 -3.06,46.4 -3.99,69.36 -0.91,22.94 -1.37,46.06 -1.37,69.33 0,11.4 0.15,22.76 0.44,34.07 0.28,11.29 0.67,22.7 1.15,34.2l-33.04 0c0.49,-11.5 0.92,-22.94 1.31,-34.35 0.39,-11.4 0.76,-22.8 1.17,-34.19 -5.51,-0.29 -11,-0.57 -16.46,-0.81 -5.46,-0.24 -10.89,-0.36 -16.31,-0.36l-1.15 0 0 29.85c0,6.78 0,13.44 0,20.01 0,6.57 0.1,13.18 0.3,19.85l-33.2 0c0.49,-13.91 0.81,-27.65 0.94,-41.24 0.14,-13.57 0.22,-27.21 0.22,-40.94 0,-41.53 -0.87,-83.13 -2.61,-124.78l38.56 0z"/>
   <path class="fil52" d="M2882.4 545.56c-3.87,-0.19 -7.74,-0.33 -11.6,-0.43 -3.86,-0.1 -7.72,-0.14 -11.59,-0.14 -6.38,0 -12.75,0.11 -19.13,0.36 -6.37,0.24 -12.75,0.6 -19.14,1.09l0.29 -31.15c2.24,0.29 4.44,0.5 6.67,0.65 2.24,0.14 4.44,0.3 6.67,0.5 0.58,-14.97 1.14,-29.88 1.67,-44.71 0.54,-14.83 0.8,-29.68 0.8,-44.56 0,-9.96 -0.15,-19.8 -0.44,-29.5 -0.28,-9.71 -0.57,-19.49 -0.86,-29.35 -2.52,0 -5.07,0.06 -7.68,0.15 -2.61,0.08 -5.26,0.24 -7.97,0.43l0.29 -30.3c7.44,0.49 14.87,0.85 22.32,1.09 7.43,0.25 14.93,0.37 22.46,0.37 2.71,0 5.42,0 8.11,0 2.71,0 5.47,-0.1 8.26,-0.29l-0.86 28.83c-2.22,0 -4.43,-0.06 -6.6,-0.14 -2.18,-0.1 -4.37,-0.15 -6.59,-0.15 -1.36,17.39 -2.32,34.67 -2.89,51.81 -0.58,17.15 -0.87,34.43 -0.87,51.82 0,15.17 0.29,30.28 0.87,45.36 3.08,0 6.25,-0.06 9.48,-0.15 3.24,-0.1 6.49,-0.24 9.78,-0.43l-1.44 28.83z"/>
   <path class="fil53" d="M2931.96 337.46c-2.71,26.75 -4.83,53.76 -6.37,81.01 -1.54,27.24 -2.46,54.04 -2.75,80.43l-19.28 0.57c-0.68,-26.57 -1.57,-53.51 -2.68,-80.86 -1.11,-27.35 -2.39,-54.29 -3.85,-80.87l34.93 -0.28zm-2.6 197.96c0,2.32 -0.47,4.49 -1.39,6.53 -0.92,2.03 -2.13,3.79 -3.61,5.29 -1.5,1.49 -3.29,2.68 -5.37,3.54 -2.07,0.87 -4.26,1.3 -6.58,1.3 -2.32,0 -4.47,-0.43 -6.44,-1.3 -2,-0.86 -3.76,-2.06 -5.29,-3.54 -1.56,-1.5 -2.76,-3.26 -3.64,-5.29 -0.86,-2.04 -1.29,-4.21 -1.29,-6.53 0,-2.32 0.43,-4.47 1.29,-6.44 0.87,-1.98 2.08,-3.75 3.64,-5.29 1.53,-1.54 3.29,-2.75 5.29,-3.63 1.97,-0.86 4.13,-1.3 6.44,-1.3 2.32,0 4.51,0.44 6.58,1.3 2.08,0.88 3.87,2.09 5.37,3.63 1.49,1.54 2.7,3.31 3.61,5.29 0.91,1.97 1.39,4.13 1.39,6.44z"/>
   <g style="clip-path:url(#id30)">
    <image x="2217.62" y="538.79" width="144.72" height="158.61" xlink:href="robot1_Images\robot1_ImgID31.png"/>
   </g>
   <g style="clip-path:url(#id31)">
    <image x="1044.01" y="508.24" width="157.22" height="175.28" xlink:href="robot1_Images\robot1_ImgID32.png"/>
   </g>
   <path class="fil54" d="M1001.44 793.36c0,0 -127.89,143.67 -120.11,153.92 7.79,10.26 127.78,-139.07 120.11,-153.92z"/>
  </g>
 </g>
</svg>
