<?xml version="1.0" encoding="UTF-8"?>
<!DOCTYPE svg PUBLIC "-//W3C//DTD SVG 1.1//EN" "http://www.w3.org/Graphics/SVG/1.1/DTD/svg11.dtd">
<!-- Creator: CorelDRAW 2019 (64-Bit) -->
<svg xmlns="http://www.w3.org/2000/svg" xml:space="preserve" width="3.6in" height="3.6in" version="1.1" style="shape-rendering:geometricPrecision; text-rendering:geometricPrecision; image-rendering:optimizeQuality; fill-rule:evenodd; clip-rule:evenodd"
viewBox="0 0 3600 3600"
 xmlns:xlink="http://www.w3.org/1999/xlink">
 <defs>
  <style type="text/css">
   <![CDATA[
    .fil28 {fill:#2F95CD;fill-rule:nonzero}
    .fil12 {fill:#6340A2;fill-rule:nonzero}
    .fil0 {fill:#E5F6FF;fill-rule:nonzero}
    .fil2 {fill:#F2FBFF;fill-rule:nonzero}
    .fil35 {fill:#FF91FF;fill-rule:nonzero}
    .fil1 {fill:white;fill-rule:nonzero}
    .fil42 {fill:url(#id26)}
    .fil40 {fill:url(#id27)}
    .fil17 {fill:url(#id28)}
    .fil26 {fill:url(#id29)}
    .fil31 {fill:url(#id30)}
    .fil4 {fill:url(#id31)}
    .fil7 {fill:url(#id32)}
    .fil39 {fill:url(#id33)}
    .fil19 {fill:url(#id34)}
    .fil22 {fill:url(#id35)}
    .fil27 {fill:url(#id36)}
    .fil9 {fill:url(#id37)}
    .fil45 {fill:url(#id38)}
    .fil46 {fill:url(#id39)}
    .fil47 {fill:url(#id40)}
    .fil32 {fill:url(#id41)}
    .fil33 {fill:url(#id42)}
    .fil20 {fill:url(#id43)}
    .fil6 {fill:url(#id44)}
    .fil34 {fill:url(#id45)}
    .fil43 {fill:url(#id46)}
    .fil44 {fill:url(#id47)}
    .fil16 {fill:url(#id48)}
    .fil13 {fill:url(#id49)}
    .fil21 {fill:url(#id50)}
    .fil8 {fill:url(#id51)}
    .fil18 {fill:url(#id52)}
    .fil30 {fill:url(#id53)}
    .fil48 {fill:url(#id54)}
    .fil25 {fill:url(#id55)}
    .fil37 {fill:url(#id56)}
    .fil36 {fill:url(#id57)}
    .fil5 {fill:url(#id58)}
    .fil23 {fill:url(#id59)}
    .fil11 {fill:url(#id60)}
    .fil38 {fill:url(#id61)}
    .fil14 {fill:url(#id62)}
    .fil24 {fill:url(#id63)}
    .fil15 {fill:url(#id64)}
    .fil29 {fill:url(#id65)}
    .fil41 {fill:url(#id66)}
    .fil3 {fill:url(#id67)}
    .fil10 {fill:url(#id68)}
   ]]>
  </style>
   <clipPath id="id0">
    <path d="M1754.24 2447.65c0.48,-17.31 0.69,-33.28 0.69,-47.26 0,-20.13 -0.48,-36.19 -1.28,-46.39 1.06,0.24 2.18,0.5 3.24,0.7 2.18,0.7 4.42,1.34 6.6,1.98 0,0 20.49,4.76 52.21,4.76 30.76,0 72.07,-4.46 115.6,-21.97 -10.96,16.23 -27.68,40.98 -47.26,69.19l0 0c0,0 -2.98,-0.5 -8.73,-0.5 -17.35,0 -59.77,4.36 -121.09,39.48l0 0z"/>
   </clipPath>
   <clipPath id="id1">
    <path d="M2300.81 2107.68l-0.56 -0.2c-8.19,-2.06 -16.65,-5.16 -25.33,-9.08 8.18,3.3 16.86,5.98 25.54,7.84l0.35 1.44zm-72.24 -36.73c-25.04,-18.16 -50.37,-41.69 -73.86,-69.96 3.17,-16.51 6.07,-34.05 8.46,-52.21 0,0 -0.35,-7.43 -2.33,-19.61 0.21,-6.19 0.28,-12.59 0.28,-18.78 0.28,-162.82 -8.68,-311.82 -55.03,-427.38 13.19,-12.59 15.52,-21.87 15.52,-22.29 21.59,29.51 45.5,64.59 69.98,102.98l0 0.2c0,0 -33.65,251.35 -9.52,340.71 12.2,45.4 38.73,81.72 62.01,106.48 -11.36,32.19 -17.99,57.58 -17.99,57.58 0.78,0.82 1.55,1.44 2.47,2.27zm-154.35 -670.27c-2.89,-3.3 -5.85,-6.6 -8.89,-9.91 2.82,3.09 5.78,6.19 8.89,9.91l0 0z"/>
   </clipPath>
   <clipPath id="id2">
    <path d="M2300.5 2106.31c-8.72,-1.88 -17.37,-4.68 -25.6,-7.99l0 0c-14.99,-6.75 -30.63,-15.93 -46.33,-27.29l0 0c-0.89,-0.82 -1.69,-1.58 -2.45,-2.31 0,0 6.62,-25.47 17.97,-57.53 22.77,24.34 42.44,37.75 42.44,37.75l13.98 57.38 0 0z"/>
   </clipPath>
   <clipPath id="id3">
    <path d="M1573.56 2127.72c-39.98,-28.19 -82.77,-47.2 -124.05,-47.2 -1.24,0 -2.55,0 -3.8,0 -2.75,-16.43 -9.22,-60.25 -10.99,-111.15 0.07,-7.25 0.2,-14.66 0.46,-22.07 0.79,-24.17 3.86,-50.91 8.83,-79.58l23.94 -6.44c-0.52,-24.81 -1.63,-50.26 -3.2,-76.04 6.61,-15.79 12.3,-29.64 17.08,-41.88 10.14,-4.19 20.35,-10.15 30.56,-17.56 2.16,2.09 4.84,3.7 8.05,4.51 1.31,0.32 2.68,0.48 4.06,0.48 7.39,0 16.29,-4.51 26.17,-12.41l0 0 0 0c31.21,-24.97 72.04,-84.73 104.36,-146.59 -2.36,5.8 -66.61,164.47 -94.74,274.66 -33.89,132.74 13.02,280.46 13.28,281.27l0 0z"/>
   </clipPath>
   <clipPath id="id4">
    <path d="M2115.83 1958.84c-40.05,0 -105.24,-54.47 -196.14,-66.87 -17.91,-2.43 -34.85,-3.42 -50.71,-3.42 -30.75,0 -57.68,3.65 -80.64,7.24 -22.96,3.59 -41.83,7.19 -56.59,7.19 -10.94,0 -19.69,-1.97 -25.83,-7.42 -24.33,-21.09 83.1,-131.89 225.94,-131.89 18.45,0 37.73,1.85 57.27,6.09 135.59,29.03 163.06,165.33 151.04,178.54 -6.7,7.48 -14.76,10.55 -24.33,10.55l0 0z"/>
   </clipPath>
   <clipPath id="id5">
    <path d="M1823.85 2345.39c-13.16,0 -27.26,-1.32 -42.11,-4.55 -13.16,-2.86 -24.55,-6.53 -34.36,-10.6 -4.23,-9.88 -10.63,-21.87 -18.85,-35.19 -2.7,-4.37 -5.58,-8.92 -8.69,-13.55 15.21,1.98 35.13,6.74 57.68,17.5 38.7,18.37 77.3,25.95 109.83,25.95 10.28,0 19.91,-0.77 28.78,-2.16 0,0 -37.54,22.6 -92.28,22.6l0 0z"/>
   </clipPath>
   <clipPath id="id6">
    <path d="M2106.09 1482.98c-7.14,-17.77 -15.17,-34.76 -24.19,-50.92l-0.08 -0.14 -0.05 -0.24c-12.41,-22.23 -26.72,-42.81 -43.17,-61.52 5.31,0.49 14.61,7.87 26.74,20.65 3.06,3.27 6.02,6.53 8.91,9.76 13.48,15.35 29.64,35.85 47.41,60.22 -0.05,0.28 -2.33,9.66 -15.57,22.19l0 0z"/>
   </clipPath>
   <clipPath id="id7">
    <path d="M1844.16 1547.17c-61.92,0 -117.88,-9.63 -166.03,-23.21 11.3,-25.79 20.23,-50.42 25.56,-71.49l0 0 0 0c7.2,-29.02 7.32,-51.33 -3.1,-60.37 93.56,-8.92 191.71,-29.74 284.28,-61.54 9.8,3.04 19.85,8.4 29.91,15.26 8.31,7.69 16.25,15.83 23.82,24.37l0 0c16.5,18.68 30.77,39.24 43.18,61.47l0 0.26 0.13 0.13c9.06,16.16 17,33.16 24.2,50.94 -23.95,22.63 -83.39,55.53 -230.06,63.35 -10.8,0.58 -21.35,0.84 -31.89,0.84l0 0z"/>
   </clipPath>
   <clipPath id="id8">
    <path d="M1631.23 1431.11c-2.14,-0.47 -4.39,-0.9 -6.7,-1.29 0.61,-0.86 1.2,-1.72 1.83,-2.58l0 0c0.02,-0.03 0.04,-0.06 0.05,-0.08 7.74,-10.88 15.66,-21.38 23.72,-31.44 7.71,-0.37 15.45,-0.83 23.25,-1.39 -11.9,6.85 -26.43,19.41 -42.14,36.78l0 0z"/>
   </clipPath>
   <clipPath id="id9">
    <path d="M1659.48 1497.82c5.91,-25.72 5.24,-45.98 -4.43,-55.74 -4.93,-4.93 -13.06,-8.55 -23.82,-10.97 15.72,-17.37 30.23,-29.92 42.14,-36.8 9.02,-0.64 18.06,-1.37 27.18,-2.25 10.5,9.13 10.3,31.4 3.1,60.41l0 0c-13.11,10.23 -28.28,25.63 -44.17,45.35l0 0z"/>
   </clipPath>
   <clipPath id="id10">
    <path d="M1654.25 1516.71c-101.89,-33.17 -163.08,-81.55 -163.08,-81.55 0,0 61.41,-5.8 112.9,-7.48 7.44,0.4 14.31,1.11 20.45,2.13 2.36,0.4 4.56,0.82 6.71,1.28 10.75,2.41 18.88,6.02 23.81,11 9.7,9.75 10.38,30.02 4.46,55.71 -1.42,6.03 -3.15,12.37 -5.24,18.9l0 0z"/>
   </clipPath>
   <clipPath id="id11">
    <path d="M1205.67 1139.88c0,0 -3.3,-12 -7.61,-30.15 -4.2,-18.37 -7.88,-37.34 -10.86,-56.83 5,-21.41 9.95,-41.05 14.43,-57.87 14.48,2 27.36,2.59 37.1,2.59 11.55,0 18.63,-0.81 18.63,-0.81 46.41,-26.6 80.8,-63.87 106.24,-105.87 -0.58,2.52 -44.87,199.3 -157.92,248.94l0 0z"/>
   </clipPath>
   <clipPath id="id12">
    <path d="M1706.81 1272.47c-43.93,0 -113.43,-8.93 -151.59,-59.86 -58.53,-78.25 -31.56,-138.71 -13.04,-143.32 0.37,-0.12 0.74,-0.18 1.11,-0.18 19.71,0 77.94,113.94 124.32,154.56 47.19,41.4 78.98,46.2 78.98,46.2 0,0 -16.23,2.61 -39.79,2.61l0 0z"/>
   </clipPath>
   <clipPath id="id13">
    <path d="M1208.56 969.7c6.06,-21.48 10.06,-34.34 10.06,-34.34 -5.7,-22.07 -17.45,-35.94 -30.28,-44.72 120.22,-21.24 149.16,-80.03 149.16,-80.03 0,0 -15.14,127.02 -108.46,154.48 -6.94,2.04 -13.71,3.59 -20.48,4.61zm-104.9 -28.42c-32.23,-25.46 -56.1,-65.19 -67.68,-111.5 0,0 17.81,49.96 83.17,62.04 -11.04,14.89 -14.69,34.24 -15.5,49.47l0 0z"/>
   </clipPath>
   <clipPath id="id14">
    <path d="M1007.53 624.84c-0.19,0 -0.28,0 -0.38,0 -8.64,-1.59 14.53,-157.82 115.75,-169.35 5.03,-0.61 10.07,-0.87 15,-0.87 95.62,0 183.17,100.36 182.41,115.99 -0.19,4.67 -7.02,6.51 -18.23,6.51 -20.89,0 -57.07,-6.36 -94.39,-12.76 -37.32,-6.36 -75.78,-12.71 -101.22,-12.71 -4.84,0 -9.21,0.2 -13.01,0.72 -53.84,7.13 -77.1,72.48 -85.93,72.48l0 0z"/>
   </clipPath>
   <clipPath id="id15">
    <path d="M1513.93 867.37c-8.82,0 -16.41,-3.86 -22.78,-12.32 -46.05,-62.96 31.84,-451.87 312.06,-495.38 22.78,-3.57 45.07,-5.2 67.11,-5.2 246.91,0 428.65,208.33 412.98,233.73 -2.2,3.71 -8.57,5.2 -18.37,5.35 -30.13,-31.04 -67.6,-51.08 -97.98,-51.08 -9.31,0 -17.88,1.78 -25.47,5.94 -9.06,5.05 -16.41,14.85 -21.56,27.92 -28.66,-2.97 -59.52,-5.2 -90.87,-5.2 -65.15,0 -133.25,9.2 -192.28,39.5 -40.42,20.79 -80.1,52.27 -117.57,86.13 -2.69,-0.15 -5.39,-0.3 -8.08,-0.3 -8.82,0 -18.13,1.19 -27.19,3.71 -39.19,10.69 -65.4,53.46 -75.44,104.09 -38.46,36.68 -70.79,63.11 -94.55,63.11l0 0z"/>
   </clipPath>
   <clipPath id="id16">
    <path d="M2263.88 593.54c-19.96,0 -53.39,-5.59 -94.43,-11.2 -15.55,-2.12 -32.22,-4.24 -49.64,-6.06 5.39,-13.08 12.7,-22.89 21.79,-27.87 7.49,-4.11 16.09,-6 25.4,-6 30.26,0 67.87,20.12 97.86,51.13 -0.36,0 -0.67,0 -0.98,0l0 0z"/>
   </clipPath>
   <clipPath id="id17">
    <path d="M1608.35 804.23c10.07,-50.61 36.35,-93.35 75.66,-104.08 9.09,-2.52 18.19,-3.66 27.19,-3.66 2.71,0 5.42,0.1 8.09,0.3 -40.21,36.49 -77.78,75.77 -110.94,107.43l0 0z"/>
   </clipPath>
   <clipPath id="id18">
    <path d="M1090.58 1786.69l-30.09 -83.88 104.21 -114.08c2.18,23.13 -0.94,46.5 -6.91,68.67l-37.57 85.86c-15.8,26.54 -29.65,43.44 -29.65,43.44l0 0z"/>
   </clipPath>
   <clipPath id="id19">
    <path d="M1115.7 1861.34c0,-0.17 -0.09,-0.17 -0.09,-0.17l-21.31 -58.56 25.97 -59.42c13.64,-22.84 28.74,-53.06 37.54,-85.86l171.04 -391.01c8.54,47.39 57.73,330.22 57.73,330.22 -80.51,144.76 -270.36,264.28 -270.87,264.8l0 0z"/>
   </clipPath>
   <clipPath id="id20">
    <path d="M1120.23 1743.25l37.56 -85.89c-8.82,32.74 -23.91,62.93 -37.56,85.89l0 0z"/>
   </clipPath>
   <clipPath id="id21">
    <path d="M1944.76 1268.88c0,0 117.74,-25.7 197.96,-129.01 60.39,-77.8 137.23,-87.39 171.37,-87.39 11.15,0 17.8,1.02 17.8,1.02 0,0 -152.1,215.32 -387.13,215.38l0 0z"/>
   </clipPath>
   <clipPath id="id22">
    <path d="M1689.19 2033.93l-3.54 -6.76c0.68,1.15 1.94,3.44 3.54,6.76l0 0z"/>
   </clipPath>
   <clipPath id="id23">
    <path d="M1675.64 2817.85c-64.89,0 -310.93,-528.35 -310.93,-677.52 0,-17.85 3.53,-30.16 11.16,-35.7 0,0 89.6,415.91 198.78,523.63 16.96,16.62 32.9,24 47.82,24 81.06,0 129.11,-217.49 112.83,-321.31 -1.94,-12.31 -4.21,-24.42 -6.72,-35.91 14.23,23.39 23.11,42.47 24.48,53.56 1.25,9.23 1.82,27.49 1.82,51.7 0.11,127.01 -18.21,416.11 -78.9,417.55 -0.11,0 -0.23,0 -0.34,0l0 0z"/>
   </clipPath>
   <clipPath id="id24">
    <path d="M2441.54 2095.81c-0.51,-0.76 -1.04,-1.54 -1.54,-2.31 0.54,0.81 1.06,1.58 1.54,2.31l0 0z"/>
   </clipPath>
   <clipPath id="id25">
    <path d="M2373.87 2205.26l-19.37 -220.31c0,0 65.17,78.66 85.5,108.54 0.5,0.79 1.02,1.58 1.55,2.3 0.06,0.13 0.14,0.26 0.19,0.33 0,0 -12.93,92.81 -67.87,109.13l0 0z"/>
   </clipPath>
  <linearGradient id="id26" gradientUnits="userSpaceOnUse" x1="1173.93" y1="1841.5" x2="1354.67" y2="1841.5">
   <stop offset="0" style="stop-opacity:1; stop-color:#B31A8F"/>
   <stop offset="1" style="stop-opacity:1; stop-color:#92117E"/>
  </linearGradient>
  <linearGradient id="id27" gradientUnits="userSpaceOnUse" x1="1168.51" y1="1450.57" x2="1144.14" y2="1335.45">
   <stop offset="0" style="stop-opacity:1; stop-color:#B31A8F"/>
   <stop offset="1" style="stop-opacity:1; stop-color:#FE117E"/>
  </linearGradient>
  <linearGradient id="id28" gradientUnits="userSpaceOnUse" x1="1752.55" y1="1535.43" x2="1873.26" y2="1309.74">
   <stop offset="0" style="stop-opacity:1; stop-color:#4D3499"/>
   <stop offset="1" style="stop-opacity:1; stop-color:#482B8C"/>
  </linearGradient>
  <linearGradient id="id29" gradientUnits="userSpaceOnUse" x1="2283" y1="778.2" x2="2126.52" y2="565.48">
   <stop offset="0" style="stop-opacity:1; stop-color:#45FFCD"/>
   <stop offset="1" style="stop-opacity:1; stop-color:#22E0FF"/>
  </linearGradient>
  <linearGradient id="id30" gradientUnits="userSpaceOnUse" x1="1599.98" y1="1333.2" x2="1595.99" y2="1283.85">
   <stop offset="0" style="stop-opacity:1; stop-color:#D93DE3"/>
   <stop offset="1" style="stop-opacity:1; stop-color:#FF6DBA"/>
  </linearGradient>
  <linearGradient id="id31" gradientUnits="userSpaceOnUse" x1="1677.42" y1="2602.96" x2="1858.61" y2="2251.97">
   <stop offset="0" style="stop-opacity:1; stop-color:#CBC1F7"/>
   <stop offset="1" style="stop-opacity:1; stop-color:#D4BEF1"/>
  </linearGradient>
  <linearGradient id="id32" gradientUnits="userSpaceOnUse" x1="1682.2" y1="2338.47" x2="1946.08" y2="1287.68">
   <stop offset="0" style="stop-opacity:1; stop-color:#CBC1F7"/>
   <stop offset="1" style="stop-opacity:1; stop-color:#E8DCF7"/>
  </linearGradient>
  <linearGradient id="id33" gradientUnits="userSpaceOnUse" xlink:href="#id26" x1="1362.59" y1="1480.07" x2="1427.34" y2="1330.72">
  </linearGradient>
  <linearGradient id="id34" gradientUnits="userSpaceOnUse" x1="1985.8" y1="476.96" x2="1949.36" y2="174.53">
   <stop offset="0" style="stop-opacity:1; stop-color:#B9ACF4"/>
   <stop offset="1" style="stop-opacity:1; stop-color:#E1D1F5"/>
  </linearGradient>
  <linearGradient id="id35" gradientUnits="userSpaceOnUse" x1="1946.23" y1="1333.84" x2="1946.23" y2="328.57">
   <stop offset="0" style="stop-opacity:1; stop-color:#0665BD"/>
   <stop offset="1" style="stop-opacity:1; stop-color:#1A1F77"/>
  </linearGradient>
  <linearGradient id="id36" gradientUnits="userSpaceOnUse" xlink:href="#id29" x1="1818.35" y1="973.14" x2="1637.6" y2="731.1">
  </linearGradient>
  <linearGradient id="id37" gradientUnits="userSpaceOnUse" x1="2073.78" y1="2178.1" x2="1673.71" y2="1888.56">
   <stop offset="0" style="stop-opacity:1; stop-color:#BE9DEA"/>
   <stop offset="1" style="stop-opacity:1; stop-color:#9E8CEF"/>
  </linearGradient>
  <linearGradient id="id38" gradientUnits="userSpaceOnUse" xlink:href="#id32" x1="2487.26" y1="2333.15" x2="2360.03" y2="1941.24">
  </linearGradient>
  <linearGradient id="id39" gradientUnits="userSpaceOnUse" xlink:href="#id37" x1="2391.39" y1="2329.3" x2="2438.69" y2="1947.27">
  </linearGradient>
  <linearGradient id="id40" gradientUnits="userSpaceOnUse" xlink:href="#id32" x1="2416.74" y1="2163.97" x2="2273.26" y2="1987.3">
  </linearGradient>
  <linearGradient id="id41" gradientUnits="userSpaceOnUse" xlink:href="#id37" x1="983.48" y1="1544.71" x2="970.95" y2="1460.1">
  </linearGradient>
  <linearGradient id="id42" gradientUnits="userSpaceOnUse" xlink:href="#id30" x1="1070.11" y1="1879.72" x2="1328.75" y2="1232.58">
  </linearGradient>
  <linearGradient id="id43" gradientUnits="userSpaceOnUse" xlink:href="#id32" x1="1720.27" y1="1420.9" x2="1847.31" y2="254.89">
  </linearGradient>
  <linearGradient id="id44" gradientUnits="userSpaceOnUse" xlink:href="#id37" x1="2363.86" y1="2089.27" x2="2243.17" y2="1921.48">
  </linearGradient>
  <linearGradient id="id45" gradientUnits="userSpaceOnUse" x1="1224.11" y1="1648.78" x2="1565.2" y2="1416.64">
   <stop offset="0" style="stop-opacity:1; stop-color:#A242EA"/>
   <stop offset="1" style="stop-opacity:1; stop-color:#FE117E"/>
  </linearGradient>
  <linearGradient id="id46" gradientUnits="userSpaceOnUse" x1="1240.43" y1="1861.26" x2="1240.43" y2="1266.3">
   <stop offset="0" style="stop-opacity:1; stop-color:#E5F6FF"/>
   <stop offset="1" style="stop-opacity:1; stop-color:#F2FBFF"/>
  </linearGradient>
  <linearGradient id="id47" gradientUnits="userSpaceOnUse" xlink:href="#id32" x1="1117.96" y1="1137.16" x2="1117.96" y2="935.69">
  </linearGradient>
  <linearGradient id="id48" gradientUnits="userSpaceOnUse" x1="1794.74" y1="1552.3" x2="1831.07" y2="1292.88">
   <stop offset="0" style="stop-opacity:1; stop-color:#B2CAF2"/>
   <stop offset="1" style="stop-opacity:1; stop-color:#A7A7DD"/>
  </linearGradient>
  <linearGradient id="id49" gradientUnits="userSpaceOnUse" xlink:href="#id32" x1="1396.74" y1="2735.35" x2="1687.08" y2="2149.97">
  </linearGradient>
  <linearGradient id="id50" gradientUnits="userSpaceOnUse" xlink:href="#id48" x1="1271.15" y1="1139.9" x2="1271.15" y2="890.95">
  </linearGradient>
  <linearGradient id="id51" gradientUnits="userSpaceOnUse" x1="1466.17" y1="1835.55" x2="1616.09" y2="1829.8">
   <stop offset="0" style="stop-opacity:1; stop-color:#CACAED"/>
   <stop offset="1" style="stop-opacity:1; stop-color:#D7F1FF"/>
  </linearGradient>
  <linearGradient id="id52" gradientUnits="userSpaceOnUse" xlink:href="#id29" x1="2162.84" y1="552.09" x2="2002" y2="248.57">
  </linearGradient>
  <linearGradient id="id53" gradientUnits="userSpaceOnUse" x1="1613.84" y1="1403.85" x2="1611.87" y2="1275">
   <stop offset="0" style="stop-opacity:1; stop-color:#DD1A8F"/>
   <stop offset="1" style="stop-opacity:1; stop-color:#FE117E"/>
  </linearGradient>
  <linearGradient id="id54" gradientUnits="userSpaceOnUse" xlink:href="#id32" x1="2416.23" y1="2153.67" x2="2268" y2="2007.69">
  </linearGradient>
  <linearGradient id="id55" gradientUnits="userSpaceOnUse" xlink:href="#id29" x1="1181.06" y1="989.27" x2="1181.06" y2="439.11">
  </linearGradient>
  <linearGradient id="id56" gradientUnits="userSpaceOnUse" xlink:href="#id32" x1="999.63" y1="1688.65" x2="1055.92" y2="1489.54">
  </linearGradient>
  <linearGradient id="id57" gradientUnits="userSpaceOnUse" xlink:href="#id37" x1="1040.02" y1="1723.48" x2="1068.79" y2="1542.18">
  </linearGradient>
  <linearGradient id="id58" gradientUnits="userSpaceOnUse" xlink:href="#id31" x1="1996.52" y1="1967.97" x2="2374.01" y2="1514.99">
  </linearGradient>
  <linearGradient id="id59" gradientUnits="userSpaceOnUse" xlink:href="#id34" x1="1255.74" y1="997.59" x2="1255.74" y2="411.33">
  </linearGradient>
  <linearGradient id="id60" gradientUnits="userSpaceOnUse" x1="1672.46" y1="1574.49" x2="1539.27" y2="1543.75">
   <stop offset="0" style="stop-opacity:1; stop-color:#8879EA"/>
   <stop offset="1" style="stop-opacity:1; stop-color:#9E8CEF"/>
  </linearGradient>
  <linearGradient id="id61" gradientUnits="userSpaceOnUse" xlink:href="#id30" x1="1338.22" y1="1440.25" x2="1437.11" y2="1375.65">
  </linearGradient>
  <linearGradient id="id62" gradientUnits="userSpaceOnUse" xlink:href="#id32" x1="1328.74" y1="1756.85" x2="1415.27" y2="1405.91">
  </linearGradient>
  <linearGradient id="id63" gradientUnits="userSpaceOnUse" xlink:href="#id37" x1="1203.26" y1="975.33" x2="1203.26" y2="414.05">
  </linearGradient>
  <linearGradient id="id64" gradientUnits="userSpaceOnUse" xlink:href="#id48" x1="1775.61" y1="1548.89" x2="1850.2" y2="1296.28">
  </linearGradient>
  <linearGradient id="id65" gradientUnits="userSpaceOnUse" xlink:href="#id37" x1="1239.41" y1="1460.45" x2="1415.17" y2="941.76">
  </linearGradient>
  <radialGradient id="id66" gradientUnits="userSpaceOnUse" gradientTransform="matrix(0.852425 -0.175331 -0.16909 -0.883866 407 2828)" cx="1162.24" cy="1393" r="44.92" fx="1162.24" fy="1393">
   <stop offset="0" style="stop-opacity:1; stop-color:#45FFCD"/>
   <stop offset="1" style="stop-opacity:1; stop-color:#22E0FF"/>
  </radialGradient>
  <radialGradient id="id67" gradientUnits="userSpaceOnUse" gradientTransform="matrix(0.999626 -0 -0 -0.220731 1 3588)" cx="1649.32" cy="2939.52" r="566.45" fx="1649.32" fy="2939.52">
   <stop offset="0" style="stop-opacity:1; stop-color:#DECEF4"/>
   <stop offset="0.388235" style="stop-opacity:1; stop-color:#EFDFFA"/>
   <stop offset="1" style="stop-opacity:1; stop-color:white"/>
  </radialGradient>
  <radialGradient id="id68" gradientUnits="userSpaceOnUse" gradientTransform="matrix(-1.42571 -0.364931 0.364031 -1.42924 3563 6156)" xlink:href="#id66" cx="1808.29" cy="2262.52" r="272.07" fx="1808.29" fy="2262.52">
  </radialGradient>
 </defs>
 <g id="Layer_x0020_1">
  <metadata id="CorelCorpID_0Corel-Layer"/>
  <path class="fil0" d="M959.72 413.31c-532.33,170.63 -726.93,1006.89 -339.57,1457.11 387.39,450.21 885.61,398.78 1176.91,592.24 362.87,240.98 724.97,297.11 1011.8,-186.87 396.43,-668.96 -976.76,-2142.08 -1849.14,-1862.47z"/>
  <path class="fil0" d="M3039.3 1352.35c-46.47,-4.72 -94,1.42 -137.72,17.79 -7.06,2.64 -14.21,5.65 -19.54,10.96 -10.35,10.26 -11.61,26.81 -8.28,40.98 8.19,34.68 40.96,61.03 76.36,65.11 35.41,4.08 71.63,-12.44 94.75,-39.56 12.71,-14.89 22.06,-33.94 20.33,-53.44 -1.72,-19.5 -17.2,-38.41 -36.76,-39.21 -4.24,4.61 -1.06,13.53 5.13,14.4l5.74 -17.04z"/>
  <path class="fil0" d="M942.59 391.63c-46.47,-4.72 -94,1.42 -137.72,17.78 -7.06,2.64 -14.2,5.67 -19.54,10.97 -10.35,10.25 -11.61,26.8 -8.28,40.99 8.19,34.68 40.96,61.03 76.36,65.1 35.41,4.09 71.63,-12.43 94.75,-39.54 12.71,-14.89 22.06,-33.94 20.33,-53.44 -1.72,-19.5 -17.21,-38.42 -36.76,-39.21 -4.24,4.61 -1.06,13.52 5.12,14.41l5.74 -17.04z"/>
  <path class="fil0" d="M2932.48 1448.9c-13.89,-13.17 -34.87,-18.36 -53.31,-13.19 -4.4,18.58 -2.07,39.89 10.89,53.9 12.93,14.03 37.94,16.98 50.85,2.92 12.89,-14.07 3.11,-42.57 -15.97,-42.21l7.54 -1.42z"/>
  <path class="fil0" d="M2762.11 1466.9c-1.78,-8.71 -7.83,-16.44 -15.87,-20.22 -1.99,3.44 -4.03,7.01 -4.52,10.97 -0.48,3.96 0.96,8.43 4.46,10.32 4.8,2.58 10.56,-0.57 15.06,-3.64 -0.26,1.47 -0.54,2.94 -0.82,4.43l1.7 -1.86z"/>
  <path class="fil0" d="M2795.67 1456.38c2.61,-0.67 5.44,-0.5 7.96,0.44 -3.47,6 -11.25,7.65 -18.15,8.33 -3.85,0.37 -8.61,0.15 -10.35,-3.29 -1.21,-2.4 -0.29,-5.29 -0.58,-7.96 -0.56,-5.36 -5.72,-11.06 -2.38,-15.28 1.89,-2.39 5.7,-2.4 8.32,-0.87 2.64,1.54 4.36,4.21 6,6.78 3.56,5.6 7.11,11.21 10.68,16.81l-1.5 -4.96z"/>
  <path class="fil0" d="M2361.13 1571.11c-5.26,-1.87 -11.11,-4.26 -13.22,-9.43 -1.78,-4.35 1.93,-10.24 5.97,-10.24 0.78,0 1.56,0.2 2.31,0.68l2.19 -2.59c5.17,5.74 6.32,14.74 2.75,21.58z"/>
  <path class="fil0" d="M2375.72 1750.44c2.03,1.67 1.81,5.08 0.06,7.04 -1.74,1.96 -4.56,2.64 -7.17,2.61 -1.54,-0.01 -3.13,-0.25 -4.46,-1.03 -3.09,-1.78 -3.96,-6.44 -1.82,-9.29 2.14,-2.86 6.68,-3.43 9.54,-1.3 2.86,2.14 3.68,6.51 1.9,9.59l1.94 -7.62z"/>
  <path class="fil0" d="M2721 1539.51c4.9,-2.71 4.3,-11.37 -0.92,-13.37 -2.46,1.56 -4.76,3.6 -5.76,6.32 -1.03,2.72 -0.38,6.22 2.08,7.78 2.46,1.56 6.47,0 6.63,-2.89l-2.03 2.17z"/>
  <path class="fil0" d="M2821.67 1464.77c0.83,-6.65 -1.62,-13.63 -6.41,-18.32 -3.49,4.24 -6.97,8.49 -10.46,12.72 -1.64,2 -3.35,4.12 -3.75,6.68 -0.81,5 4.32,9.67 9.36,9.31 5.06,-0.36 9.22,-4.72 10.43,-9.64l0.83 -0.75z"/>
  <path class="fil0" d="M2432.09 1704.59c-2.65,0 -5.25,-1.87 -6.21,-4.4 1.28,-1.36 2.56,-2.71 3.81,-4.07l0.31 -0.61c0.75,-0.71 1.74,-1.03 2.75,-1.03 1.96,0 4.02,1.21 4.65,3.13 0.97,2.89 -1.26,6.31 -4.26,6.89 -0.35,0.06 -0.7,0.09 -1.04,0.09z"/>
  <path class="fil0" d="M2748.54 1509.79c0.82,3.54 6.15,3.79 9.02,1.56 2.86,-2.22 4.36,-5.81 6.97,-8.32 2.69,-2.6 6.54,-3.93 10.28,-3.56 2.15,0.22 4.47,1.21 5.33,3.21 0.58,1.33 0.37,2.87 0.15,4.32 -1.17,7.07 -3.28,14.25 -7.99,19.64 -4.69,5.4 -12.5,8.6 -19.24,6.17 -4.68,-1.69 -8.3,-6.04 -9.11,-10.96 -0.81,-4.92 1.24,-10.21 5.13,-13.31l-0.54 1.25z"/>
  <path class="fil0" d="M2751.34 1412.98c0.26,-4.51 -4.11,-8.46 -8.64,-8.54 -4.53,-0.09 -8.7,3.01 -10.82,7 -0.93,1.76 -1.37,4.28 0.2,5.48 1.08,0.83 2.61,0.63 3.96,0.37 5.49,-1.03 10.96,-2.04 16.43,-3.07l-1.13 -1.25z"/>
  <path class="fil0" d="M2549.13 1479.41c4.17,8.25 -2.39,19.73 -11.6,20.36 -2.26,-6.76 -4.56,-14.03 -2.69,-20.92 1.83,-6.89 9.69,-12.61 16.14,-9.53 1.68,3.81 3.36,7.61 5.06,11.43l-6.9 -1.35z"/>
  <path class="fil0" d="M3253.93 1350.91c1.86,-0.93 4.24,0.57 4.89,2.56 0.65,1.98 0.07,4.15 -0.74,6.08 -0.65,1.56 -1.47,3.13 -2.75,4.22 -2.56,2.17 -6.67,1.96 -9.26,-0.15 -2.59,-2.12 -3.64,-5.82 -2.94,-9.09 0.32,-1.6 1.11,-3.21 2.49,-4.06 1.4,-0.85 3.48,-0.67 4.39,0.69l3.93 -0.25z"/>
  <path class="fil0" d="M2673.88 1519.93c-1.4,-1.32 -2.83,-2.64 -4.24,-3.96 -2.3,1.91 -4.78,4.12 -5.17,7.08 -0.4,2.97 2.82,6.29 5.4,4.79l2.09 -2.61c1.67,-3.2 3.35,-6.38 5.01,-9.56l-3.1 4.25z"/>
  <path class="fil0" d="M2578.34 1559.63c-4.15,-2.32 -8.46,-4.69 -13.2,-5.18 -4.74,-0.48 -10.04,1.4 -12.12,5.68 -1.03,2.14 -1.15,4.63 -0.64,6.93 1.59,6.97 9.61,11.74 16.49,9.76 6.87,-1.97 11.18,-10.25 8.82,-17l0.65 -0.19z"/>
  <path class="fil0" d="M2533.81 1536.44c-3.22,0.24 -6.43,0.47 -9.67,0.7 -0.43,2.43 -0.32,4.97 0.32,7.36 4.54,1.44 9.98,-1.59 11.15,-6.22l-1.8 -1.85z"/>
  <path class="fil0" d="M2684.61 1267.85c-17.67,6.09 -33.91,16.29 -47.04,29.59 -2.11,2.15 -4.21,4.44 -5.26,7.26 -2.03,5.47 0.29,11.69 3.89,16.28 8.79,11.24 25.13,15.29 38.68,10.83 13.54,-4.46 23.92,-16.54 27.78,-30.28 2.11,-7.56 2.32,-16.04 -1.59,-22.83 -3.91,-6.79 -12.71,-11.07 -19.94,-8.07 -0.76,2.39 1.89,5.08 4.28,4.37l-0.78 -7.15z"/>
  <path class="fil0" d="M2901.16 1587.77c-6.64,-5.93 -16.13,-8.48 -24.82,-6.69 0.47,3.94 0.98,8.03 2.94,11.48 1.98,3.46 5.82,6.18 9.78,5.6 5.37,-0.79 8.1,-6.79 9.86,-11.93 0.67,1.35 1.33,2.69 2,4.03l0.24 -2.49z"/>
  <path class="fil0" d="M2848.05 1623.85c-2.39,-0.67 -5.02,-1.3 -7.32,-0.36 -2.22,0.92 -3.61,3.11 -4.92,5.14 -3.57,5.53 -7.64,10.72 -12.14,15.53 10.88,-1.29 21.75,-2.57 32.64,-3.85l2.59 0.04c2.92,0.86 3.18,4.91 5.17,7.21 2.89,3.38 8.37,2.08 12.26,-0.07 27.69,-15.31 -15.2,-20.02 -28.29,-23.64z"/>
  <path class="fil0" d="M2947.59 1550.38c-3.33,-5.82 -9.47,-9.94 -16.12,-10.83 -0.24,5.48 -0.5,10.97 -0.74,16.46 -0.13,2.58 -0.22,5.31 0.98,7.6 2.35,4.48 9.25,5.15 13.08,1.83 3.83,-3.31 4.54,-9.31 2.57,-13.96l0.22 -1.1z"/>
  <path class="fil0" d="M2860.24 1551.05c-2.48,-3.78 -8.36,-4.31 -12.04,-1.67 -3.67,2.63 -5.15,7.61 -4.46,12.09 0.31,1.97 1.44,4.25 3.44,4.28 1.37,0.02 2.47,-1.07 3.39,-2.08 3.78,-4.1 7.54,-8.19 11.3,-12.29l-1.64 -0.32z"/>
  <path class="fil0" d="M2869.27 1473.01c-4.15,-2.32 -8.47,-4.69 -13.19,-5.18 -4.74,-0.48 -10.06,1.42 -12.13,5.7 -1.04,2.11 -1.17,4.61 -0.64,6.92 1.57,6.97 9.59,11.74 16.47,9.76 6.87,-1.96 11.18,-10.25 8.83,-17l0.65 -0.2z"/>
  <path class="fil0" d="M2631.43 1436.68c-3.89,2.87 -3.14,8.82 -1.72,13.43 1.42,4.61 2.94,10.15 -0.17,13.83 -0.86,1.01 -2.11,1.79 -3.43,1.68 -3.37,-0.32 -3.56,-5.08 -4.76,-8.25 -0.96,-2.54 -3.08,-4.43 -4.6,-6.68 -3.63,-5.36 -3.46,-12.98 0.37,-18.18 3.11,-1.53 7.1,-1.04 9.75,1.18 2.63,2.25 3.75,6.1 2.75,9.42l1.81 -6.43z"/>
  <path class="fil0" d="M2558.34 1531.2c-3.87,2.86 -3.14,8.82 -1.72,13.43 1.43,4.61 2.94,10.15 -0.17,13.83 -0.85,1.01 -2.11,1.79 -3.43,1.67 -3.38,-0.31 -3.56,-5.07 -4.76,-8.24 -0.97,-2.54 -3.07,-4.43 -4.6,-6.68 -3.61,-5.36 -3.46,-12.98 0.39,-18.18 3.09,-1.54 7.08,-1.06 9.74,1.2 2.62,2.24 3.75,6.09 2.75,9.4l1.81 -6.43z"/>
  <path class="fil0" d="M2469.33 1536.45c-3.92,-0.26 -7.9,0.37 -11.53,1.87l-1.61 0.97 -0.58 3.47c0.76,2.89 3.59,5.02 6.58,5.26 2.98,0.25 5.98,-1.24 7.86,-3.58 1.03,-1.28 1.76,-2.9 1.57,-4.54 -0.21,-1.64 -1.56,-3.2 -3.21,-3.21l0.49 1.21 0.43 -1.46z"/>
  <path class="fil0" d="M3029.67 1441.22c-6.64,-5.9 -16.12,-8.46 -24.82,-6.69 0.49,3.97 0.99,8.04 2.96,11.5 1.98,3.47 5.82,6.18 9.75,5.59 5.39,-0.79 8.11,-6.78 9.87,-11.93 0.67,1.35 1.33,2.68 2,4.04l0.24 -2.52z"/>
  <path class="fil0" d="M3040.26 1524c2.3,-5.1 -3.36,-11.68 -8.75,-10.17 -1.03,2.72 -1.65,5.74 -0.83,8.53 0.82,2.78 3.44,5.2 6.35,4.97 2.89,-0.24 5.17,-3.87 3.57,-6.29l-0.33 2.96z"/>
  <path class="fil0" d="M2896.51 1487.51c2.31,-5.09 -3.37,-11.68 -8.75,-10.15 -1.03,2.71 -1.65,5.74 -0.83,8.52 0.82,2.79 3.43,5.19 6.33,4.97 2.89,-0.24 5.18,-3.87 3.57,-6.28l-0.32 2.94z"/>
  <path class="fil0" d="M3044.51 1483.7c2.78,2.33 7.19,-0.65 8.15,-4.15 0.94,-3.5 0.01,-7.26 0.6,-10.85 0.59,-3.7 2.89,-7.07 6.09,-9 1.88,-1.11 4.31,-1.72 6.2,-0.63 1.26,0.72 2.03,2.07 2.69,3.36 3.31,6.36 5.93,13.37 5.4,20.51 -0.53,7.14 -4.87,14.36 -11.72,16.46 -4.78,1.44 -10.28,0.14 -13.86,-3.32 -3.59,-3.46 -5.13,-8.9 -3.86,-13.72l0.31 1.33z"/>
  <path class="fil0" d="M2622.04 1484.88c2.78,2.35 7.2,-0.64 8.15,-4.14 0.94,-3.5 0.01,-7.26 0.6,-10.85 0.59,-3.69 2.89,-7.07 6.09,-9 1.88,-1.11 4.32,-1.72 6.2,-0.63 1.26,0.72 2.03,2.07 2.69,3.36 3.31,6.36 5.93,13.37 5.4,20.51 -0.53,7.14 -4.87,14.38 -11.72,16.46 -4.78,1.44 -10.26,0.14 -13.86,-3.32 -3.59,-3.46 -5.12,-8.91 -3.86,-13.72l0.3 1.32z"/>
  <path class="fil0" d="M2614.63 1438.4c2.78,2.35 7.18,-0.65 8.15,-4.15 0.94,-3.5 0.01,-7.26 0.59,-10.85 0.6,-3.69 2.89,-7.07 6.1,-8.98 1.86,-1.13 4.31,-1.74 6.18,-0.64 1.26,0.74 2.04,2.07 2.71,3.37 3.3,6.35 5.92,13.36 5.39,20.5 -0.53,7.14 -4.86,14.38 -11.72,16.46 -4.76,1.46 -10.28,0.13 -13.85,-3.32 -3.6,-3.46 -5.14,-8.91 -3.87,-13.72l0.32 1.33z"/>
  <path class="fil0" d="M2687.08 1442.02c2.78,2.35 7.18,-0.64 8.14,-4.14 0.96,-3.51 0.02,-7.26 0.6,-10.86 0.59,-3.68 2.89,-7.07 6.11,-8.99 1.86,-1.12 4.29,-1.72 6.18,-0.64 1.26,0.74 2.03,2.08 2.71,3.37 3.29,6.36 5.9,13.36 5.39,20.5 -0.53,7.14 -4.87,14.37 -11.72,16.46 -4.76,1.46 -10.28,0.14 -13.87,-3.31 -3.57,-3.46 -5.11,-8.9 -3.85,-13.74l0.32 1.33z"/>
  <path class="fil0" d="M2557.81 1933.33c2.76,2.35 7.19,-0.64 8.14,-4.15 0.96,-3.5 0.02,-7.26 0.6,-10.85 0.61,-3.69 2.9,-7.07 6.09,-8.98 1.88,-1.13 4.32,-1.74 6.21,-0.64 1.25,0.74 2.02,2.08 2.7,3.37 3.29,6.35 5.92,13.36 5.39,20.5 -0.53,7.15 -4.87,14.37 -11.72,16.46 -4.76,1.46 -10.26,0.14 -13.86,-3.32 -3.59,-3.44 -5.11,-8.9 -3.86,-13.72l0.32 1.33z"/>
  <path class="fil0" d="M2990.81 1536.54c-1.93,-0.21 -3.86,-0.42 -5.78,-0.62 -0.69,2.91 -1.35,6.15 0.11,8.76 1.46,2.61 6.03,3.35 7.2,0.58l0.09 -3.33c-0.57,-3.54 -1.12,-7.1 -1.69,-10.65l0.07 5.26z"/>
  <path class="fil0" d="M2655.08 1718.37c-4.15,-2.33 -8.46,-4.71 -13.18,-5.19 -4.74,-0.49 -10.06,1.41 -12.13,5.69 -1.04,2.13 -1.15,4.63 -0.64,6.92 1.57,6.97 9.6,11.74 16.47,9.76 6.86,-1.96 11.17,-10.24 8.82,-17l0.65 -0.18z"/>
  <path class="fil0" d="M2911.73 1412.9c6.68,-1.35 13.03,7.02 9.93,13.08 -3.35,1.75 -7.06,2.78 -10.82,3 -1.36,-3.94 -1.18,-8.39 0.48,-12.21l0.41 -3.87z"/>
  <path class="fil0" d="M2594.74 1727.34c-2.1,0 -4.1,-0.81 -5.22,-2.6 -2.41,-3.83 0.46,-8.9 -0.5,-13.3 -0.96,-4.41 -5.68,-8.07 -4.53,-12.42 0.69,-2.64 3.48,-4.29 6.2,-4.53 0.32,-0.03 0.64,-0.04 0.96,-0.04 2.39,0 4.75,0.76 7.03,1.53l-0.71 0c2.18,0.75 4.15,2.46 5.26,4.52 1.92,3.5 1.97,7.68 1.76,11.65 -0.24,4.46 -0.89,9.22 -3.92,12.5 -1.58,1.72 -4.03,2.7 -6.35,2.7z"/>
  <path class="fil0" d="M2724.74 1485.41c-3.22,-18.88 -16.92,-35.6 -34.76,-42.5 -14.65,12.25 -25.54,30.69 -23.58,49.68 1.97,18.99 20.21,36.33 38.97,32.79 18.76,-3.54 28,-32.22 12.48,-43.36l6.89 3.39z"/>
  <path class="fil0" d="M2906.9 1369.09c0.64,2.56 -1.6,5.17 -4.15,5.68 -2.58,0.52 -5.24,-0.61 -7.31,-2.21 -1.24,-0.93 -2.36,-2.07 -2.96,-3.48 -1.42,-3.29 0.68,-7.53 4.11,-8.54 3.43,-1 7.41,1.26 8.42,4.7 1.02,3.41 -0.94,7.4 -4.24,8.82l6.13 -4.96z"/>
  <path class="fil0" d="M2819.01 1426.52c-2.72,4 -0.04,9.36 2.82,13.24 2.87,3.89 6.14,8.61 4.42,13.12 -0.46,1.24 -1.39,2.39 -2.67,2.71 -3.31,0.83 -5.04,-3.61 -7.24,-6.21 -1.75,-2.07 -4.37,-3.15 -6.54,-4.76 -5.19,-3.86 -7.56,-11.11 -5.67,-17.29 2.42,-2.47 6.35,-3.33 9.58,-2.09 3.22,1.24 5.57,4.5 5.71,7.96l-0.42 -6.67z"/>
  <path class="fil0" d="M2730.98 1552.63c-1.83,0.33 -3.67,0.65 -5.5,0.97 -0.83,2.94 0.49,6.46 3.25,7.79 2.74,1.33 6.56,-0.06 7.53,-2.96 0.96,-2.91 -1.65,-6.44 -4.68,-6.13l-0.6 0.32z"/>
  <path class="fil0" d="M2817.37 1491.23c2.06,0.36 3.04,2.98 2.39,4.96 -0.67,1.99 -2.43,3.37 -4.22,4.43 -1.47,0.88 -3.06,1.63 -4.75,1.74 -3.33,0.21 -6.52,-2.43 -7.32,-5.67 -0.8,-3.26 0.57,-6.85 3.08,-9.06 1.22,-1.08 2.8,-1.9 4.43,-1.75 1.64,0.15 3.19,1.56 3.1,3.18l3.29 2.17z"/>
  <path class="fil0" d="M2880.13 1638.41c9.9,-16.39 10.48,-38 1.48,-54.91 -19.08,-0.32 -39.39,6.52 -50.33,22.15 -10.93,15.65 -8.47,40.71 8.03,50.31 16.5,9.58 42.25,-6.07 37.82,-24.63l3 7.07z"/>
  <path class="fil0" d="M1985.45 2659.54c9.9,-16.39 10.48,-38 1.48,-54.89 -19.08,-0.32 -39.39,6.52 -50.32,22.15 -10.93,15.64 -8.48,40.71 8.03,50.29 16.5,9.6 42.24,-6.06 37.81,-24.61l3 7.06z"/>
  <path class="fil0" d="M2968.8 1517.55c-4.74,-2.99 -10.4,4.37 -8.29,9.54 2.13,5.17 7.96,7.56 13.22,9.43 3.57,-6.85 2.41,-15.83 -2.74,-21.57l-2.2 2.6z"/>
  <path class="fil0" d="M2845.76 1355.79c-1.82,0.32 -3.64,0.64 -5.47,0.97 -0.86,2.93 0.47,6.46 3.22,7.78 2.75,1.33 6.58,-0.04 7.54,-2.94 0.97,-2.9 -1.65,-6.46 -4.7,-6.12l-0.59 0.32z"/>
  <path class="fil0" d="M2846.55 1457.24c-20.07,-2.64 -40.78,-0.57 -59.93,5.97 -3.09,1.07 -6.24,2.28 -8.62,4.52 -4.61,4.32 -5.36,11.47 -4.09,17.67 3.1,15.14 16.97,26.97 32.28,29.19 15.29,2.22 31.22,-4.48 41.58,-15.96 5.7,-6.29 10,-14.43 9.49,-22.92 -0.5,-8.47 -6.97,-16.87 -15.44,-17.46 -1.91,1.94 -0.64,5.85 2.06,6.3l2.68 -7.32z"/>
  <path class="fil0" d="M2784.51 1785.55c-13.89,-13.17 -34.89,-18.36 -53.31,-13.18 -4.39,18.57 -2.06,39.86 10.89,53.89 12.94,14.03 37.96,16.98 50.85,2.92 12.89,-14.07 3.11,-42.57 -15.97,-42.21l7.54 -1.42z"/>
  <path class="fil0" d="M2501.95 1560.58c-6.63,-5.92 -16.11,-8.47 -24.81,-6.7 0.47,3.96 0.99,8.03 2.96,11.5 1.97,3.46 5.8,6.18 9.75,5.6 5.39,-0.8 8.11,-6.79 9.88,-11.94 0.67,1.35 1.33,2.7 2,4.04l0.22 -2.5z"/>
  <path class="fil0" d="M2448.85 1596.68c-2.4,-0.67 -5.01,-1.32 -7.32,-0.38 -2.22,0.93 -3.61,3.13 -4.92,5.14 -3.56,5.53 -7.64,10.74 -12.15,15.53 10.9,-1.28 21.78,-2.56 32.65,-3.85l2.6 0.06c2.92,0.85 3.18,4.9 5.17,7.2 2.91,3.36 8.38,2.07 12.26,-0.08 27.68,-15.29 -15.19,-20.01 -28.29,-23.62z"/>
  <path class="fil0" d="M2797.33 1424c-3.19,0.21 -6.4,0.42 -9.61,0.64 0.85,6.36 5.19,12.78 11.54,13.72 6.35,0.96 13.04,-6.21 10.06,-11.89 -1.83,-3.52 -6.15,-8.29 -2.61,-10.07l-9.37 7.6z"/>
  <path class="fil0" d="M2596.13 1613.41c2.6,-0.67 5.42,-0.52 7.94,0.44 -3.47,6 -11.26,7.65 -18.15,8.33 -3.83,0.37 -8.61,0.14 -10.35,-3.31 -1.21,-2.39 -0.29,-5.28 -0.57,-7.96 -0.57,-5.36 -5.74,-11.06 -2.39,-15.28 1.89,-2.39 5.71,-2.4 8.32,-0.86 2.63,1.53 4.36,4.19 6,6.76 3.56,5.61 7.13,11.21 10.68,16.82l-1.48 -4.96z"/>
  <path class="fil0" d="M2619.11 1715.88c-4.74,-2.98 -10.41,4.38 -8.29,9.56 2.14,5.17 7.97,7.56 13.22,9.43 3.57,-6.85 2.42,-15.85 -2.74,-21.58l-2.19 2.59z"/>
  <path class="fil0" d="M2499.01 1687.72c-0.06,0 -0.11,0 -0.15,0 -1.56,-0.01 -3.12,-0.26 -4.47,-1.03 -3.07,-1.79 -3.94,-6.44 -1.79,-9.31 1.26,-1.69 3.38,-2.58 5.49,-2.58 1.44,0 2.89,0.43 4.06,1.29 1.83,1.36 2.82,3.64 2.83,5.92l1 -3.94c2.03,1.65 1.82,5.08 0.06,7.04 -1.71,1.92 -4.43,2.61 -7.02,2.61z"/>
  <path class="fil0" d="M2512.55 1643.34c2.29,-5.1 -3.38,-11.68 -8.75,-10.15 -1.03,2.72 -1.65,5.74 -0.83,8.52 0.82,2.79 3.44,5.21 6.33,4.97 2.9,-0.24 5.18,-3.86 3.58,-6.28l-0.33 2.94z"/>
  <path class="fil0" d="M2548.4 1523.19c-3.32,-5.82 -9.46,-9.94 -16.11,-10.83 -0.26,5.5 -0.5,10.99 -0.76,16.46 -0.11,2.58 -0.2,5.3 1.01,7.6 2.35,4.48 9.25,5.15 13.07,1.85 3.82,-3.32 4.54,-9.31 2.58,-13.97l0.21 -1.1z"/>
  <path class="fil0" d="M2547.83 1757.22c-2.54,0 -5.42,-1.6 -5.21,-4.1l1.46 -2.94c2.94,-3.93 5.86,-7.85 8.79,-11.78l1.79 1.85 -0.58 -0.42c2.9,2.57 4.07,6.92 2.85,10.6 -1.22,3.68 -4.75,6.46 -8.63,6.76 -0.15,0.02 -0.3,0.03 -0.47,0.03z"/>
  <path class="fil0" d="M2528.26 1842.29c-0.09,0 -0.18,0 -0.26,-0.02 -3.39,-0.29 -3.56,-5.07 -4.76,-8.24 -0.99,-2.54 -3.1,-4.43 -4.6,-6.68 -3.63,-5.36 -3.46,-12.98 0.37,-18.18 1.21,-0.6 2.56,-0.89 3.9,-0.89 2.11,0 4.21,0.71 5.82,2.07 1.46,1.24 2.46,2.97 2.89,4.83 -1.9,3.14 -1.19,7.81 -0.04,11.58 1.43,4.61 2.94,10.15 -0.15,13.83 -0.81,0.94 -1.94,1.68 -3.17,1.68zm3.24 -22.52l0.09 -0.33c-0.03,0.11 -0.06,0.22 -0.09,0.33zm0.09 -0.33c0.36,-1.39 0.36,-2.85 0.03,-4.25 0.43,-0.71 0.97,-1.32 1.68,-1.85l-1.71 6.1z"/>
  <path class="fil0" d="M2629.34 1414.5c-0.96,-1.75 -1.31,-4.32 -2.06,-6.28 -0.96,-2.54 -3.09,-4.43 -4.6,-6.67 -3.63,-5.36 -3.46,-12.99 0.37,-18.2 1.21,-0.59 2.57,-0.89 3.92,-0.89 2.1,0 4.21,0.72 5.82,2.08 1.46,1.24 2.44,2.96 2.89,4.8 -1.92,3.15 -1.21,7.82 -0.04,11.6 1.32,4.31 2.74,9.4 0.41,13.07 -0.13,-0.1 -0.25,-0.18 -0.39,-0.25 -0.69,-0.4 -1.46,-0.57 -2.25,-0.57 -1.36,0 -2.76,0.5 -3.93,1.21 -0.04,0.03 -0.1,0.06 -0.14,0.08z"/>
  <path class="fil0" d="M2632.31 1416.48c-0.08,0 -0.18,-0.01 -0.26,-0.01 -1.29,-0.13 -2.13,-0.89 -2.71,-1.97 0.04,-0.03 0.09,-0.06 0.14,-0.08 1.17,-0.71 2.57,-1.21 3.93,-1.21 0.79,0 1.56,0.17 2.25,0.57 0.14,0.07 0.26,0.15 0.39,0.25 -0.18,0.26 -0.36,0.53 -0.57,0.78 -0.81,0.93 -1.94,1.68 -3.17,1.68z"/>
  <path class="fil0" d="M2635.56 1393.95l0.1 -0.37c-0.03,0.13 -0.07,0.25 -0.1,0.37zm0.1 -0.37c0.35,-1.37 0.35,-2.83 0.03,-4.22 0.42,-0.69 0.97,-1.3 1.67,-1.83l-1.69 6.06z"/>
  <path class="fil0" d="M2486.05 1808.37c-1.47,0 -2.96,-0.53 -3.99,-1.57 -2.15,-2.17 -2.25,-5.93 -0.47,-8.42 1.82,0.31 3.65,0.6 5.49,0.91l0.68 -0.11c2.97,0.69 4.26,4.91 2.39,7.33 -0.96,1.25 -2.53,1.86 -4.09,1.86z"/>
  <path class="fil0" d="M2516.8 1603.05c2.78,2.35 7.18,-0.65 8.15,-4.15 0.94,-3.5 0.02,-7.26 0.6,-10.85 0.59,-3.68 2.89,-7.07 6.09,-8.99 1.88,-1.12 4.31,-1.72 6.18,-0.64 1.26,0.74 2.04,2.08 2.71,3.37 3.31,6.36 5.93,13.36 5.39,20.5 -0.53,7.15 -4.86,14.38 -11.71,16.47 -4.78,1.44 -10.29,0.13 -13.86,-3.33 -3.59,-3.44 -5.12,-8.91 -3.87,-13.71l0.32 1.32z"/>
  <path class="fil0" d="M2461.05 1523.85c-2.49,-3.78 -8.35,-4.3 -12.03,-1.67 -3.68,2.64 -5.15,7.63 -4.46,12.1 0.29,1.97 1.43,4.25 3.43,4.26 1.36,0.01 2.46,-1.07 3.39,-2.07 3.76,-4.1 7.56,-8.21 11.32,-12.29l-1.65 -0.33z"/>
  <path class="fil0" d="M2672.09 1657.73c4.17,8.25 -2.37,19.74 -11.59,20.36 -2.26,-6.78 -4.56,-14.03 -2.7,-20.91 1.85,-6.89 9.7,-12.61 16.14,-9.54 1.68,3.82 3.36,7.63 5.06,11.43l-6.91 -1.33z"/>
  <path class="fil0" d="M2461.67 1666.37c-1.62,0 -3.43,-0.87 -4.25,-2.35 -1.44,-2.61 -0.79,-5.85 -0.1,-8.75 1.92,0.2 3.85,0.41 5.78,0.61l-0.07 -5.25c0.57,3.54 1.13,7.1 1.7,10.65l-0.1 3.33c-0.52,1.21 -1.68,1.75 -2.96,1.75z"/>
  <path class="fil0" d="M2932.54 1452.56c-4.14,-2.32 -8.44,-4.69 -13.18,-5.18 -4.74,-0.48 -10.04,1.41 -12.12,5.7 -1.03,2.13 -1.17,4.61 -0.64,6.92 1.58,6.97 9.61,11.74 16.47,9.76 6.87,-1.96 11.17,-10.25 8.83,-17l0.64 -0.2z"/>
  <path class="fil0" d="M2796.73 1700.2c-3.21,0.24 -6.44,0.47 -9.67,0.71 -0.43,2.43 -0.33,4.97 0.31,7.36 4.56,1.44 10.01,-1.59 11.17,-6.22l-1.8 -1.85z"/>
  <path class="fil0" d="M3181.2 1419.15c2.03,1.65 1.82,5.09 0.07,7.04 -1.75,1.94 -4.57,2.64 -7.18,2.61 -1.54,-0.03 -3.12,-0.26 -4.46,-1.03 -3.1,-1.79 -3.94,-6.44 -1.82,-9.3 2.14,-2.86 6.68,-3.42 9.54,-1.29 2.86,2.12 3.68,6.5 1.91,9.59l1.94 -7.63z"/>
  <path class="fil0" d="M2729.26 1657.06c-3.24,0.24 -6.44,0.47 -9.68,0.71 -0.43,2.43 -0.32,4.97 0.32,7.36 4.54,1.44 10,-1.6 11.17,-6.24l-1.8 -1.83z"/>
  <path class="fil0" d="M2700.77 1393.15c-1.97,-3.07 -7.07,-1.5 -9.01,1.57 -1.94,3.06 -2.15,6.93 -3.76,10.2 -1.65,3.35 -4.85,5.9 -8.47,6.79 -2.13,0.53 -4.63,0.39 -6.11,-1.21 -0.98,-1.08 -1.32,-2.58 -1.58,-4.03 -1.29,-7.04 -1.72,-14.5 0.87,-21.18 2.61,-6.67 8.89,-12.31 16.06,-12.28 4.97,0.02 9.85,2.89 12.26,7.25 2.41,4.35 2.28,10.01 -0.35,14.25l0.1 -1.36z"/>
  <path class="fil0" d="M2858.22 1504.54c2.22,1.58 4.53,3.2 7.19,3.76 2.68,0.58 5.83,-0.18 7.28,-2.5 2.39,-3.83 -1.06,-8.71 -0.68,-13.19 0.37,-4.5 4.6,-8.52 3.43,-12.87 -1.15,-4.31 -7.22,-5.56 -11.08,-3.31 -3.86,2.24 -5.89,6.61 -7.42,10.79 -1.37,3.74 -2.56,7.75 -1.75,11.65 0.79,3.9 4.19,7.53 8.17,7.25l-5.14 -1.58z"/>
  <path class="fil0" d="M2649.85 1520.19c16.24,-2.89 31.79,-9.57 45.06,-19.37 2.14,-1.57 4.28,-3.29 5.57,-5.61 2.53,-4.49 1.36,-10.24 -1.15,-14.72 -6.14,-10.98 -19.82,-16.76 -32.25,-14.72 -12.41,2.04 -23.11,11.17 -28.35,22.61 -2.88,6.29 -4.21,13.67 -1.74,20.13 2.48,6.46 9.58,11.37 16.29,9.75 0.98,-1.97 -0.94,-4.69 -3.14,-4.39l-0.29 6.33z"/>
  <path class="fil0" d="M2666.95 1401.74c-0.63,-2.42 -1.35,-5.01 -3.32,-6.54 -1.92,-1.47 -4.49,-1.59 -6.9,-1.71 -6.57,-0.35 -13.1,-1.29 -19.52,-2.81 6.52,8.81 13.04,17.6 19.57,26.4l1.26 2.28c0.71,2.96 -2.68,5.19 -3.7,8.06 -1.47,4.19 2.36,8.31 6.15,10.61 27.06,16.42 9.83,-23.14 6.44,-36.29z"/>
  <path class="fil0" d="M2647.93 1516.61c-1.81,-0.43 -3.61,-0.86 -5.42,-1.29 -1.94,2.36 -2.13,6.13 -0.13,8.43 1.99,2.32 6.06,2.56 8.1,0.28 2.03,-2.28 1.04,-6.57 -1.87,-7.47l-0.68 0.06z"/>
  <path class="fil0" d="M2623.72 1430.95c2.04,-4.04 -0.42,-9.4 -4.53,-11.28 -4.13,-1.88 -9.18,-0.68 -12.72,2.14 -1.56,1.25 -2.96,3.37 -2,5.11 0.68,1.19 2.17,1.61 3.48,1.9 5.44,1.24 10.87,2.47 16.31,3.71l-0.54 -1.58z"/>
  <path class="fil0" d="M2626.24 1490.81c1.85,-8.7 -0.67,-18.18 -6.53,-24.86 -3.19,2.39 -6.48,4.86 -8.5,8.29 -2.03,3.43 -2.47,8.11 0,11.25 3.36,4.28 9.92,3.65 15.25,2.62l-2.5 3.74 2.28 -1.04z"/>
  <path class="fil0" d="M2607.95 1526.68c1.87,1.93 3.14,4.46 3.56,7.11 -6.92,-0.02 -12.24,-5.96 -16.25,-11.6 -2.24,-3.15 -4.41,-7.39 -2.28,-10.61 1.49,-2.25 4.44,-2.89 6.63,-4.46 4.36,-3.15 6.74,-10.47 12.07,-9.68 3.02,0.46 4.91,3.75 4.88,6.79 -0.02,3.04 -1.46,5.87 -2.89,8.57 -3.08,5.88 -6.18,11.75 -9.26,17.64l3.56 -3.76z"/>
  <path class="fil0" d="M2662.48 1440.4c3.39,-5.78 3.92,-13.15 1.39,-19.36 -4.89,2.5 -9.76,5.02 -14.65,7.53 -2.31,1.18 -4.71,2.46 -6.1,4.64 -2.72,4.26 0.13,10.58 4.91,12.26 4.78,1.68 10.33,-0.68 13.4,-4.71l1.06 -0.36z"/>
  <path class="fil0" d="M2577.5 1452.7c-0.67,3.57 4.12,5.91 7.64,5 3.53,-0.92 6.32,-3.6 9.71,-4.88 3.5,-1.32 7.58,-1 10.83,0.82 1.91,1.07 3.65,2.88 3.64,5.06 -0.02,1.46 -0.81,2.79 -1.58,4.01 -3.88,6.03 -8.65,11.78 -15.11,14.89 -6.46,3.08 -14.89,2.92 -20.09,-2 -3.64,-3.4 -5.22,-8.83 -4.03,-13.67 1.2,-4.83 5.19,-8.88 9.98,-10.17l-0.98 0.93z"/>
  <path class="fil0" d="M2784.61 1562.68c-0.06,-4.76 -0.14,-9.68 -2.06,-14.03 -1.94,-4.35 -6.24,-8.01 -10.97,-7.69 -2.36,0.17 -4.6,1.29 -6.33,2.9 -5.25,4.82 -5.39,14.17 -0.28,19.14 5.12,4.98 14.46,4.59 19.14,-0.79l0.5 0.47z"/>
  <path class="fil0" d="M2798.01 1457.33c1.83,-8.69 -0.67,-18.19 -6.54,-24.86 -3.2,2.37 -6.49,4.85 -8.5,8.28 -2.03,3.44 -2.47,8.13 0,11.25 3.37,4.28 9.91,3.65 15.26,2.62l-2.52 3.75 2.29 -1.04z"/>
  <path class="fil0" d="M2594.59 1537.06c-4.07,2.6 -3.74,8.57 -2.65,13.28 1.1,4.71 2.22,10.33 -1.14,13.79 -0.92,0.94 -2.24,1.64 -3.54,1.43 -3.35,-0.54 -3.18,-5.32 -4.18,-8.57 -0.76,-2.6 -2.75,-4.64 -4.11,-6.99 -3.22,-5.58 -2.52,-13.19 1.67,-18.09 3.21,-1.32 7.15,-0.56 9.63,1.86 2.47,2.42 3.33,6.35 2.08,9.57l2.25 -6.28z"/>
  <path class="fil0" d="M2963.81 1581.33c-1.71,0.75 -3.41,1.49 -5.11,2.22 -0.15,3.06 1.97,6.17 4.96,6.82 2.97,0.67 6.39,-1.58 6.64,-4.63 0.26,-3.04 -3.1,-5.89 -5.98,-4.86l-0.5 0.44z"/>
  <path class="fil0" d="M2696 1471.01c-0.78,-1.76 -1.56,-3.54 -2.33,-5.32 -2.87,0.85 -6,1.89 -7.56,4.44 -1.53,2.58 0.09,6.9 3.08,6.56l2.93 -1.58c2.81,-2.26 5.6,-4.52 8.41,-6.76l-4.53 2.67z"/>
  <path class="fil1" d="M930.63 2151.41c29.57,11.82 61.87,16.72 93.63,14.2 5.11,-0.41 10.37,-1.06 14.86,-3.53 8.72,-4.78 12.65,-15.39 13.14,-25.32 1.14,-24.26 -15.41,-47.69 -37.85,-57.01 -22.43,-9.33 -49.29,-5.29 -69.54,8.12 -11.13,7.39 -20.83,18.13 -23.37,31.22 -2.52,13.11 4.07,28.42 16.76,32.61 3.62,-2.22 3.22,-8.65 -0.67,-10.4l-6.96 10.1z"/>
  <path class="fil1" d="M1018.79 2108.18c6.64,11.25 19.41,18.58 32.47,18.65 6.36,-11.35 8.83,-25.75 2.98,-37.37 -5.86,-11.63 -21.69,-18.26 -32.79,-11.46 -11.1,6.8 -10.03,27.32 2.54,30.67l-5.21 -0.48z"/>
  <path class="fil1" d="M1133.87 2128.38c-0.49,6.04 2.04,12.24 6.6,16.22 1.96,-1.87 3.94,-3.83 5.01,-6.35 1.07,-2.5 0.97,-5.7 -0.98,-7.6 -2.65,-2.6 -7.03,-1.61 -10.56,-0.44l1.38 -2.75 -1.44 0.91z"/>
  <path class="fil1" d="M1109.87 2128.95c-1.83,-0.04 -3.65,-0.68 -5.13,-1.78 3.4,-3.3 8.82,-2.91 13.47,-2.06 2.58,0.47 5.67,1.52 6.15,4.1 0.33,1.81 -0.79,3.53 -1.11,5.33 -0.64,3.61 1.68,8.32 -1.31,10.46 -1.69,1.21 -4.19,0.52 -5.63,-1 -1.43,-1.48 -2.07,-3.56 -2.67,-5.56 -1.26,-4.33 -2.56,-8.68 -3.83,-13.03l0.04 3.53z"/>
  <path class="fil1" d="M1440.43 2015.04c-1.04,-1.46 -0.25,-3.67 1.26,-4.62 1.51,-0.94 3.48,-0.88 5.21,-0.36l2.72 1.51c1.7,1.75 1.38,4.96 -0.56,6.43 -1.94,1.47 -5.04,1 -6.51,-0.94 -1.46,-1.93 -1.18,-4.96 0.57,-6.65l-2.69 4.64z"/>
  <path class="fil1" d="M1174.44 2088.48c-3.7,0.86 -4.94,6.65 -1.9,8.94 1.89,-0.56 3.79,-1.46 4.97,-3.06 1.18,-1.6 1.4,-4.02 0.08,-5.49 -1.32,-1.48 -4.24,-1.22 -4.89,0.65l1.74 -1.06z"/>
  <path class="fil1" d="M1094.41 2118.58c-1.79,4.21 -1.5,9.24 0.75,13.22 3.1,-2.14 6.18,-4.26 9.25,-6.37 1.46,-1.01 2.97,-2.08 3.72,-3.68 1.46,-3.13 -1.02,-7.15 -4.39,-7.86 -3.39,-0.72 -6.93,1.36 -8.64,4.36l-0.7 0.33z"/>
  <path class="fil2" d="M1393.35 2041.13c-1.59,0 -3.24,-1.37 -3.3,-3.04 -0.1,-1.98 1.82,-3.72 3.8,-3.72 0.08,0 0.18,0 0.28,0.01 2.07,0.18 3.78,2.11 3.94,4.18l-3.25 1.94 -0.3 0.35c-0.38,0.2 -0.76,0.28 -1.17,0.28z"/>
  <path class="fil1" d="M1150.8 2102.8c0.14,-2.47 -3.3,-3.64 -5.6,-2.71 -2.3,0.92 -3.96,2.99 -6.14,4.14 -2.26,1.21 -5.04,1.35 -7.42,0.4 -1.36,-0.56 -2.71,-1.63 -2.89,-3.11l0.72 -2.85c2.08,-4.42 4.82,-8.72 8.92,-11.39 4.1,-2.65 9.8,-3.28 13.76,-0.42 2.75,1.98 4.31,5.51 3.92,8.89 -0.39,3.37 -2.72,6.46 -5.86,7.75l0.58 -0.71z"/>
  <path class="fil1" d="M1130.8 2165.73c-1.03,2.91 1.1,6.32 4.06,7.22 2.94,0.92 6.26,-0.33 8.41,-2.56l0.9 -3.63 -2.53 -0.98c-3.78,-0.36 -7.57,-0.72 -11.33,-1.08l0.5 1.03z"/>
  <path class="fil1" d="M1275.83 2160.16c-1.18,-6.19 5.28,-12.5 11.43,-11.18 0.21,4.87 0.35,10.06 -2.17,14.22 -2.5,4.17 -8.72,6.46 -12.36,3.22 -0.41,-2.81 -0.78,-5.63 -1.17,-8.44l4.26 2.18z"/>
  <path class="fil1" d="M789.65 2112.05c-1.39,0.26 -2.67,-1.17 -2.72,-2.58 -0.06,-1.43 0.75,-2.74 1.63,-3.85l2.61 -2.25c2.07,-0.94 4.74,-0.04 6.03,1.83 1.31,1.87 1.29,4.5 0.24,6.51l-2.42 2.2 -2.72 -1.28 -2.64 -0.58z"/>
  <path class="fil1" d="M1201.65 2110.16l2.06 3.4c1.86,-0.82 3.89,-1.8 4.71,-3.68 0.81,-1.86 -0.67,-4.64 -2.65,-4.14l-1.86 1.32c-1.7,1.76 -3.39,3.54 -5.08,5.32l2.83 -2.22z"/>
  <path class="fil1" d="M1271.74 2102.08c2.28,2.3 4.65,4.67 7.67,5.87 3.02,1.21 6.86,0.97 9.02,-1.46 1.1,-1.2 1.64,-2.81 1.72,-4.42 0.28,-4.86 -4.08,-9.49 -8.96,-9.49 -4.89,-0.01 -9.25,4.61 -8.99,9.49l-0.46 0z"/>
  <path class="fil1" d="M1296.58 2125.65c2.17,0.44 4.32,0.91 6.47,1.35 0.74,-1.52 1.14,-3.2 1.18,-4.89 -2.71,-1.79 -6.86,-0.82 -8.49,2l0.83 1.54z"/>
  <path class="fil1" d="M1147.29 2273.41c12.72,-0.67 25.29,-4.32 36.39,-10.57 1.8,-1 3.6,-2.11 4.82,-3.76 2.36,-3.21 2.01,-7.72 0.51,-11.42 -3.65,-9 -13.6,-14.74 -23.32,-14.36 -9.72,0.41 -18.79,6.36 -23.9,14.65 -2.79,4.54 -4.52,10.07 -3.25,15.26 1.29,5.2 6.26,9.64 11.57,9.03 0.94,-1.42 -0.28,-3.69 -1.99,-3.67l-0.83 4.83z"/>
  <path class="fil1" d="M1065.4 2023.02c3.24,5.12 8.97,8.58 15.01,9.04 0.43,-2.68 0.86,-5.44 0.22,-8.08 -0.64,-2.64 -2.65,-5.15 -5.35,-5.5 -3.68,-0.48 -6.6,2.92 -8.71,5.97l-0.56 -3.03 -0.63 1.6z"/>
  <path class="fil1" d="M1107 2009.33c1.44,0.89 3.04,1.81 4.72,1.61 1.64,-0.18 2.96,-1.36 4.19,-2.43 3.38,-2.96 7.02,-5.61 10.88,-7.9 -7.38,-1.21 -14.75,-2.42 -22.13,-3.61l-1.69 -0.52c-1.75,-1.11 -1.17,-3.82 -2.03,-5.69 -1.26,-2.75 -5.11,-2.94 -8.06,-2.26 -21.03,4.83 6.21,15.98 14.11,20.8z"/>
  <path class="fil1" d="M1027.94 2038.81c1.1,4.44 4.33,8.29 8.53,10.13 1.19,-3.56 2.39,-7.1 3.59,-10.65 0.56,-1.67 1.13,-3.43 0.76,-5.17 -0.69,-3.37 -5.09,-5.11 -8.22,-3.67 -3.14,1.46 -4.74,5.25 -4.32,8.68l-0.35 0.68z"/>
  <path class="fil1" d="M803.97 2038.98l3.26 -1.96c-0.18,-2.07 -1.88,-3.99 -3.94,-4.17 -2.09,-0.19 -4.18,1.63 -4.1,3.71 0.1,2.08 2.61,3.71 4.47,2.76l0.31 -0.35z"/>
  <path class="fil1" d="M1085.31 2054.77c0.93,2.94 4.68,4.41 7.58,3.36 2.9,-1.04 4.82,-4.03 5.19,-7.1 0.18,-1.35 -0.14,-3.06 -1.44,-3.44l-2.62 0.72c-3.24,1.98 -6.47,3.96 -9.72,5.94l1.02 0.51z"/>
  <path class="fil1" d="M1064.76 2104.24c2.28,2.31 4.67,4.67 7.68,5.87 3,1.21 6.85,0.96 9.02,-1.46 1.07,-1.19 1.61,-2.81 1.71,-4.42 0.29,-4.86 -4.1,-9.48 -8.96,-9.5 -4.87,0 -9.25,4.63 -8.98,9.49l-0.46 0.01z"/>
  <path class="fil1" d="M1213.85 2172.73c3.08,-1.17 3.71,-5.2 3.65,-8.49 -0.07,-3.29 -0.03,-7.21 2.71,-9.04l2.56 -0.46c2.17,0.85 1.37,4 1.57,6.31 0.17,1.85 1.19,3.48 1.76,5.24 1.37,4.19 -0.18,9.17 -3.65,11.86 -2.32,0.42 -4.85,-0.65 -6.17,-2.61 -1.31,-1.97 -1.33,-4.71 -0.04,-6.69l-2.39 3.89z"/>
  <path class="fil1" d="M1279.52 2124.48c3.08,-1.15 3.69,-5.19 3.65,-8.48 -0.07,-3.29 -0.03,-7.21 2.71,-9.04l2.54 -0.46c2.18,0.85 1.39,4 1.58,6.3 0.15,1.85 1.19,3.49 1.76,5.25 1.36,4.18 -0.18,9.15 -3.67,11.83 -2.32,0.43 -4.85,-0.64 -6.15,-2.59 -1.31,-1.96 -1.33,-4.71 -0.04,-6.68l-2.39 3.87z"/>
  <path class="fil1" d="M1338.85 2137.74c2.53,0.92 5.25,1.24 7.92,0.94l1.24 -0.33 1.04 -2.17c0.03,-2.04 -1.43,-3.97 -3.35,-4.69 -1.9,-0.72 -4.14,-0.31 -5.8,0.87l-1.89 2.68 1.5 2.69 -0.1 -0.86 -0.56 0.86z"/>
  <path class="fil1" d="M953.63 2094.95c3.22,5.13 8.96,8.58 15,9.06 0.43,-2.68 0.87,-5.46 0.22,-8.09 -0.64,-2.64 -2.65,-5.14 -5.35,-5.5 -3.68,-0.49 -6.58,2.93 -8.71,5.97l-0.56 -3.01 -0.61 1.58z"/>
  <path class="fil1" d="M962.23 2038.7c-2.47,2.91 0.01,8.29 3.82,8.3 1.18,-1.58 2.17,-3.44 2.15,-5.43 -0.01,-1.97 -1.28,-4.04 -3.22,-4.44 -1.93,-0.39 -4.13,1.56 -3.53,3.44l0.78 -1.87z"/>
  <path class="fil1" d="M1049.62 2089.62c-2.47,2.92 0.02,8.3 3.82,8.31 1.18,-1.6 2.18,-3.44 2.15,-5.43 -0.01,-1.99 -1.28,-4.06 -3.22,-4.44 -1.93,-0.41 -4.13,1.56 -3.53,3.44l0.78 -1.88z"/>
  <path class="fil1" d="M951.87 2064.33c-1.37,-2.06 -4.83,-0.93 -6.11,1.2 -1.28,2.11 -1.38,4.75 -2.43,7 -1.08,2.3 -3.24,4.08 -5.68,4.74 -1.44,0.39 -3.15,0.33 -4.18,-0.74l-1.14 -2.72c-0.98,-4.78 -1.37,-9.87 0.31,-14.46 1.68,-4.58 5.9,-8.5 10.79,-8.58 3.39,-0.06 6.75,1.83 8.46,4.78 1.7,2.94 1.68,6.81 -0.06,9.72l0.04 -0.93z"/>
  <path class="fil1" d="M1229.06 2142.87c-1.39,-2.06 -4.85,-0.92 -6.11,1.19 -1.29,2.13 -1.39,4.76 -2.44,7 -1.08,2.31 -3.22,4.1 -5.68,4.75 -1.44,0.37 -3.15,0.32 -4.18,-0.75l-1.14 -2.71c-0.97,-4.79 -1.37,-9.87 0.32,-14.46 1.68,-4.58 5.89,-8.52 10.78,-8.6 3.39,-0.04 6.75,1.85 8.46,4.79 1.71,2.93 1.68,6.79 -0.06,9.71l0.06 -0.93z"/>
  <path class="fil1" d="M1225.19 2174.74c-1.37,-2.06 -4.83,-0.93 -6.13,1.2 -1.28,2.12 -1.36,4.76 -2.43,7 -1.08,2.3 -3.22,4.08 -5.7,4.75 -1.41,0.37 -3.14,0.33 -4.18,-0.75l-1.13 -2.71c-0.97,-4.79 -1.36,-9.89 0.32,-14.46 1.68,-4.58 5.89,-8.51 10.76,-8.59 3.42,-0.06 6.78,1.85 8.47,4.79 1.71,2.93 1.69,6.79 -0.04,9.71l0.04 -0.93z"/>
  <path class="fil1" d="M1178.38 2158.77c-1.37,-2.07 -4.83,-0.93 -6.12,1.18 -1.29,2.13 -1.36,4.76 -2.43,7 -1.08,2.31 -3.22,4.1 -5.69,4.75 -1.42,0.37 -3.14,0.33 -4.18,-0.75l-1.13 -2.71c-0.97,-4.79 -1.36,-9.87 0.32,-14.46 1.68,-4.58 5.89,-8.52 10.76,-8.6 3.41,-0.04 6.78,1.85 8.47,4.79 1.71,2.93 1.68,6.79 -0.04,9.71l0.04 -0.92z"/>
  <path class="fil1" d="M1355.38 1860.95c-1.39,-2.06 -4.83,-0.93 -6.12,1.19 -1.28,2.11 -1.38,4.75 -2.42,6.99 -1.11,2.31 -3.24,4.1 -5.71,4.75 -1.43,0.39 -3.14,0.33 -4.17,-0.74l-1.14 -2.72c-0.97,-4.78 -1.37,-9.87 0.32,-14.46 1.68,-4.59 5.89,-8.5 10.76,-8.59 3.41,-0.06 6.76,1.83 8.47,4.78 1.71,2.94 1.68,6.81 -0.06,9.72l0.06 -0.93z"/>
  <path class="fil1" d="M997 2039.77l3.68 1.5c1,-1.78 2.03,-3.78 1.57,-5.76 -0.46,-2 -3.32,-3.33 -4.61,-1.74l-0.7 2.15c-0.28,2.44 -0.58,4.87 -0.87,7.31l0.93 -3.46z"/>
  <path class="fil1" d="M1251.24 1983.62c2.29,2.31 4.67,4.67 7.67,5.88 3.02,1.19 6.86,0.96 9.03,-1.46 1.07,-1.19 1.63,-2.82 1.71,-4.42 0.28,-4.86 -4.08,-9.5 -8.97,-9.5 -4.86,0 -9.25,4.63 -8.97,9.49l-0.46 0.01z"/>
  <path class="fil1" d="M1025.63 2135.68c-4.63,-0.38 -7.22,-7.04 -4.06,-10.44 2.51,-0.52 5.15,-0.49 7.64,0.07 0.17,2.83 -0.78,5.72 -2.6,7.92l-0.98 2.46z"/>
  <path class="fil2" d="M1290.04 2011.45c-0.36,0 -0.72,-0.03 -1.07,-0.1 -1.82,-0.36 -3.43,-1.43 -4.96,-2.47l0.46 0.13c-1.28,-0.9 -2.25,-2.39 -2.6,-3.94 -0.6,-2.65 0.15,-5.42 1.03,-7.97 0.98,-2.87 2.32,-5.87 4.92,-7.46 0.89,-0.54 1.96,-0.81 3.01,-0.81 2.04,0 4.04,0.99 4.58,2.92 0.86,2.96 -1.96,5.74 -2.17,8.82 -0.19,3.07 2.21,6.35 0.64,8.99 -0.76,1.29 -2.32,1.9 -3.85,1.9z"/>
  <path class="fil1" d="M1161.81 2123.24c-1.42,12.99 4.43,26.53 14.83,34.39 11.91,-5.26 22.5,-15.32 24.78,-28.14 2.28,-12.81 -6.43,-27.63 -19.39,-28.82 -12.96,-1.2 -24.4,15.87 -16.33,26.08l-3.89 -3.52z"/>
  <path class="fil1" d="M1020.56 2165.3c0.07,-1.79 2.02,-3.08 3.81,-2.94 1.78,0.15 3.3,1.39 4.37,2.82l1.28 2.85c0.3,2.42 -1.88,4.8 -4.31,4.82 -2.42,0.03 -4.61,-2.21 -4.64,-4.65 -0.03,-2.43 2.03,-4.68 4.44,-4.98l-4.96 2.09z"/>
  <path class="fil1" d="M1088.98 2144.15c2.53,-2.11 1.78,-6.12 0.63,-9.2 -1.14,-3.09 -2.41,-6.8 -0.43,-9.43l2.26 -1.26c2.32,0.07 2.63,3.31 3.59,5.42 0.75,1.69 2.28,2.89 3.39,4.36 2.67,3.5 2.88,8.71 0.46,12.39 -2.04,1.18 -4.79,1 -6.67,-0.42 -1.87,-1.42 -2.82,-4 -2.26,-6.29l-0.96 4.44z"/>
  <path class="fil1" d="M1170.35 2078.01c1.26,0.13 2.53,0.26 3.79,0.39 1.11,-1.76 0.89,-4.32 -0.65,-5.71 -1.56,-1.39 -4.32,-1.19 -5.5,0.52 -1.17,1.72 -0.13,4.54 1.91,4.9l0.44 -0.1z"/>
  <path class="fil1" d="M1102.19 2102.05c-1.28,-0.63 -1.43,-2.54 -0.63,-3.71 0.81,-1.18 2.22,-1.75 3.61,-2.11l3.43 -0.25c2.22,0.5 3.82,2.82 3.74,5.1 -0.08,2.28 -1.65,4.37 -3.74,5.35l-3.22 0.32 -1.43 -2.67 -1.76 -2.03z"/>
  <path class="fil1" d="M1088.69 1993.77c-9.57,8.89 -14,22.93 -11.29,35.71 12.46,3.79 27.06,3.13 37.17,-5.08 10.1,-8.19 13.2,-25.08 4.18,-34.47 -9.03,-9.39 -28.85,-3.96 -29.43,9.04l-0.63 -5.2z"/>
  <path class="fil1" d="M1007.87 2056.35c2.54,2.85 7.64,-0.91 7.22,-4.71 -0.43,-3.78 -3.8,-6.44 -6.9,-8.65 -3.61,3.8 -4.56,9.92 -2.25,14.65l1.93 -1.29z"/>
  <path class="fil1" d="M1058.15 2185.51c1.26,0.14 2.52,0.25 3.78,0.39 1.11,-1.76 0.89,-4.32 -0.65,-5.71 -1.56,-1.39 -4.33,-1.19 -5.5,0.53 -1.18,1.71 -0.13,4.53 1.92,4.89l0.46 -0.1z"/>
  <path class="fil1" d="M1076.67 2118.84c12.68,5.5 26.63,8.03 40.42,7.33 2.24,-0.11 4.53,-0.32 6.5,-1.33 3.85,-1.96 5.68,-6.52 6.02,-10.82 0.8,-10.52 -6.08,-20.88 -15.7,-25.2 -9.59,-4.33 -21.3,-2.91 -30.26,2.65 -4.9,3.06 -9.25,7.58 -10.53,13.24 -1.25,5.65 1.42,12.37 6.88,14.35 1.59,-0.92 1.5,-3.71 -0.17,-4.51l-3.15 4.29z"/>
  <path class="fil1" d="M1179.01 1915.26c6.64,11.25 19.42,18.59 32.47,18.67 6.36,-11.36 8.83,-25.76 2.97,-37.39 -5.85,-11.62 -21.68,-18.26 -32.78,-11.46 -11.09,6.8 -10.04,27.32 2.56,30.67l-5.22 -0.48z"/>
  <path class="fil1" d="M1322 2115.8c3.24,5.13 8.97,8.58 15.01,9.06 0.43,-2.68 0.86,-5.44 0.21,-8.09 -0.64,-2.64 -2.64,-5.14 -5.35,-5.5 -3.67,-0.49 -6.57,2.93 -8.71,5.97l-0.56 -3.03 -0.61 1.59z"/>
  <path class="fil1" d="M1363.59 2102.11c1.44,0.89 3.03,1.81 4.72,1.63 1.62,-0.2 2.94,-1.36 4.18,-2.44 3.39,-2.96 7.03,-5.6 10.87,-7.91 -7.36,-1.2 -14.74,-2.4 -22.11,-3.61l-1.7 -0.51c-1.74,-1.11 -1.15,-3.81 -2.03,-5.7 -1.26,-2.75 -5.11,-2.93 -8.06,-2.26 -21.03,4.83 6.19,15.99 14.11,20.81z"/>
  <path class="fil1" d="M1102.7 2149.88c2.15,0.47 4.3,0.93 6.43,1.39 0.63,-4.33 -1.02,-9.35 -4.99,-11.17 -3.98,-1.82 -9.72,1.63 -8.83,5.92 0.54,2.64 2.48,6.58 -0.18,7.08l7.57 -3.22z"/>
  <path class="fil1" d="M1270.19 2063.5c-1.85,-0.06 -3.67,-0.7 -5.13,-1.79 3.39,-3.28 8.82,-2.91 13.46,-2.06 2.58,0.47 5.67,1.53 6.15,4.11 0.33,1.79 -0.79,3.51 -1.11,5.32 -0.64,3.63 1.68,8.33 -1.3,10.47 -1.68,1.21 -4.2,0.5 -5.61,-1 -1.44,-1.5 -2.08,-3.57 -2.67,-5.56 -1.28,-4.35 -2.57,-8.7 -3.85,-13.04l0.06 3.54z"/>
  <path class="fil1" d="M1274.37 1992c2.53,2.85 7.64,-0.92 7.21,-4.71 -0.42,-3.79 -3.79,-6.46 -6.91,-8.67 -3.61,3.82 -4.54,9.93 -2.25,14.65l1.94 -1.28z"/>
  <path class="fil2" d="M1347.4 2041.84c-1.46,0 -2.93,-0.63 -3.82,-1.79 -0.94,-1.24 -1.17,-2.92 -0.75,-4.41l-1.39 2.39c-1.01,-1.47 -0.25,-3.68 1.28,-4.62 0.83,-0.53 1.81,-0.74 2.79,-0.74 0.81,0 1.63,0.14 2.4,0.36l2.72 1.52c1.69,1.75 1.37,4.97 -0.56,6.43 -0.76,0.6 -1.72,0.86 -2.68,0.86z"/>
  <path class="fil1" d="M1330.61 2059.55c-2.47,2.92 0.01,8.29 3.82,8.3 1.18,-1.58 2.15,-3.44 2.14,-5.43 -0.01,-1.97 -1.28,-4.06 -3.21,-4.44 -1.94,-0.39 -4.12,1.56 -3.53,3.44l0.78 -1.87z"/>
  <path class="fil1" d="M1284.52 2131.59c1.09,4.44 4.35,8.31 8.53,10.13 1.19,-3.54 2.4,-7.1 3.59,-10.64 0.56,-1.68 1.13,-3.44 0.78,-5.17 -0.71,-3.39 -5.1,-5.11 -8.24,-3.67 -3.13,1.46 -4.74,5.25 -4.31,8.67l-0.36 0.68z"/>
  <path class="fil2" d="M1322.01 1989.66l-0.83 -1.54 0.31 0.39c-1.42,-2.22 -1.36,-5.3 0.13,-7.48 1.25,-1.83 3.46,-2.94 5.67,-2.94 0.43,0 0.85,0.04 1.26,0.13 1.78,0.36 3.6,2.04 2.96,3.74l-1.5 1.67c-2.67,2.01 -5.32,4.04 -7.99,6.06z"/>
  <path class="fil2" d="M1356.47 1949.72c-2.02,0 -4,-1.03 -5.11,-2.69 -0.74,-1.08 -1.06,-2.41 -1,-3.71 1.85,-1.7 2.26,-4.89 2.2,-7.58 -0.06,-3.29 -0.02,-7.21 2.72,-9.03l2.57 -0.46c2.15,0.83 1.36,3.99 1.57,6.29 0.14,1.85 1.2,3.49 1.76,5.25 1.35,4.19 -0.18,9.15 -3.68,11.83 -0.35,0.07 -0.68,0.1 -1.03,0.1zm-7.56 -5.5l2.28 -3.69c-0.5,0.85 -0.78,1.82 -0.83,2.79 -0.4,0.39 -0.89,0.69 -1.44,0.9zm2.28 -3.69c0.03,-0.06 0.07,-0.13 0.11,-0.18l-0.11 0.18z"/>
  <path class="fil2" d="M1208.29 2209.33c-2,0 -4,-1.01 -5.11,-2.69 -0.72,-1.08 -1.06,-2.4 -1,-3.69 1.85,-1.71 2.26,-4.91 2.21,-7.59 -0.07,-3.11 -0.04,-6.76 2.26,-8.71l0.11 0.3c0.68,0.69 1.62,0.96 2.61,0.96 0.53,0 1.07,-0.07 1.57,-0.21 0.04,-0.01 0.09,-0.01 0.13,-0.03 0.29,1.32 0.04,3.07 0.17,4.5 0.15,1.83 1.19,3.47 1.76,5.24 1.36,4.19 -0.18,9.15 -3.68,11.85 -0.33,0.06 -0.68,0.08 -1.03,0.08z"/>
  <path class="fil1" d="M1209.37 2187.9c-0.99,0 -1.93,-0.26 -2.61,-0.96l-0.11 -0.3c0.14,-0.12 0.29,-0.23 0.44,-0.35l2.57 -0.44c0.82,0.32 1.21,0.99 1.4,1.81 -0.04,0.02 -0.08,0.02 -0.13,0.03 -0.5,0.14 -1.04,0.21 -1.57,0.21z"/>
  <path class="fil2" d="M1200.73 2203.83l2.26 -3.68c-0.49,0.83 -0.76,1.81 -0.82,2.8 -0.4,0.37 -0.89,0.68 -1.44,0.89zm2.26 -3.68c0.04,-0.07 0.08,-0.14 0.12,-0.19l-0.12 0.19z"/>
  <path class="fil2" d="M1380.01 1963.73l-3.44 -1.63 -0.44 -0.06c-1.83,-1.02 -1.87,-4.02 -0.21,-5.25 0.57,-0.42 1.25,-0.61 1.94,-0.61 1.36,0 2.76,0.74 3.43,1.93 1,1.83 0.35,4.32 -1.28,5.61z"/>
  <path class="fil1" d="M1320.23 2085.18c-1.36,-2.06 -4.82,-0.93 -6.11,1.19 -1.28,2.11 -1.37,4.75 -2.43,7 -1.08,2.31 -3.22,4.08 -5.68,4.75 -1.43,0.38 -3.15,0.32 -4.18,-0.75l-1.14 -2.72c-0.97,-4.78 -1.36,-9.87 0.32,-14.46 1.68,-4.58 5.9,-8.5 10.78,-8.58 3.39,-0.06 6.75,1.83 8.46,4.78 1.71,2.94 1.69,6.81 -0.04,9.72l0.03 -0.93z"/>
  <path class="fil1" d="M1341.93 2147.56c0.92,2.94 4.67,4.39 7.57,3.35 2.9,-1.04 4.82,-4.03 5.19,-7.09 0.18,-1.35 -0.15,-3.06 -1.46,-3.44l-2.6 0.72c-3.25,1.97 -6.5,3.96 -9.74,5.93l1.03 0.53z"/>
  <path class="fil1" d="M1228.7 2020.18c-1.18,-6.2 5.28,-12.5 11.43,-11.18 0.22,4.86 0.35,10.04 -2.15,14.22 -2.51,4.17 -8.74,6.44 -12.37,3.22 -0.39,-2.82 -0.79,-5.64 -1.18,-8.44l4.28 2.18z"/>
  <path class="fil2" d="M1364.43 2064.08c0.31,-2.43 0.6,-4.87 0.87,-7.31l0.7 -2.15c0.4,-0.5 0.94,-0.7 1.53,-0.7 1.3,0 2.76,1.07 3.08,2.43 0.47,2 -0.57,4 -1.57,5.78l-3.68 -1.5 -0.93 3.46z"/>
  <path class="fil1" d="M1019.43 2105.76c2.29,2.3 4.67,4.67 7.68,5.87 3.01,1.21 6.85,0.97 9.01,-1.46 1.08,-1.2 1.64,-2.81 1.72,-4.41 0.28,-4.87 -4.08,-9.5 -8.97,-9.5 -4.87,0 -9.25,4.63 -8.97,9.49l-0.47 0z"/>
  <path class="fil1" d="M1154.97 1968.93c2.15,0.44 4.32,0.9 6.47,1.35 0.75,-1.51 1.15,-3.19 1.18,-4.89 -2.71,-1.8 -6.85,-0.83 -8.48,1.99l0.83 1.56z"/>
  <path class="fil1" d="M850.15 2080.98c-1.01,-1.47 -0.25,-3.68 1.28,-4.63 1.51,-0.94 3.48,-0.87 5.19,-0.36l2.74 1.5c1.68,1.75 1.38,4.97 -0.57,6.44 -1.93,1.47 -5.02,0.98 -6.5,-0.94 -1.47,-1.94 -1.18,-4.96 0.56,-6.65l-2.7 4.64z"/>
  <path class="fil1" d="M1191.11 2009.87c2.15,0.46 4.32,0.9 6.47,1.35 0.74,-1.5 1.14,-3.19 1.18,-4.87 -2.71,-1.81 -6.86,-0.83 -8.49,1.98l0.83 1.54z"/>
  <path class="fil1" d="M1160.22 2188.24c0.72,2.37 4.35,2.31 6.19,0.65 1.86,-1.64 2.72,-4.14 4.39,-5.97 1.72,-1.87 4.28,-2.96 6.83,-2.86 1.48,0.06 3.11,0.61 3.76,1.94l0.3 2.93c-0.48,4.85 -1.59,9.83 -4.56,13.72 -2.96,3.87 -8.14,6.4 -12.83,5.03 -3.25,-0.93 -5.92,-3.74 -6.68,-7.04 -0.76,-3.32 0.39,-7 2.9,-9.28l-0.32 0.87z"/>
  <path class="fil1" d="M1077.91 2085.65c-1.15,-1.46 -2.37,-2.94 -4.01,-3.82 -1.64,-0.87 -3.85,-0.97 -5.24,0.26 -2.28,2.07 -0.93,5.92 -2.02,8.79 -1.09,2.88 -4.61,4.71 -4.68,7.8 -0.04,3.04 3.69,5 6.64,4.25 2.96,-0.74 5.09,-3.22 6.89,-5.68 1.61,-2.19 3.14,-4.61 3.35,-7.32 0.21,-2.69 -1.33,-5.72 -3.99,-6.28l3.06 2z"/>
  <path class="fil1" d="M1217.45 2114.51c-11.19,-1.15 -22.64,0.31 -33.18,4.25 -1.69,0.62 -3.42,1.35 -4.69,2.62 -2.5,2.47 -2.82,6.46 -2.02,9.88 1.97,8.36 9.85,14.71 18.37,15.71 8.53,0.98 17.25,-2.99 22.83,-9.5 3.07,-3.59 5.33,-8.18 4.92,-12.88 -0.42,-4.69 -4.14,-9.25 -8.85,-9.46 -1.03,1.11 -0.26,3.26 1.22,3.47l1.39 -4.1z"/>
  <path class="fil1" d="M1184.01 2188.95c-0.06,1.69 -0.06,3.54 0.94,4.9 0.98,1.33 2.65,1.89 4.21,2.42 4.24,1.47 8.35,3.31 12.26,5.52 -2.64,-7 -5.25,-13.99 -7.87,-20.99l-0.39 -1.74c0.08,-2.07 2.72,-2.9 3.92,-4.58 1.76,-2.47 0.01,-5.89 -2.04,-8.11 -14.65,-15.85 -10.78,13.32 -11.03,22.58z"/>
  <path class="fil1" d="M1218.05 2117.23l3.3 1.86c1.71,-1.18 2.54,-3.62 1.65,-5.51 -0.86,-1.89 -3.48,-2.82 -5.24,-1.7 -1.76,1.11 -1.92,4.11 -0.18,5.25l0.46 0.1z"/>
  <path class="fil1" d="M1217.83 2177.93c-2.09,2.26 -1.48,6.24 0.86,8.25 2.35,1.98 5.89,2.17 8.74,0.97 1.26,-0.51 2.57,-1.65 2.26,-2.97l-1.93 -1.92c-3.32,-1.82 -6.65,-3.65 -9.97,-5.47l0.04 1.14z"/>
  <path class="fil1" d="M1227.43 2138.2c-2.83,5.35 -2.99,12.06 -0.39,17.53 2.54,-0.97 5.17,-1.97 7.13,-3.85 1.97,-1.86 3.15,-4.85 2.13,-7.36 -1.42,-3.44 -5.82,-4.26 -9.53,-4.6l2.36 -1.98 -1.69 0.26z"/>
  <path class="fil1" d="M1246.15 2118.13c-0.87,-1.63 -1.22,-3.52 -1.01,-5.35 4.54,1.33 6.9,6.21 8.48,10.67 0.88,2.49 1.5,5.68 -0.5,7.39 -1.39,1.19 -3.46,1.06 -5.18,1.68 -3.46,1.25 -6.39,5.59 -9.72,4.07 -1.89,-0.86 -2.52,-3.37 -1.93,-5.36 0.59,-2 2.07,-3.59 3.5,-5.09 3.14,-3.26 6.26,-6.54 9.39,-9.82l-3.03 1.81z"/>
  <path class="fil1" d="M1194.19 2164.45c-3.31,3.15 -5.04,7.89 -4.54,12.43 3.68,-0.72 7.35,-1.46 11.03,-2.18 1.72,-0.35 3.54,-0.72 4.88,-1.91 2.57,-2.28 1.89,-6.96 -0.93,-8.96 -2.82,-2 -6.9,-1.5 -9.67,0.57l-0.76 0.04z"/>
  <path class="fil1" d="M1252.23 2172.34c1.09,-2.22 -1.6,-4.65 -4.09,-4.71 -2.47,-0.07 -4.82,1.17 -7.28,1.36 -2.54,0.21 -5.15,-0.75 -6.94,-2.57 -1.06,-1.04 -1.85,-2.57 -1.43,-3.98l1.79 -2.35c3.67,-3.22 7.87,-6.09 12.69,-6.9 4.82,-0.82 10.31,0.87 12.81,5.07 1.75,2.92 1.76,6.78 0.07,9.72 -1.69,2.94 -5.06,4.83 -8.47,4.79l0.85 -0.43z"/>
  <path class="fil1" d="M1137.09 2061.35c-0.86,3.14 -1.72,6.38 -1.28,9.59 0.44,3.22 2.58,6.43 5.75,7.09 1.57,0.33 3.25,0.02 4.68,-0.71 4.36,-2.18 6.19,-8.26 3.79,-12.5 -2.43,-4.22 -8.63,-5.72 -12.69,-3.07l-0.25 -0.41z"/>
  <path class="fil1" d="M1108.52 2127.91c-2.83,5.35 -2.99,12.06 -0.38,17.53 2.54,-0.97 5.15,-1.97 7.13,-3.85 1.96,-1.87 3.14,-4.85 2.11,-7.37 -1.41,-3.43 -5.82,-4.25 -9.51,-4.58l2.35 -1.99 -1.69 0.27z"/>
  <path class="fil1" d="M1256.85 2113.83c3.15,-0.94 4.06,-4.91 4.24,-8.21 0.15,-3.28 0.47,-7.19 3.33,-8.82l2.58 -0.28c2.1,0.98 1.1,4.08 1.13,6.4 0.03,1.85 0.94,3.56 1.39,5.35 1.07,4.28 -0.81,9.13 -4.49,11.56 -2.35,0.26 -4.79,-0.98 -5.96,-3.03 -1.17,-2.06 -0.99,-4.79 0.42,-6.67l-2.64 3.69z"/>
  <path class="fil1" d="M1023.11 2015.48c1.26,-0.17 2.53,-0.33 3.76,-0.5 0.67,-1.97 -0.13,-4.42 -1.96,-5.4 -1.83,-0.99 -4.47,-0.17 -5.22,1.78 -0.75,1.94 0.92,4.46 3.01,4.32l0.41 -0.2z"/>
  <path class="fil1" d="M1177.97 2138.09c0.18,1.31 0.36,2.61 0.53,3.92 2.06,-0.01 4.3,-0.09 5.79,-1.48 1.5,-1.41 1.22,-4.56 -0.78,-4.88l-2.22 0.49c-2.26,0.94 -4.53,1.9 -6.79,2.86l3.47 -0.91z"/>
  <path class="fil3" d="M1641 3065.56l0 -0.07 -13.1 0c-20.94,-0.17 -41.59,-0.59 -61.9,-1.26l0 -0.13 -3.9 0c-19.42,-0.67 -38.5,-1.56 -57.22,-2.65l0 -0.12 -2.02 0c-13.42,-0.8 -26.64,-1.7 -39.65,-2.7l0 -0.07 -0.94 0c-5.28,-0.41 -10.52,-0.84 -15.72,-1.28l0 -0.11 -1.26 0c-5.17,-0.44 -10.31,-0.9 -15.41,-1.38l0 -0.01 -0.1 0c-4.63,-0.43 -9.22,-0.88 -13.79,-1.34l0 -0.05 -0.47 0c-4.04,-0.41 -8.05,-0.82 -12.03,-1.25l0 -0.14 -1.25 0c-11.85,-1.28 -23.49,-2.64 -34.86,-4.1l0 -0.07 -0.5 0c-6.87,-0.88 -13.65,-1.8 -20.33,-2.74l0 -0.04 -0.25 0 -9.48 -1.37 0 -0.02 -0.13 0c-6.06,-0.89 -12.04,-1.81 -17.93,-2.75l0 -0.02 -0.13 0 -8.2 -1.33 0 -0.06 -0.36 0 -7.97 -1.36 0 -0.03 -0.16 0c-12.41,-2.15 -24.4,-4.41 -35.95,-6.77l0 -0.18 -0.85 0 -6.09 -1.26 0 -0.12 -0.59 0 -6.36 -1.38 0 -0.01 -0.04 0c-6.15,-1.35 -12.15,-2.72 -18.02,-4.13l0 -0.04 -0.15 0 -5.41 -1.31 0 -0.08 -0.31 0 -5.24 -1.31 0 -0.07 -0.31 0 -5.25 -1.36 0 -0.03 -0.11 0c-5.18,-1.36 -10.24,-2.74 -15.17,-4.15l0 -0.02 -0.06 0 -4.11 -1.19 0 -0.2 -0.68 0c-3.06,-0.9 -6.09,-1.81 -9.04,-2.73l0 -0.04 -0.15 0c-5.71,-1.78 -11.22,-3.59 -16.52,-5.44l0 -0.12 -0.33 0 -3.84 -1.37 0 -0.02 -0.05 0c-2.34,-0.84 -4.64,-1.69 -6.89,-2.55l0 -0.23 -0.62 0 -3.55 -1.37 0 -0.02 -0.05 0c-6.92,-2.71 -13.38,-5.49 -19.4,-8.33l0 -0 -0.01 0 -2.77 -1.31 0 -0.07 -0.15 0 -2.63 -1.3 0 -0.09 -0.17 0c-4.39,-2.21 -8.5,-4.45 -12.33,-6.72l0 -0.22 -0.38 0c-2.29,-1.37 -4.48,-2.75 -6.56,-4.14l0 -0.03 -0.04 0c-4.71,-3.15 -8.86,-6.35 -12.46,-9.6l0 -0.12 -0.13 0 -1.26 -1.15 0 -0.24 -0.26 0c-0.39,-0.37 -0.75,-0.74 -1.12,-1.11l0 -0.28 -0.27 0c-0.88,-0.88 -1.72,-1.76 -2.51,-2.65l0 -0.13 -0.11 0c-1.5,-1.69 -2.85,-3.38 -4.05,-5.09l0 -0.46 -0.33 0c-0.93,-1.36 -1.72,-2.74 -2.45,-4.11l0 -0.05 -0.03 0c-1.19,-2.25 -2.09,-4.52 -2.75,-6.8l0 -1.53 -0.44 0c-0.51,-2.15 -0.74,-4.33 -0.74,-6.51 0,-2.01 0.24,-4 0.65,-5.99l0.53 0 0 -2.06c0.33,-1.17 0.73,-2.33 1.21,-3.5l0.18 0 0 -0.45c0.73,-1.71 1.61,-3.41 2.64,-5.11l0.14 0 0 -0.22c0.24,-0.39 0.48,-0.78 0.74,-1.17l0.65 0 0 -0.99c0.42,-0.6 0.87,-1.19 1.33,-1.79l0.06 0 0 -0.08c0.33,-0.44 0.66,-0.87 1.01,-1.31l0.37 0 0 -0.43c2.22,-2.67 4.8,-5.3 7.76,-7.9l0.58 0 0 -0.52 1.05 -0.87 0.34 0 0 -0.28 1.34 -1.11 0.05 0 0 -0.04c1.73,-1.39 3.55,-2.76 5.49,-4.13l0.07 0 0 -0.05c1.3,-0.91 2.63,-1.82 4.02,-2.73l0.15 0 0 -0.09c2.1,-1.37 4.33,-2.72 6.64,-4.07l0.3 0 0 -0.18c7.26,-4.22 15.48,-8.33 24.65,-12.32l0.35 0 0 -0.15c6.44,-2.79 13.35,-5.52 20.67,-8.18l0.16 0 0 -0.06 3.74 -1.33 0.43 0 0 -0.15c5.2,-1.83 10.6,-3.63 16.21,-5.4l0.46 0 0 -0.15 4.04 -1.24 0.13 0 0 -0.04c3.02,-0.92 6.09,-1.83 9.21,-2.74l0.51 0 0 -0.15c13.31,-3.84 27.6,-7.5 42.78,-10.97l0.28 0 0 -0.06c4.02,-0.92 8.09,-1.82 12.23,-2.71l0.27 0 0 -0.06 6.32 -1.33 0.63 0 0 -0.13 6.13 -1.26 0.81 0 0 -0.16 6.22 -1.23 0.72 0 0 -0.14c7.1,-1.38 14.36,-2.72 21.77,-4.02l0.45 0 0 -0.08 7.66 -1.31 0.68 0 0 -0.11 7.7 -1.27 0.64 0 0 -0.1 8.06 -1.29 0.27 0 0 -0.04c9.2,-1.44 18.59,-2.81 28.18,-4.13l0.99 0 0 -0.14c3.1,-0.43 6.23,-0.84 9.37,-1.25l0.35 0 0 -0.05c7.25,-0.94 14.61,-1.86 22.06,-2.73l0.16 0 0 -0.02c3.98,-0.47 7.99,-0.93 12.03,-1.37l0.47 0 0 -0.05c4.13,-0.46 8.29,-0.9 12.47,-1.33l0.03 0 0 -0c4.59,-0.48 9.21,-0.94 13.86,-1.39l0.03 0 0 -0c4.95,-0.48 9.93,-0.94 14.95,-1.39l0.33 0 0 -0.03c5.3,-0.47 10.63,-0.92 16,-1.36l0.67 0 0 -0.05c5.8,-0.47 11.64,-0.91 17.52,-1.34l0.53 0 0 -0.04c6.54,-0.47 13.11,-0.93 19.74,-1.35l1.09 0 0 -0.07c7.61,-0.48 15.3,-0.91 23.04,-1.32l1.96 0 0 -0.11c9.21,-0.48 18.5,-0.91 27.87,-1.28l2.69 0 0 -0.11c13.86,-0.54 27.9,-0.97 42.09,-1.28l0.97 0 0 -0.02c18.28,-0.4 36.81,-0.6 55.56,-0.6l3.17 0 11.3 0.04c4.44,2.87 8.42,4.37 11.89,4.37 0.1,0 0.21,0 0.31,0 4.11,-0.11 8.03,-1.53 11.75,-4.14 4.8,0.07 9.59,0.16 14.36,0.26l0 0.09 3.87 0c14.63,0.32 29.08,0.77 43.35,1.34l0 0.05 1.33 0c9.36,0.38 18.64,0.8 27.83,1.28l0 0.11 2.18 0c7.67,0.41 15.28,0.85 22.82,1.33l0 0.06 1.03 0c6.65,0.42 13.25,0.87 19.8,1.34l0 0.04 0.61 0c11.54,0.83 22.92,1.75 34.11,2.74l0 0.04 0.41 0c4.52,0.4 9.01,0.82 13.48,1.24l0 0.15 1.48 0c4.63,0.45 9.23,0.91 13.8,1.38l0 0.01 0.06 0c4.17,0.43 8.32,0.88 12.44,1.33l0 0.06 0.5 0c4.03,0.44 8.03,0.9 12,1.37l0 0.02 0.18 0c3.67,0.43 7.31,0.87 10.93,1.32l0 0.07 0.57 0c3.54,0.44 7.05,0.89 10.54,1.34l0 0.05 0.36 0c9.79,1.28 19.41,2.62 28.81,4.02l0 0.14 0.93 0 8.8 1.34 0 0.05 0.32 0c8.4,1.31 16.62,2.68 24.68,4.09l0 0.07 0.41 0c5.02,0.88 9.99,1.78 14.87,2.69l0 0.09 0.47 0c6.94,1.31 13.72,2.65 20.36,4.03l0 0.13 0.64 0 6.31 1.33 0 0.06 0.28 0c4.14,0.89 8.21,1.79 12.22,2.7l0 0.07 0.3 0c11.53,2.64 22.57,5.38 33.04,8.23l0 0.1 0.36 0c6.59,1.8 12.94,3.65 19.08,5.52l0 0.03 0.11 0 4.06 1.24 0 0.15 0.46 0 3.71 1.2 0 0.19 0.6 0c5.56,1.8 10.92,3.63 16.06,5.5l0 0.06 0.16 0c2.3,0.84 4.57,1.68 6.79,2.53l0 0.24 0.64 0c14.77,5.69 27.57,11.67 38.25,17.88l0 0.17 0.31 0c2.32,1.35 4.52,2.72 6.63,4.09l0 0.07 0.11 0c1.4,0.91 2.75,1.83 4.06,2.75l0 0.03 0.04 0c1.94,1.37 3.79,2.75 5.52,4.14l0 0.03 0.04 0 1.35 1.1 0 0.28 0.33 0 1.06 0.91 0 0.48 0.56 0c3.59,3.16 6.67,6.37 9.16,9.61l0 0.11 0.08 0c1,1.31 1.88,2.63 2.7,3.95l0 0.21 0.13 0c0.44,0.72 0.87,1.45 1.26,2.18l0 0.6 0.3 0c1.06,2.09 1.88,4.19 2.48,6.31l0 2.02 0.53 0c0.43,1.98 0.64,3.98 0.64,5.99 0,1.72 -0.2,3.42 -0.5,5.12l-0.66 0 0 2.87c-0.65,2.3 -1.57,4.59 -2.76,6.86l-0.02 0 0 0.03c-0.73,1.39 -1.53,2.77 -2.46,4.14l-0.31 0 0 0.44c-1.2,1.72 -2.57,3.42 -4.07,5.11l-0.1 0 0 0.12c-0.8,0.89 -1.64,1.78 -2.52,2.66l-0.26 0 0 0.26c-0.38,0.38 -0.74,0.76 -1.14,1.13l-0.25 0 0 0.23 -1.27 1.15 -0.12 0 0 0.11c-2.03,1.83 -4.23,3.65 -6.61,5.45l-0.33 0 0 0.25c-1.76,1.31 -3.59,2.62 -5.53,3.92l-0.02 0 0 0.02c-2.09,1.39 -4.28,2.78 -6.58,4.15l-0.37 0 0 0.21c-3.03,1.8 -6.23,3.58 -9.62,5.34l-0.1 0 0 0.05 -2.63 1.34 -0.15 0 0 0.08 -2.64 1.31 -0.13 0 0 0.06c-6.78,3.3 -14.2,6.52 -22.19,9.66l-0.04 0 0 0.02 -3.56 1.37 -0.61 0 0 0.23c-2.26,0.86 -4.56,1.71 -6.91,2.55l-0.04 0 0 0.01 -3.85 1.37 -0.31 0 0 0.11c-3.93,1.37 -8.01,2.72 -12.17,4.06l-0.33 0 0 0.11 -4.04 1.28 -0.13 0 0 0.04c-2.96,0.92 -5.99,1.83 -9.06,2.74l-0.66 0 0 0.19 -4.12 1.2 -0.04 0 0 0.01c-4.93,1.41 -10,2.8 -15.19,4.15l-0.09 0 0 0.02 -5.26 1.37 -0.29 0 0 0.07 -5.26 1.32 -0.3 0 0 0.07 -5.43 1.31 -0.13 0 0 0.03c-5.87,1.41 -11.89,2.79 -18.04,4.13l-0.02 0 0 0c-2.12,0.46 -4.23,0.93 -6.38,1.39l-0.57 0 0 0.12 -6.11 1.27 -0.83 0 0 0.17 -6.04 1.22 -0.9 0 0 0.18c-9.4,1.86 -19.08,3.66 -29.03,5.38l-0.14 0 0 0.02c-2.65,0.46 -5.3,0.92 -7.99,1.37l-0.34 0 0 0.06c-2.71,0.45 -5.46,0.89 -8.22,1.33l-0.12 0 0 0.02c-5.89,0.94 -11.87,1.86 -17.94,2.76l-0.12 0 0 0.02c-3.14,0.46 -6.3,0.93 -9.49,1.37l-0.23 0 0 0.03c-6.69,0.94 -13.47,1.86 -20.35,2.75l-0.48 0 0 0.06c-11.38,1.46 -23.02,2.82 -34.87,4.1l-1.24 0 0 0.14c-3.99,0.43 -8,0.84 -12.04,1.25l-0.46 0 0 0.05c-4.57,0.46 -9.17,0.91 -13.8,1.34l-0.09 0 0 0.01c-5.1,0.48 -10.25,0.93 -15.42,1.38l-1.24 0 0 0.11c-5.21,0.44 -10.46,0.87 -15.74,1.28l-0.93 0 0 0.07c-13.01,1.01 -26.24,1.91 -39.65,2.7l-2.01 0 0 0.12c-18.71,1.1 -37.8,1.99 -57.22,2.65l-3.89 0 0 0.13c-20.3,0.67 -40.96,1.09 -61.91,1.26l-13.09 0 0 0.07 -8.33 0.02 -8.33 -0.02z"/>
  <path class="fil4" d="M1745.44 2593.54c4.85,-50.9 7.61,-102.64 8.81,-145.87 61.32,-35.11 103.75,-39.48 121.08,-39.48 5.75,0 8.74,0.48 8.74,0.48 -16.44,23.78 -34.89,50.02 -53.5,75.72 -30.57,42.22 -61.63,83.03 -85.13,109.15z"/>
  <g style="clip-path:url(#id0)">
   <image x="1749.19" y="2334.79" width="187.78" height="118.33" xlink:href="robot2_Images\robot2_ImgID1.png"/>
  </g>
  <path class="fil5" d="M2312.59 2110.26c-3.85,-0.65 -7.76,-1.53 -11.76,-2.6l0 0 -0.33 -1.36c3.68,0.81 7.35,1.44 11.01,1.91 0.36,0.68 0.72,1.36 1.08,2.06zm-68.51 -99.07c-23.26,-24.89 -49.79,-61.22 -62,-106.47 -24.15,-89.42 9.51,-340.9 9.51,-340.9l0 -0.13c-24.46,-38.31 -48.39,-73.42 -69.93,-102.9l0 0c21.54,29.48 45.47,64.59 69.93,102.9 71.39,111.89 147.44,251.08 182.21,357.57 -8.8,-21.93 -21.76,-37.11 -38.94,-38.11 -0.54,-0.03 -1.07,-0.04 -1.61,-0.04 -37.03,0 -69.89,73.58 -89.17,128.08z"/>
  <path class="fil6" d="M2311.51 2108.2c-3.67,-0.46 -7.33,-1.1 -11.01,-1.91l-13.99 -57.37c0,0 -19.65,-13.39 -42.43,-37.74 19.28,-54.5 52.14,-128.08 89.17,-128.08 0.54,0 1.07,0.01 1.61,0.04 17.18,1 30.14,16.18 38.94,38.11 2.42,6 4.52,12.5 6.31,19.36 -0.61,-0.06 -1.21,-0.11 -1.82,-0.15 -7.29,-0.61 -14.06,-0.92 -20.35,-0.92 -10.9,0 -20.36,0.92 -28.57,2.76 -4.06,-1.54 -7.68,-2.39 -11.02,-2.39 -8.44,0 -14.85,5.54 -20.74,19.49 -9.4,10.07 -15.22,24.06 -19.24,42.07 -2.39,10.71 1.06,27.49 9.22,48.47 4.71,17.86 13.04,37.57 23.9,58.25zm-36.61 -9.89c-19.54,-7.85 -36.68,-18.63 -46.33,-27.31 15.71,11.37 31.33,20.56 46.33,27.31z"/>
  <g style="clip-path:url(#id1)">
   <image x="2058.91" y="1384.79" width="248.89" height="728.06" xlink:href="robot2_Images\robot2_ImgID2.png"/>
  </g>
  <g style="clip-path:url(#id2)">
   <image x="2218.63" y="2005.62" width="89.17" height="107.22" xlink:href="robot2_Images\robot2_ImgID3.png"/>
  </g>
  <path class="fil7" d="M1756.9 2354.72c-1.07,-0.22 -2.18,-0.47 -3.25,-0.71 -0.01,-0.11 -0.01,-0.22 -0.03,-0.32 1.1,0.35 2.18,0.69 3.28,1.03zm353.32 -202.78c12.46,-28.76 23.4,-61.39 32.35,-98.39 4.39,-16.26 8.37,-33.41 11.92,-51.52 -8.11,54.89 -23.32,105.31 -44.26,149.91zm-516.18 -8.96c-6.72,-5.35 -13.54,-10.47 -20.46,-15.33 -0.25,-0.79 -47.2,-148.4 -13.28,-281.2 28.14,-110.25 92.39,-268.93 94.7,-274.61 8.36,-16 16.17,-32.14 23.08,-47.87 48.17,13.61 104.12,23.24 166.09,23.24 10.49,0 21.1,-0.28 31.92,-0.85 146.57,-7.83 206.13,-40.71 230,-63.35 46.38,115.57 55.33,264.68 55.07,427.33 -0.02,6.33 -0.11,12.61 -0.29,18.85 -7.53,-47.04 -38.56,-164.54 -162.42,-196.17 -21.48,-5.48 -42.86,-8.04 -63.9,-8.04 -158.26,0 -297.86,144.19 -324.56,268.82 -2.71,9.11 -4.83,18.14 -6.36,27.06 -7.14,41.51 -11.42,82.97 -9.6,122.14zm-148.78 -62.46c-7.18,-33.78 -10.67,-70.76 -10.53,-111.21 1.75,50.93 8.25,94.69 10.96,111.19 -0.14,0 -0.29,0.02 -0.43,0.02zm19.47 -295.32c-0.14,-2.24 -0.28,-4.43 -0.42,-6.65 2.93,-10.64 6.08,-21.41 9.42,-32.22 1.5,-0.51 2.98,-1.03 4.44,-1.57 1.22,-0.46 2.44,-0.93 3.67,-1.43 -4.79,12.22 -10.46,26.17 -17.11,41.88zm161.62 -357.97c0.02,-0.03 0.04,-0.06 0.06,-0.09 -0.01,0.03 -0.03,0.06 -0.06,0.09l0 0zm388.39 -81.43c-10.06,-6.85 -20.13,-12.19 -29.83,-15.24 2.76,-0.94 5.56,-1.92 8.29,-2.89 7.52,5.76 14.68,11.8 21.54,18.12z"/>
  <path class="fil8" d="M1434.73 1969.31c-1.11,-32.31 -0.32,-67.47 4.57,-100.4l4.72 -1.27c-5.02,28.68 -8.04,55.53 -8.88,79.7 -0.25,7.43 -0.39,14.76 -0.41,21.97z"/>
  <g style="clip-path:url(#id3)">
   <image x="1429.74" y="1565.34" width="230.83" height="568.33" xlink:href="robot2_Images\robot2_ImgID4.png"/>
  </g>
  <path class="fil9" d="M2142.56 2053.55c6.42,-26.54 11.81,-55.35 15.99,-86.57 0,0 -8.76,-176.01 -164.72,-215.85 -21.48,-5.47 -42.87,-8.03 -63.92,-8.03 -150.62,0 -284.35,130.63 -319.91,250.68 26.69,-124.63 166.29,-268.82 324.56,-268.82 21.04,0 42.42,2.56 63.9,8.04 123.86,31.63 154.89,149.13 162.42,196.17 1.94,12.19 2.32,19.67 2.32,19.67 -2.43,18.17 -5.28,35.54 -8.5,52.11l0 0c-0.07,0.36 -0.14,0.72 -0.21,1.08 -3.54,18.11 -7.53,35.25 -11.92,51.52z"/>
  <path class="fil10" d="M1815.74 2361.45c-31.74,-0.01 -52.22,-4.75 -52.22,-4.75 -2.22,-0.64 -4.44,-1.31 -6.63,-1.99 -1.1,-0.33 -2.18,-0.68 -3.28,-1.03 -0.17,-1.94 -0.33,-3.67 -0.53,-5.17 -0.59,-4.68 -2.56,-10.89 -5.72,-18.28 9.8,4.08 21.19,7.74 34.36,10.6 14.85,3.24 28.98,4.54 42.14,4.54 54.74,0 92.26,-22.59 92.26,-22.59 -8.87,1.4 -18.53,2.15 -28.78,2.15 -32.54,0 -71.11,-7.56 -109.83,-25.94 -22.57,-10.74 -42.49,-15.5 -57.67,-17.49 -28.98,-43.61 -74.29,-97.51 -125.82,-138.53 -1.82,-39.17 2.46,-80.63 9.6,-122.14 1.53,-8.92 3.65,-17.94 6.36,-27.06 35.57,-120.06 169.29,-250.68 319.91,-250.68 21.04,0 42.43,2.56 63.92,8.03 155.96,39.83 164.72,215.85 164.72,215.85 -4.18,31.22 -9.57,60.03 -15.99,86.57 -8.94,37 -19.89,69.63 -32.35,98.39 -46.92,108.43 -115.28,161.96 -178.92,187.56l0 0c-43.51,17.5 -84.82,21.96 -115.56,21.96zm-126.56 -327.53l0 0c-1.6,-3.32 -2.86,-5.61 -3.54,-6.76l3.54 6.76zm179.78 -145.36c15.89,0 32.78,0.96 50.67,3.39 91,12.39 156.13,66.87 196.22,66.87 9.53,0 17.65,-3.08 24.36,-10.54 11.92,-13.22 -15.56,-149.5 -151.15,-178.54 -19.54,-4.19 -38.69,-6.06 -57.25,-6.06 -142.75,0 -250.25,110.75 -225.93,131.9 6.25,5.44 14.88,7.42 25.82,7.42 14.77,0 33.74,-3.61 56.68,-7.22 22.94,-3.61 49.88,-7.22 80.59,-7.22z"/>
  <path class="fil11" d="M1524.5 1730.8c-1.41,0 -2.75,-0.17 -4.04,-0.5 -3.21,-0.82 -5.89,-2.37 -8.07,-4.57 16.5,-12.04 32.91,-27.86 48.47,-45.92 -4.3,13.39 -7.82,26.5 -10.18,38.58l0 0c-9.87,7.92 -18.78,12.4 -26.18,12.4z"/>
  <path class="fil12" d="M1550.67 1718.4c52.47,-42.14 132.07,-182.17 152.99,-265.93 -32.63,25.47 -77.85,82.71 -115.15,158.96 -16.28,33.19 -31.39,73.89 -37.83,106.97z"/>
  <g style="clip-path:url(#id4)">
   <image x="1675.58" y="1758.4" width="482.22" height="204.44" xlink:href="robot2_Images\robot2_ImgID5.png"/>
  </g>
  <g style="clip-path:url(#id5)">
   <image x="1713.08" y="2275.06" width="207.22" height="75.28" xlink:href="robot2_Images\robot2_ImgID6.png"/>
  </g>
  <path class="fil1" d="M1791.65 1571.74c13.17,3.74 9.14,111.92 -2.62,113.5 -11.76,1.58 -32.85,-3.42 -32.53,-48.46 0.29,-45.03 22.44,-68.64 35.15,-65.04z"/>
  <path class="fil13" d="M1622.47 2652.19c-14.88,0 -30.88,-7.31 -47.78,-23.98 -109.25,-107.6 -198.85,-523.57 -198.85,-523.57 -7.63,5.54 -11.08,17.9 -11.08,35.6 0,-17.7 3.46,-30.06 11.08,-35.6 21.98,-15.96 45.42,-23.33 69.42,-24.11 0.14,0 0.29,-0.02 0.43,-0.02 1.28,-0.03 2.56,-0.06 3.83,-0.06 41.25,0 84.06,19.06 124.06,47.19 6.92,4.86 13.74,9.99 20.46,15.33 51.53,41.02 96.83,94.92 125.82,138.53 3.08,4.64 5.99,9.17 8.68,13.54 8.2,13.32 14.6,25.32 18.83,35.19 3.17,7.39 5.13,13.6 5.72,18.28 0.2,1.5 0.36,3.22 0.53,5.17 0.02,0.1 0.02,0.21 0.03,0.32 0.82,10.2 1.29,26.25 1.29,46.37 -0.01,-24.2 -0.68,-42.54 -1.85,-51.86 -1.39,-10.93 -10.22,-30.18 -24.56,-53.47 2.57,11.56 4.83,23.58 6.76,35.97 16.26,103.67 -31.71,321.17 -112.83,321.17z"/>
  <path class="fil14" d="M1462.26 1749.73c-8.03,-103.29 -22.97,-210.94 -38.15,-303.44 60.97,-11.52 119.28,-19.06 162.74,-19.06 6.06,0 11.8,0.15 17.25,0.44 -51.5,1.69 -112.92,7.48 -112.92,7.48 0,0 61.18,48.39 163.1,81.56 -16.03,50.47 -51.76,114.78 -93.42,163.1 -15.57,18.06 -31.97,33.87 -48.47,45.92 -10.19,7.43 -20.43,13.41 -30.54,17.59 -1.22,0.5 -2.44,0.97 -3.67,1.43 -1.46,0.54 -2.94,1.06 -4.44,1.57 -3.7,1.24 -7.53,2.38 -11.47,3.41z"/>
  <path class="fil15" d="M2121.66 1460.79c-17.78,-24.36 -33.93,-44.87 -47.43,-60.21 27.59,31.03 47.44,60.21 47.44,60.21 0,0 0,0 -0.01,0zm-56.32 -69.97c-12.15,-12.81 -21.43,-20.15 -26.76,-20.65 -7.49,-8.52 -15.43,-16.64 -23.83,-24.36 17.49,11.89 34.99,28.31 50.6,45.02z"/>
  <g style="clip-path:url(#id6)">
   <image x="2032.52" y="1365.34" width="94.72" height="123.89" xlink:href="robot2_Images\robot2_ImgID7.png"/>
  </g>
  <g style="clip-path:url(#id7)">
   <image x="1672.8" y="1325.06" width="437.78" height="228.06" xlink:href="robot2_Images\robot2_ImgID8.png"/>
  </g>
  <path class="fil16" d="M1624.52 1429.81c-6.15,-1.02 -13,-1.72 -20.43,-2.14 7.72,-0.25 15.22,-0.41 22.26,-0.44 -0.62,0.86 -1.22,1.72 -1.83,2.58zm1.89 -2.67c6.42,-11.58 13.85,-22 22.11,-31.35 0.53,-0.03 1.08,-0.06 1.61,-0.08 -8.06,10.06 -15.97,20.56 -23.72,31.43z"/>
  <g style="clip-path:url(#id8)">
   <image x="1618.63" y="1388.95" width="61.39" height="47.5" xlink:href="robot2_Images\robot2_ImgID9.png"/>
  </g>
  <g style="clip-path:url(#id9)">
   <image x="1625.58" y="1384.79" width="91.94" height="118.33" xlink:href="robot2_Images\robot2_ImgID10.png"/>
  </g>
  <path class="fil17" d="M1678.08 1523.95c-8.15,-2.31 -16.1,-4.72 -23.81,-7.24 2.08,-6.56 3.83,-12.87 5.22,-18.9 15.87,-19.71 31.04,-35.1 44.17,-45.35l0 0c-5.26,21.08 -14.25,45.74 -25.58,71.48z"/>
  <g style="clip-path:url(#id10)">
   <image x="1485.3" y="1422.29" width="185" height="100.28" xlink:href="robot2_Images\robot2_ImgID11.png"/>
  </g>
  <path class="fil18" d="M2191.56 438.26c-26.46,-24.32 -54.57,-47.02 -84.08,-67.76 -8,-36.04 -19.61,-78.97 -35.32,-115.78 32.89,31.5 83.9,91.14 119.4,183.54z"/>
  <path class="fil19" d="M2107.48 370.5c-83.43,-58.68 -177.81,-101.52 -275.25,-119.42 23.28,-23.58 87.25,-82.35 146.94,-82.35 10.15,0 20.18,1.69 29.86,5.56 25.89,10.32 46.74,42.04 63.13,80.43 15.71,36.81 27.32,79.74 35.32,115.78z"/>
  <path class="fil20" d="M1600.23 1396.97c-28.78,0 -56.7,-1.29 -83.38,-3.92 32.6,-16.64 53.25,-29.56 53.25,-29.56l-20.75 -16.88c0,0 -38.26,18.71 -90.86,38.17 -16.3,-3.08 -31.94,-6.76 -46.83,-11.04 -18.67,-104.29 -34.74,-176 -34.74,-176l-56.6 21.08 0 0c-9.58,-0.22 -18.93,-0.33 -28.14,-0.33 -20.4,0 -39.87,0.53 -58.4,1.5 -14.36,-32.68 -26.44,-69.92 -35.74,-110.29 4.3,18.19 7.62,30.19 7.62,30.19 113.04,-49.69 157.35,-246.46 157.91,-248.93 90.25,-149.06 67.35,-357.41 67.35,-357.41 -34.02,-41.29 -70.63,-68.96 -105.86,-87.35 13.89,-17.63 28.87,-34.56 45,-50.64 30.39,-30.32 64.85,-57.68 103.68,-81.28 83.07,-50.44 171.08,-72.48 258.74,-72.48 33.42,0 66.75,3.19 99.75,9.26 97.44,17.9 191.82,60.74 275.25,119.42 29.52,20.75 57.63,43.44 84.08,67.76 167.82,154.3 267.18,372.36 210.68,551.92 -3.31,10.5 -7.15,20.79 -11.54,30.93 -59.87,138.58 -217.53,243.32 -397.5,306.57 -2.73,0.97 -5.53,1.94 -8.29,2.89 -92.62,31.78 -190.78,52.63 -284.35,61.52 -9.13,0.86 -18.17,1.61 -27.19,2.25 -7.79,0.56 -15.53,1.02 -23.24,1.39 -0.53,0.03 -1.08,0.06 -1.61,0.08 -16.32,0.78 -32.43,1.17 -48.29,1.17zm252.06 -1068.39c-55.88,0 -111.61,11.9 -164.94,38.51 -280.43,139.92 -323.39,706.07 -136.82,894.14 49.57,49.97 130.67,72.62 223.83,72.62 257.43,0.02 607.14,-172.86 639.72,-419.75 33.28,-252.08 -266.13,-585.53 -561.79,-585.53z"/>
  <path class="fil21" d="M1198.05 1109.7c-3.56,-15.03 -7.79,-34.28 -11.39,-54.5 0.18,-0.78 0.35,-1.53 0.53,-2.29 3.01,19.5 6.65,38.47 10.86,56.79z"/>
  <g style="clip-path:url(#id11)">
   <image x="1182.52" y="884.79" width="187.78" height="261.39" xlink:href="robot2_Images\robot2_ImgID12.png"/>
  </g>
  <path class="fil22" d="M1774.35 1333.85c-93.17,0 -174.26,-22.65 -223.83,-72.62 -186.57,-188.07 -143.61,-754.22 136.82,-894.14 53.33,-26.61 109.07,-38.51 164.94,-38.51 295.67,0 595.07,333.44 561.79,585.53 -32.58,246.89 -382.29,419.76 -639.72,419.75zm-231.06 -264.72c-0.39,0 -0.75,0.04 -1.11,0.14 -18.5,4.63 -45.53,65.07 13.04,143.36 38.11,50.92 107.61,59.82 151.54,59.82 23.61,0 39.85,-2.57 39.85,-2.57 0,0 -31.78,-4.85 -79.04,-46.25 -46.35,-40.61 -104.6,-154.5 -124.28,-154.5zm770.78 -16.67c-34.17,0 -110.94,9.59 -171.36,87.43 -80.17,103.31 -197.96,128.98 -197.96,128.98 235.06,-0.07 387.11,-215.39 387.11,-215.39 0,0 -6.61,-1.03 -17.79,-1.03zm-705.71 -248.22c-13.68,68.86 2.64,152.36 56.96,189.94 19.58,13.56 39.52,19.46 58.72,19.46 70.8,0 131.98,-80.14 131.17,-153.01 -0.9,-79.74 -64.25,-158.26 -135.92,-163.83 37.39,-33.93 77.03,-65.43 117.46,-86.15 59.09,-30.28 127.25,-39.5 192.25,-39.5 31.47,0 62.19,2.17 90.81,5.14 -23.99,58.5 -8.31,181.93 70.85,225.67 9.72,5.37 20.19,7.85 30.78,7.85 52.88,0 108.86,-61.78 91.14,-133.5 -7.68,-31.06 -25.61,-59.87 -47.74,-82.76 9.78,-0.09 16.17,-1.62 18.42,-5.28 15.78,-25.44 -166.02,-233.74 -413.02,-233.74 -21.86,0 -44.24,1.64 -67.01,5.17 -280.32,43.46 -358.25,432.43 -312.06,495.37 6.24,8.5 13.91,12.31 22.85,12.31 23.56,0 55.96,-26.44 94.35,-63.13z"/>
  <g style="clip-path:url(#id12)">
   <image x="1492.24" y="1065.34" width="261.39" height="214.17" xlink:href="robot2_Images\robot2_ImgID13.png"/>
  </g>
  <path class="fil23" d="M1238.7 997.59c-9.72,0 -22.59,-0.54 -37.06,-2.53 0.54,-2.04 1.07,-4.03 1.6,-5.98 4.03,-0.21 8.08,-0.56 12.17,-1.08 17.92,-2.28 33.89,-7.53 48.1,-15.2 105.89,-38.01 169.28,-288.29 82.1,-433.07 -70.83,-117.61 -168,-125.68 -193.33,-125.68 -4.04,0 -6.25,0.21 -6.25,0.21l0 0c0,0 14.37,-2.93 37.89,-2.93 33.56,0 85.68,5.96 141.15,34.89 35.24,18.39 71.85,46.06 105.86,87.35 0,0 22.9,208.35 -67.35,357.41 -25.42,41.98 -59.81,79.26 -106.2,105.86 0,0 -7.11,0.76 -18.68,0.76z"/>
  <path class="fil24" d="M1263.51 972.8c99.17,-53.5 112.03,-224.83 97.31,-327.48 -18.32,-126.79 -120.96,-206.21 -209.67,-206.21 -6.14,0 -12.21,0.37 -18.18,1.15 -7.18,0.92 -14.13,2.43 -20.86,4.5 0.5,-0.91 12.68,-22.72 33.92,-30.5l0 0c0,0 2.21,-0.21 6.25,-0.21 25.33,0 122.5,8.07 193.33,125.68 87.18,144.78 23.79,395.06 -82.1,433.07z"/>
  <path class="fil25" d="M1203.24 989.08c1.9,-7.06 3.68,-13.54 5.32,-19.39 6.72,-1.03 13.57,-2.54 20.5,-4.58 93.28,-27.46 108.47,-154.49 108.47,-154.49 0,0 -29.01,58.76 -149.15,80.04 -20,-13.64 -42.67,-14.68 -49.11,-14.68 -1.15,0 -1.79,0.03 -1.79,0.03 -7.67,4.06 -13.65,9.53 -18.31,15.78 -65.39,-12.06 -83.18,-62.02 -83.18,-62.02 11.58,46.32 35.46,86.06 67.64,111.53 -0.37,6.7 -0.24,12.61 0.03,17.03 -2.54,-1.87 -5.07,-3.8 -7.56,-5.83l-0.11 0 -11.91 -10.53 -0.36 -0.22c-42.59,-40.42 -74.41,-104.3 -89.53,-182.51 -27.7,-143.07 21.7,-284.94 117.91,-314.47 6.74,-2.07 13.68,-3.58 20.86,-4.5 5.97,-0.78 12.04,-1.15 18.18,-1.15 88.71,0 191.35,79.42 209.67,206.21 14.72,102.65 1.86,273.98 -97.31,327.48 -14.21,7.67 -30.18,12.92 -48.1,15.2 -4.08,0.53 -8.14,0.87 -12.17,1.08zm-65.32 -534.46c-5,0 -10.03,0.28 -15.04,0.85 -101.25,11.57 -124.39,167.78 -115.71,169.36 0.11,0.03 0.21,0.03 0.32,0.03 8.91,0 32.14,-65.35 85.97,-72.48 3.8,-0.5 8.17,-0.74 13,-0.74 25.43,0 63.89,6.37 101.19,12.74 37.33,6.37 73.51,12.75 94.42,12.75 11.21,0 18.03,-1.83 18.24,-6.5 0.72,-15.62 -86.81,-116 -182.39,-116z"/>
  <g style="clip-path:url(#id13)">
   <image x="1029.74" y="805.62" width="314.17" height="171.11" xlink:href="robot2_Images\robot2_ImgID14.png"/>
  </g>
  <g style="clip-path:url(#id14)">
   <image x="992.24" y="448.68" width="335" height="180.83" xlink:href="robot2_Images\robot2_ImgID15.png"/>
  </g>
  <path class="fil26" d="M2221.44 809.8c-10.58,0 -21.06,-2.47 -30.78,-7.85 -79.15,-43.74 -94.83,-167.17 -70.85,-225.67 17.43,1.82 34.08,3.93 49.62,6.06 41.07,5.6 74.46,11.19 94.43,11.19 0.32,0 0.65,0 0.97,0 22.13,22.89 40.06,51.71 47.74,82.76 17.72,71.72 -38.26,133.5 -91.14,133.5z"/>
  <path class="fil27" d="M1724.05 1013.65c-19.21,0 -39.14,-5.9 -58.72,-19.46 -54.32,-37.58 -70.64,-121.08 -56.96,-189.94 33.14,-31.67 70.72,-70.96 110.93,-107.44 71.67,5.57 135.02,84.1 135.92,163.83 0.82,72.87 -60.36,153.01 -131.17,153.01z"/>
  <path class="fil28" d="M1945.22 1026.19c-8.54,15.39 102.33,90.47 155.58,68.58 62.39,-25.64 52.68,-157.68 41.11,-166.64 -11.57,-8.96 -182.22,72.03 -196.69,98.06z"/>
  <g style="clip-path:url(#id15)">
   <image x="1439.47" y="348.68" width="864.17" height="523.89" xlink:href="robot2_Images\robot2_ImgID16.png"/>
  </g>
  <g style="clip-path:url(#id16)">
   <image x="2113.08" y="534.79" width="157.22" height="65.56" xlink:href="robot2_Images\robot2_ImgID17.png"/>
  </g>
  <g style="clip-path:url(#id17)">
   <image x="1601.97" y="691.73" width="122.5" height="118.33" xlink:href="robot2_Images\robot2_ImgID18.png"/>
  </g>
  <path class="fil29" d="M1422.19 1434.69c-2.02,-12.04 -4.02,-23.83 -6.02,-35.28 14.78,-4.74 29,-9.7 42.32,-14.63 52.59,-19.46 90.86,-38.17 90.86,-38.17l20.75 16.88c0,0 -20.65,12.92 -53.25,29.56 -25.59,13.07 -58.56,28.43 -94.67,41.64zm-310.46 -200.67c-15.8,-129.97 -7.31,-267.54 -7.31,-267.54 0,0 -0.46,-3.08 -0.76,-8.15 -0.26,-4.41 -0.4,-10.33 -0.03,-17.03 0.86,-15.28 4.44,-34.61 15.54,-49.51 4.65,-6.25 10.64,-11.72 18.31,-15.78 0,0 0.64,-0.03 1.79,-0.03 6.44,0 29.11,1.04 49.11,14.68 12.81,8.74 24.52,22.61 30.21,44.68 0,0 -4.01,12.85 -10.03,34.35 -1.64,5.85 -3.42,12.33 -5.32,19.39 -0.53,1.96 -1.06,3.94 -1.6,5.98 -4.47,16.82 -9.44,36.44 -14.46,57.85 -0.18,0.76 -0.35,1.51 -0.53,2.29 -12.04,51.79 -24.15,113.71 -29.6,171.69 -16.08,2.1 -31.19,4.52 -45.33,7.13z"/>
  <path class="fil30" d="M1485.15 1352.59c-21.9,44.83 56.61,65.56 113.83,56.22 64.24,-10.46 168.15,-65.76 144.08,-126.71 -24.07,-60.94 -206.64,-34.63 -257.92,70.48z"/>
  <path class="fil31" d="M1491.17 1358.05c0.94,10.79 224.21,-48.31 218.54,-89.1 -5.65,-40.78 -225.87,5.6 -218.54,89.1z"/>
  <path class="fil32" d="M944.41 1500.65c0,0 8.68,-29.44 46.35,-42.65l23.08 83.71 -69.43 -41.06z"/>
  <path class="fil33" d="M1163.29 1904.73c-10.21,0 -20.5,-0.18 -30.86,-0.54 0,0 -6.29,-15.25 -16.75,-42.93 0.59,-0.38 190.43,-119.96 270.93,-264.67 0,0 -49.21,-282.83 -57.75,-330.3l-171.06 391.08c5.97,-22.18 9.07,-45.54 6.89,-68.63l-104.19 114.07 30.08 83.87c0,0 13.86,-16.89 29.65,-43.43l-25.97 59.39 21.36 58.46c-34.42,-91.11 -113.76,-316.4 -162.53,-575.75 0,0 51.72,-31.58 158.64,-51.33 14.14,-2.61 29.25,-5.03 45.33,-7.13 23.49,-3.06 49.06,-5.47 76.72,-6.9 18.53,-0.97 38,-1.5 58.4,-1.5 9.21,0 18.56,0.11 28.14,0.33l0 0 116.97 650.61c0,0 -127.43,35.29 -274.01,35.29z"/>
  <path class="fil34" d="M1437.3 1869.44l0 0 -116.97 -650.61 56.6 -21.08c0,0 16.07,71.71 34.74,176 1.48,8.36 3,16.9 4.51,25.67 2,11.44 4,23.23 6.02,35.28 0.64,3.86 1.28,7.69 1.92,11.6 15.18,92.5 30.13,200.15 38.15,303.44 0.75,9.64 1.43,19.26 2.06,28.82 0.14,2.22 0.28,4.42 0.42,6.65 1.61,25.87 2.72,51.33 3.22,76.06l-23.93 6.39 -4.72 1.27 -2 0.53z"/>
  <g style="clip-path:url(#id18)">
   <image x="1056.13" y="1582.01" width="118.33" height="211.39" xlink:href="robot2_Images\robot2_ImgID19.png"/>
  </g>
  <path class="fil35" d="M953.09 1285.35c0,0 86.94,-71.09 423.85,-87.61l-56.61 21.08c0,0 -153.19,-2.89 -367.24,66.53z"/>
  <path class="fil36" d="M972.43 1546.55c0,0 6.96,144.43 61.15,175.43 0,0 155.29,-87.5 133.54,-177.75 -15.3,-63.59 -194.69,2.32 -194.69,2.32z"/>
  <path class="fil37" d="M944.41 1500.65c0,0 0,118.63 68.24,191.89 0,0 90.71,-36.26 121.24,-73.09 49.04,-59.22 28.81,-93.18 12.28,-106.93 -26.37,-21.97 -201.75,-11.86 -201.75,-11.86z"/>
  <path class="fil38" d="M1359.5 1330.55c0,0 17.24,-15.32 34.65,-12.18 0,0 33.32,93.92 26.09,170.75l-26.09 7.2 -34.65 -165.76z"/>
  <path class="fil39" d="M1359.5 1330.55c0,0 40.53,91.54 47.56,162.19l23.09 -8.67c0,0 -16.89,-121.13 -36,-165.71 0,0 -23.08,-0.49 -34.65,12.18z"/>
  <path class="fil40" d="M1202.15 1383.91c6.81,34.28 -8.19,66.12 -33.51,71.14 -25.29,5.01 -51.32,-18.7 -58.11,-52.96 -6.79,-34.26 8.21,-66.12 33.5,-71.14 25.3,-5.01 51.32,18.69 58.12,52.96z"/>
  <path class="fil41" d="M1197.9 1385.93c5.29,26.68 -6.39,51.47 -26.08,55.37 -19.7,3.91 -39.94,-14.56 -45.24,-41.22 -5.29,-26.67 6.39,-51.47 26.08,-55.37 19.69,-3.91 39.94,14.56 45.24,41.22z"/>
  <path class="fil42" d="M1173.93 1867.87l0 -29.83 168.54 -22.92 12.19 26.54c0,0 -94.96,19.6 -180.74,26.21z"/>
  <path class="fil43" d="M1115.67 1861.26l-0.06 -0.15c0.03,0.06 0.04,0.1 0.06,0.15l0 0z"/>
  <g style="clip-path:url(#id19)">
   <image x="1089.47" y="1261.18" width="304.44" height="605.83" xlink:href="robot2_Images\robot2_ImgID20.png"/>
  </g>
  <g style="clip-path:url(#id20)">
   <image x="1115.86" y="1651.45" width="47.5" height="98.89" xlink:href="robot2_Images\robot2_ImgID21.png"/>
  </g>
  <g style="clip-path:url(#id21)">
   <image x="1939.47" y="1048.68" width="397.5" height="223.89" xlink:href="robot2_Images\robot2_ImgID22.png"/>
  </g>
  <path class="fil1" d="M1437.3 427.73c-0.37,22.72 138.4,-89.86 121.06,-99.15 -17.36,-9.32 -120.61,73.13 -121.06,99.15z"/>
  <g style="clip-path:url(#id22)">
   <image x="1679.74" y="2022.29" width="14.17" height="16.94" xlink:href="robot2_Images\robot2_ImgID23.png"/>
  </g>
  <g style="clip-path:url(#id23)">
   <image x="1358.91" y="2098.68" width="401.67" height="723.89" xlink:href="robot2_Images\robot2_ImgID24.png"/>
  </g>
  <path class="fil1" d="M1504.48 2218.47c-10.94,17.98 16.99,127.01 32.18,124.83 15.18,-2.18 18.51,-59.67 10.89,-78.11 -7.64,-18.43 -40.61,-50.72 -43.07,-46.72z"/>
  <path class="fil1" d="M1539.91 2361.44c-12.76,6.46 2.54,39.35 11.59,38.26 9.01,-1.09 0,-44.13 -11.59,-38.26z"/>
  <path class="fil1" d="M1900.38 227.44c8.68,18.07 66.43,-19.8 57.85,-35.44 -8.57,-15.65 -66.52,17.36 -57.85,35.44z"/>
  <path class="fil1" d="M960.31 1529.31c0,10.96 57.86,-1.52 53.53,-10.72 -4.35,-9.21 -53.53,-7.47 -53.53,10.72z"/>
  <path class="fil44" d="M1122.7 931.04c-15.09,-5.03 -22.01,205.97 -9.75,208.86 12.25,2.9 33.14,-201.1 9.75,-208.86z"/>
  <path class="fil45" d="M2522.4 2326.7c14.18,-12.59 21.28,-33.39 21.28,-33.39 0,0 -13.85,-34.58 -37.65,-87.13 -14.53,-32.1 -38.67,-71.69 -64.49,-110.37 -0.48,-0.72 -1,-1.5 -1.54,-2.31 -52.15,-77.8 -110.53,-151.15 -110.53,-151.15 -0.03,-0.01 -0.07,-0.03 -0.1,-0.04 8.21,-1.85 17.67,-2.76 28.57,-2.76 6.3,0 13.06,0.3 20.35,0.92 0.61,0.04 1.21,0.09 1.82,0.15 65.65,6.47 113.67,67.99 113.67,67.99 49.9,78.92 65.22,190.98 66.87,225.74 -4.11,30.54 -12.21,74.18 -38.25,92.36zm-234.79 -276.75c-8.17,-20.98 -11.61,-37.76 -9.22,-48.47 4.02,-18.01 9.83,-32 19.24,-42.07 -4.39,10.39 -8.48,25.43 -12.93,46.35 -2.71,12.71 -1.44,27.67 2.92,44.19z"/>
  <path class="fil46" d="M2499.97 2336.05c-11.53,0 -25.33,-6.68 -41.43,-25.33 -49.9,-57.85 -110.65,-134.03 -145.94,-200.46 -0.36,-0.7 -0.72,-1.38 -1.08,-2.06 -10.86,-20.68 -19.19,-40.39 -23.9,-58.25 -4.36,-16.53 -5.63,-31.48 -2.92,-44.19 4.44,-20.92 8.54,-35.96 12.93,-46.35 5.89,-13.94 12.29,-19.49 20.74,-19.49 3.33,0 6.96,0.85 11.02,2.39 0.03,0.01 0.07,0.03 0.1,0.04 0,0 58.37,73.35 110.53,151.15 -20.33,-29.89 -85.5,-108.56 -85.5,-108.56l19.36 220.33c54.96,-16.37 67.89,-109.15 67.89,-109.15 -0.07,-0.1 -0.14,-0.21 -0.21,-0.32 25.82,38.68 49.96,78.28 64.49,110.37 23.8,52.54 37.65,87.13 37.65,87.13 0,0 -7.09,20.8 -21.28,33.39 -6.15,5.44 -13.63,9.35 -22.43,9.35z"/>
  <g style="clip-path:url(#id24)">
   <image x="2435.3" y="2088.95" width="11.39" height="14.17" xlink:href="robot2_Images\robot2_ImgID25.png"/>
  </g>
  <g style="clip-path:url(#id25)">
   <image x="2349.19" y="1977.84" width="97.5" height="232.22" xlink:href="robot2_Images\robot2_ImgID26.png"/>
  </g>
  <path class="fil47" d="M2384.35 2036.09c9.33,20.91 -0.07,160.64 -14.48,177.11 -14.42,16.46 -50.65,-8.47 -61.71,-36.18 -11.07,-27.71 -62.08,-179.1 -8.28,-230.94 0,0 45.56,2.83 84.47,90.01z"/>
  <path class="fil48" d="M2359.91 2056c6.24,0.83 15.43,48.12 10.71,56.92 -4.71,8.79 -15.03,8.29 -20.4,-2.24 -5.39,-10.53 0.26,-55.94 9.69,-54.68z"/>
 </g>
</svg>
